
<?xml version="1.0" standalone="no"?>
<!DOCTYPE svg PUBLIC "-//W3C//DTD SVG 1.1//EN" "http://www.w3.org/Graphics/SVG/1.1/DTD/svg11.dtd" >
<svg>
<metadata>
Created by FontForge 20120731 at Fri Aug 26 16:13:41 2016
 By ,,,
(URW)++,Copyright 2000 by (URW)++ Design &#38; Development
</metadata>
<defs>
<font id="A028-Ext" horiz-adv-x="1360" vert-adv-y="2048" >
  <font-face
    font-family="A028 Extrabold"
    font-weight="400"
    font-stretch="normal"
    units-per-em="2048"
    panose-1="0 0 0 0 0 0 0 0 0 0"
    ascent="1748"
    descent="-300"
    x-height="1096"
    cap-height="1566"
    bbox="-376 -628 2640 2141"
    underline-thickness="227"
    underline-position="-127"
    unicode-range="U+0014-FB04"
  />
<missing-glyph horiz-adv-x="755" vert-adv-y="2457"
d="M76 0v1365h603v-1365h-603zM603 76v1213h-451v-1213h451z" />
    <glyph glyph-name=".notdef" horiz-adv-x="755" vert-adv-y="2457"
d="M76 0v1365h603v-1365h-603zM603 76v1213h-451v-1213h451z" />
    <glyph glyph-name="glyph1" horiz-adv-x="0" vert-adv-y="0"
 />
    <glyph glyph-name="glyph2" horiz-adv-x="755" vert-adv-y="2457"
 />
    <glyph glyph-name="space" unicode=" " horiz-adv-x="755" vert-adv-y="2457"
 />
    <glyph glyph-name="exclam" unicode="!" horiz-adv-x="755" vert-adv-y="2457"
d="M341 476l-159 377v484q2 145 -42 229h475q-44 -86 -42 -229v-484l-159 -377h-73zM377 403q100 0 171 -61q70 -61 70 -151q0 -84 -70 -145t-170 -61q-101 0 -171 61q-70 62 -70 148q0 88 70 148q72 61 170 61z" />
    <glyph glyph-name="quotedbl" unicode="&#x22;" horiz-adv-x="1171" vert-adv-y="2457"
d="M256 930l-76 636h366l-75 -636h-215zM701 930l-76 636h366l-76 -636h-214z" />
    <glyph glyph-name="numbersign" unicode="#" vert-adv-y="2457"
d="M959 490l-49 -345h-218l49 345h-202l-48 -345h-218l48 345h-210l31 220h210l26 187h-210l31 220h210l49 344h218l-49 -344h202l48 344h218l-48 -344h202l-31 -220h-202l-26 -187h202l-31 -220h-202zM798 897h-202l-26 -187h202z" />
    <glyph glyph-name="dollar" unicode="$" vert-adv-y="2457"
d="M738 1283v-294q171 -92 237 -131q128 -78 180 -162q56 -91 56 -212q0 -179 -110 -305q-115 -132 -363 -157v-210h-109v204q-128 0 -220 17q-92 16 -220 62v376q245 -183 440 -189v356q-231 119 -297 169q-175 134 -175 319q0 161 116 279q122 122 356 142v207h109v-204
q202 -7 371 -68v-376q-208 164 -371 177zM629 1276q-28 -7 -49 -19q-63 -34 -63 -92q0 -50 63 -89q9 -6 49 -28v228zM738 299q35 12 59 31q53 42 53 108q0 80 -112 141v-280z" />
    <glyph glyph-name="percent" unicode="%" horiz-adv-x="2001" vert-adv-y="2457"
d="M915 1403l92 163h572l-18 -31l-33 -58l-52 -89l-723 -1242q-68 -105 -70 -146h-288q41 52 70 97q16 26 109 194l601 1040h-233q13 -57 13 -103q0 -181 -138 -284q-121 -91 -298 -91q-190 0 -300 118q-94 100 -94 246q0 166 116 262q133 111 330 111q244 0 344 -187z
M519 1433q-25 0 -44 -19q-33 -34 -33 -115q0 -106 41 -212q30 -77 80 -77q75 0 75 131q0 118 -39 219q-29 73 -80 73zM1489 713q180 0 286 -105q100 -100 100 -262q0 -175 -138 -279q-121 -91 -298 -91q-190 0 -300 118q-94 100 -94 246q0 164 116 262q131 111 328 111z
M1439 556q-26 0 -44 -19q-33 -34 -33 -115q0 -106 41 -212q30 -77 81 -77q74 0 74 131q0 117 -39 219q-28 73 -80 73z" />
    <glyph glyph-name="ampersand" unicode="&#x26;" horiz-adv-x="1850" vert-adv-y="2457"
d="M1075 1323h584v-273h-146q1 -162 -19 -289q-24 -144 -99 -284q146 -145 231 -206q79 -57 133 -75q28 -9 81 -13q-110 -105 -175 -149q-80 -54 -155 -54q-66 0 -131 46q-48 34 -165 132q-222 -189 -554 -189q-258 0 -410 116q-153 118 -153 302q0 225 230 383
q-124 99 -124 239q0 101 60 197q57 91 159 137q93 43 200 43q170 0 285 -94q128 -104 128 -263q0 -117 -101 -229q102 -55 188 -114q34 76 47 140q15 77 15 175q0 13 -1 49h-108v273zM625 933q3 2 7 3l4 2q59 31 59 94q0 33 -17 58q-22 30 -53 30t-53 -30q-17 -25 -17 -59
q0 -41 24 -68q10 -12 26 -20q19 -11 20 -10zM622 619q-141 -65 -141 -188q0 -75 65 -120q64 -45 156 -45q84 0 161 35q56 26 100 88q-181 173 -341 230z" />
    <glyph glyph-name="quotesingle" unicode="'" horiz-adv-x="755" vert-adv-y="2457"
d="M270 930l-76 636h366l-75 -636h-215z" />
    <glyph glyph-name="parenleft" unicode="(" horiz-adv-x="1020" vert-adv-y="2457"
d="M630 1566h351q-128 -125 -191 -210q-235 -315 -235 -745q0 -336 142 -600q68 -125 165 -234q38 -42 119 -121h-351q-199 176 -295 320q-187 280 -187 635t187 634q96 144 295 321z" />
    <glyph glyph-name="parenright" unicode=")" horiz-adv-x="1020" vert-adv-y="2457"
d="M390 -344h-351q128 125 192 210q234 315 234 745q0 337 -142 600q-67 125 -165 234q-38 42 -119 121h351q199 -176 295 -321q187 -278 187 -634t-187 -635q-97 -145 -295 -320z" />
    <glyph glyph-name="asterisk" unicode="*" vert-adv-y="2457"
d="M583 1380l-51 188q73 37 148 37t147 -37l-50 -188l137 138q64 -40 106 -109q40 -71 41 -146l-186 -50l186 -50q-1 -75 -41 -147q-42 -70 -106 -109l-137 138l53 -181q-60 -44 -148 -44q-78 0 -150 37l51 188l-137 -138q-65 40 -106 109q-39 71 -42 147l187 50l-187 49
q3 78 42 147q40 68 105 109z" />
    <glyph glyph-name="plus" unicode="+" horiz-adv-x="2001" vert-adv-y="2457"
d="M398 916h494v470h219v-470h493v-235h-493v-470h-219v470h-494v235z" />
    <glyph glyph-name="comma" unicode="," horiz-adv-x="755" vert-adv-y="2457"
d="M185 423h482q-5 -194 -73 -366q-76 -191 -201 -280h-321q121 223 121 504q0 70 -8 142z" />
    <glyph glyph-name="hyphen" unicode="-" horiz-adv-x="755" vert-adv-y="2457"
d="M56 375v379q81 -14 234 -16h175q153 2 234 16v-379q-80 14 -234 16h-175q-154 -2 -234 -16z" />
    <glyph glyph-name="period" unicode="." horiz-adv-x="755" vert-adv-y="2457"
d="M377 447q111 0 189 -68t78 -167q0 -93 -78 -161t-188 -68q-111 0 -189 68t-78 164q0 97 78 164q79 68 188 68z" />
    <glyph glyph-name="slash" unicode="/" horiz-adv-x="1020" vert-adv-y="2457"
d="M790 1566h337q-57 -82 -146 -254l-715 -1390q-40 -77 -40 -113q0 -9 3 -28h-335q58 81 131 219l698 1360q73 142 67 203v3z" />
    <glyph glyph-name="zero" unicode="0" vert-adv-y="2457"
d="M679 1605q185 0 328 -96q154 -103 228 -312q64 -180 64 -426q0 -265 -87 -459q-86 -193 -246 -281q-128 -70 -286 -70q-185 0 -327 96q-152 101 -228 312q-64 180 -64 414q0 405 184 629q78 95 193 144q114 49 241 49zM680 1307q-66 0 -115 -50q-97 -99 -97 -474
q0 -284 56 -414q26 -58 79 -90q34 -20 77 -20q66 0 116 50q96 98 96 467q0 295 -56 420q-50 111 -156 111z" />
    <glyph glyph-name="one" unicode="1" vert-adv-y="2457"
d="M931 1629v-1258q0 -132 15 -216q14 -77 59 -155h-539q44 76 60 155q14 80 14 216v693h-268z" />
    <glyph glyph-name="two" unicode="2" vert-adv-y="2457"
d="M1184 0h-1140q221 266 352 450q256 359 341 533q49 100 49 164q0 57 -34 93q-33 36 -87 36q-72 0 -116 -66q-46 -68 -46 -176q0 -42 9 -110l-406 98q-1 30 -1 37q0 186 112 336q156 210 456 210q216 0 360 -112q160 -125 160 -344q0 -126 -59 -253q-46 -99 -146 -236
l-264 -362l141 1q209 -2 427 129z" />
    <glyph glyph-name="three" unicode="3" vert-adv-y="2457"
d="M130 1566h1153q-72 -92 -135 -214l-222 -433q87 -36 128 -71q76 -61 116 -163q39 -95 39 -202q0 -152 -76 -280q-142 -242 -498 -242q-334 0 -538 229l197 330q59 -97 107 -145q82 -85 195 -85q95 0 152 60q60 62 60 151q0 158 -196 216q-66 20 -190 20l281 531h-100
q-196 0 -299 -29q-84 -24 -174 -79v406z" />
    <glyph glyph-name="four" unicode="4" vert-adv-y="2457"
d="M1081 417v-187q-2 -146 42 -230h-468q44 86 42 230v187h-630v314q53 55 104 122l448 583q45 58 70 130h435q-21 -55 -28 -86q-16 -69 -15 -156v-609h218v-298h-218zM705 710v378l-269 -378h269z" />
    <glyph glyph-name="five" unicode="5" vert-adv-y="2457"
d="M651 1268l-15 -259q36 2 51 2q210 0 368 -139q161 -142 161 -368q0 -214 -156 -370q-174 -173 -442 -173q-274 0 -520 222l169 309q67 -89 145 -140q96 -62 184 -62q92 0 151 56q62 58 62 153q0 89 -63 148q-70 66 -182 66q-135 0 -320 -65l31 689q1 18 1 23
q0 120 -43 206h1005l-140 -379q-152 79 -347 81h-100z" />
    <glyph glyph-name="six" unicode="6" vert-adv-y="2457"
d="M588 1566h479q-155 -189 -289 -473l-75 -163q63 8 97 8q135 0 257 -74q111 -66 166 -175q46 -91 46 -197q0 -218 -174 -365q-98 -82 -222 -125q-119 -41 -239 -41q-238 0 -402 144q-141 125 -141 311q0 91 29 173q28 83 77 179l351 689q38 74 40 101v8zM666 640
q-78 0 -124 -58q-37 -48 -37 -119q0 -80 45 -135q56 -69 144 -69q79 0 125 58q37 47 37 116q0 84 -45 138q-57 69 -145 69z" />
    <glyph glyph-name="seven" unicode="7" vert-adv-y="2457"
d="M165 1566h1132q-31 -44 -51 -84q-23 -47 -73 -174l-428 -1107q-56 -143 -56 -174q0 -9 5 -27h-490q52 57 84 111q35 57 103 232l354 925h-206q-144 0 -236 -39q-70 -30 -138 -96v433z" />
    <glyph glyph-name="eight" unicode="8" vert-adv-y="2457"
d="M307 813q-174 154 -174 339q0 148 91 265q147 189 456 189q226 0 370 -106q83 -60 129 -150q48 -93 48 -198q0 -185 -174 -339q90 -58 134 -117q85 -114 85 -261q0 -139 -83 -255q-81 -113 -237 -172q-126 -47 -272 -47q-257 0 -428 134q-76 60 -120 152q-43 89 -43 188
q0 147 85 261q44 59 133 117zM677 1308q-68 0 -116 -50t-48 -120t48 -120q49 -50 116 -50q69 0 117 50t48 118q0 74 -48 122q-49 50 -117 50zM680 671q-80 0 -137 -60q-57 -61 -57 -146t57 -146q56 -60 138 -60q81 0 137 60q57 60 57 143q0 90 -57 149q-58 60 -138 60z" />
    <glyph glyph-name="nine" unicode="9" vert-adv-y="2457"
d="M772 0h-480q156 192 289 474l76 164q-59 -9 -97 -9q-135 0 -258 74q-110 66 -165 175q-46 91 -46 197q0 218 174 365q98 82 222 125q119 41 239 41q238 0 402 -144q141 -125 141 -311q0 -92 -29 -173q-28 -82 -78 -179l-351 -690q-40 -78 -40 -101q0 -2 1 -8zM666 1308
q-79 0 -125 -58q-37 -47 -37 -117q0 -82 45 -137q56 -69 145 -69q78 0 124 58q37 48 37 119q0 81 -45 135q-57 69 -144 69z" />
    <glyph glyph-name="colon" unicode=":" horiz-adv-x="755" vert-adv-y="2457"
d="M377 1096q111 0 189 -68t78 -167q0 -93 -78 -161t-188 -68q-111 0 -189 68t-78 164q0 97 78 164q79 68 188 68zM377 447q111 0 189 -68t78 -167q0 -93 -78 -161t-188 -68q-111 0 -189 68t-78 164q0 97 78 164q79 68 188 68z" />
    <glyph glyph-name="semicolon" unicode=";" horiz-adv-x="755" vert-adv-y="2457"
d="M185 423h482q-5 -194 -73 -366q-76 -191 -201 -280h-321q121 223 121 504q0 70 -8 142zM412 1096q111 0 189 -68t78 -167q0 -93 -78 -161t-188 -68q-111 0 -189 68q-78 69 -78 164q0 97 78 164q79 68 188 68z" />
    <glyph glyph-name="less" unicode="&#x3c;" horiz-adv-x="2039" vert-adv-y="2457"
d="M1528 1489v-382l-611 -324l611 -324v-382l-1018 546v322z" />
    <glyph glyph-name="equal" unicode="=" horiz-adv-x="2001" vert-adv-y="2457"
d="M398 1151h1206v-235h-1206v235zM398 681h1206v-235h-1206v235z" />
    <glyph glyph-name="greater" unicode="&#x3e;" horiz-adv-x="2039" vert-adv-y="2457"
d="M511 1489l1018 -544v-322l-1018 -546v382l611 324l-611 324v382z" />
    <glyph glyph-name="question" unicode="?" horiz-adv-x="982" vert-adv-y="2457"
d="M-9 1091l19 408q228 99 449 99q226 0 363 -118q154 -131 154 -338q0 -158 -92 -283q-55 -73 -134 -126q-65 -44 -150 -89q-130 -70 -170 -112q-27 -30 -42 -59l-83 -1l-5 268q30 36 108 109q92 87 128 145q33 53 33 102q0 81 -79 133q-61 39 -137 39q-163 0 -362 -177z
M358 403q101 0 171 -61t70 -151q0 -84 -70 -145t-170 -61q-101 0 -171 61q-70 62 -70 148q0 87 70 148q72 61 170 61z" />
    <glyph glyph-name="at" unicode="@" horiz-adv-x="2001" vert-adv-y="2457"
d="M1249 1162l216 -1l-90 -461q-15 -78 -15 -101q0 -70 47 -70q51 0 103 74q89 127 89 298q0 228 -159 369q-152 135 -389 135q-266 0 -446 -181q-185 -187 -185 -455q0 -173 82 -320q91 -161 246 -232q123 -56 302 -56q237 0 443 79l50 -192q-219 -80 -491 -80
q-366 0 -591 214q-119 113 -184 273q-63 153 -63 316q0 235 125 440q120 196 323 298q175 88 381 88q304 0 511 -178q119 -102 180 -248q54 -128 54 -269q0 -211 -110 -372q-74 -108 -171 -152q-57 -26 -111 -26q-87 0 -148 61q-27 28 -36 58q-31 -42 -75 -70
q-102 -67 -211 -67q-143 0 -240 107q-98 108 -98 270q0 197 136 345q119 131 280 131q109 0 179 -57q19 -16 50 -50zM1032 968q-93 0 -152 -92q-46 -72 -46 -156q0 -70 32 -114q40 -57 113 -57q91 0 151 95q47 73 47 157q0 70 -35 115q-40 52 -110 52z" />
    <glyph glyph-name="A" unicode="A" horiz-adv-x="1586" vert-adv-y="2457"
d="M1015 421h-478l-73 -183q-31 -77 -31 -132q0 -43 29 -106h-538q43 39 69 74q52 72 104 199l541 1293h293l594 -1328q60 -132 91 -175q20 -27 53 -63h-592q39 60 39 119q0 60 -38 152zM892 719l-126 315l-118 -315h244z" />
    <glyph glyph-name="B" unicode="B" horiz-adv-x="1435" vert-adv-y="2457"
d="M163 1566h533q175 0 275 -32q151 -48 223 -163q55 -88 55 -195q0 -124 -69 -214q-40 -51 -121 -111q109 -43 164 -100q104 -106 104 -274q0 -165 -105 -289q-162 -188 -561 -188h-498q34 60 45 110q11 60 12 179v988q-1 119 -12 179q-11 51 -45 110zM643 921
q168 43 168 201q0 95 -60 153q-39 40 -108 48v-402zM643 243q208 23 208 226q0 132 -77 206q-49 48 -131 58v-490z" />
    <glyph glyph-name="C" unicode="C" horiz-adv-x="1473" vert-adv-y="2457"
d="M1364 1566l10 -409q-76 81 -143 118q-117 64 -250 64q-203 0 -340 -163q-131 -155 -131 -387q0 -239 120 -386q63 -77 156 -120q89 -40 188 -40q156 0 294 97q45 31 109 96l8 -392q-250 -83 -489 -83q-371 0 -594 215q-230 221 -230 574q0 255 121 461q128 219 362 316
q186 78 426 78q218 0 383 -39z" />
    <glyph glyph-name="D" unicode="D" horiz-adv-x="1586" vert-adv-y="2457"
d="M93 1566h555q318 0 505 -100q189 -101 293 -289q94 -171 94 -380q0 -256 -138 -457q-79 -115 -196 -196q-140 -96 -332 -124q-131 -20 -298 -20h-476q32 56 43 110q10 57 10 179v988q0 114 -14 179q-11 51 -46 110zM576 243q219 13 340 112q185 150 185 439
q0 191 -85 322q-89 139 -261 184q-68 18 -179 23v-1080z" />
    <glyph glyph-name="E" unicode="E" horiz-adv-x="1246" vert-adv-y="2457"
d="M587 923h541l-171 -385q-52 45 -113 73q-108 48 -211 46h-46v-391h80q210 0 362 38q103 25 220 78l-168 -382h-974q34 59 45 110q11 61 12 179v988q-1 118 -12 179q-11 51 -45 110h1055l-153 -386q-123 119 -339 120h-83v-377z" />
    <glyph glyph-name="F" unicode="F" horiz-adv-x="1171" vert-adv-y="2457"
d="M597 658v-369q0 -119 12 -179q10 -51 44 -110h-536q34 59 45 110q11 61 12 179v988q-1 118 -12 179q-11 51 -45 110h1063l-159 -375q-137 110 -370 109h-54v-376h536l-152 -362q-123 96 -330 96h-54z" />
    <glyph glyph-name="G" unicode="G" horiz-adv-x="1586" vert-adv-y="2457"
d="M1422 1530l8 -425q-97 89 -168 134q-158 100 -334 100q-187 0 -315 -121q-159 -150 -159 -402q0 -180 82 -323q105 -185 329 -234q74 -16 149 -16q14 0 42 2q18 2 34 3v294q0 119 -12 179q-10 51 -45 110h536q-32 -57 -44 -110q-12 -59 -12 -179v-227q1 -176 40 -251
q-311 -103 -633 -103q-424 0 -670 240q-234 227 -234 586q0 408 299 638q233 180 591 180q300 0 516 -75z" />
    <glyph glyph-name="H" unicode="H" horiz-adv-x="1662" vert-adv-y="2457"
d="M1064 665h-465v-376q0 -119 12 -179q10 -50 44 -110h-536q34 59 45 110q11 61 12 179v988q-1 118 -12 179q-11 51 -45 110h536q-34 -60 -44 -110q-12 -60 -12 -179v-330h465v330q-1 119 -12 179q-11 51 -45 110h536q-34 -59 -44 -110q-12 -61 -12 -179v-988
q0 -118 12 -179q10 -51 44 -110h-536q34 59 45 110q11 60 12 179v376z" />
    <glyph glyph-name="I" unicode="I" horiz-adv-x="793" vert-adv-y="2457"
d="M664 0h-536q34 60 45 110q11 60 12 179v988q-1 119 -12 179q-11 51 -45 110h536q-34 -59 -44 -110q-12 -60 -12 -179v-988q0 -119 12 -179q10 -50 44 -110z" />
    <glyph glyph-name="J" unicode="J" horiz-adv-x="906" vert-adv-y="2457"
d="M87 1566h756q-34 -60 -44 -110q-12 -60 -12 -179v-947q0 -230 -45 -336q-67 -158 -256 -287q-121 -83 -210 -83q-128 0 -265 116q164 76 278 239q56 82 68 167q7 50 7 184v954h-64q-138 0 -240 -36q-60 -22 -88 -43q-13 -8 -50 -42z" />
    <glyph glyph-name="K" unicode="K" horiz-adv-x="1511" vert-adv-y="2457"
d="M852 881l456 -595q136 -179 280 -286h-679q16 35 16 65q0 57 -44 118l-344 470v-364q0 -119 12 -179q10 -50 44 -110h-536q34 59 45 110q11 61 12 179v988q-1 118 -12 179q-11 51 -45 110h536q-34 -59 -44 -110q-12 -60 -12 -179v-313l305 414q40 53 40 105q0 37 -22 83
h561q-56 -44 -85 -71q-41 -39 -102 -119z" />
    <glyph glyph-name="L" unicode="L" horiz-adv-x="1171" vert-adv-y="2457"
d="M994 0h-917q34 60 45 110q11 60 12 179v988q-1 119 -12 179q-11 51 -45 110h536q-34 -60 -44 -110q-12 -60 -12 -179v-995h137q203 0 314 39q66 23 150 83z" />
    <glyph glyph-name="M" unicode="M" horiz-adv-x="2001" vert-adv-y="2457"
d="M553 907v-618q0 -118 12 -179q11 -51 45 -110h-466q34 59 45 110q12 62 12 179v1089l-128 188h553q-7 -24 -7 -36t4 -27q4 -13 41 -73l338 -536l319 517q50 82 50 116q0 12 -9 39h494q-34 -59 -45 -110q-12 -61 -12 -179v-988q0 -118 12 -179q11 -51 45 -110h-537
q34 58 45 110q12 61 12 179v618l-399 -645z" />
    <glyph glyph-name="N" unicode="N" horiz-adv-x="1737" vert-adv-y="2457"
d="M549 860v-571q1 -119 13 -179q10 -50 44 -110h-465q33 58 44 110q12 58 13 179v1068l-153 209h519q20 -70 70 -139l554 -750v600q-1 117 -13 179q-10 51 -44 110h465q-34 -59 -44 -110q-12 -61 -13 -179v-988q1 -118 13 -179q10 -51 44 -110h-454v10q0 26 -9 51
q-8 23 -48 78z" />
    <glyph glyph-name="O" unicode="O" horiz-adv-x="1850" vert-adv-y="2457"
d="M957 1605q364 0 587 -218q235 -229 235 -610q0 -363 -256 -594q-247 -223 -628 -223q-406 0 -631 257q-193 221 -193 548q0 252 121 449q128 210 374 315q177 76 391 76zM898 1338q-166 0 -276 -119q-113 -123 -113 -350q0 -242 101 -426q56 -101 150 -161
q88 -56 196 -56q180 0 292 147q93 123 93 314q0 270 -118 465q-113 186 -325 186z" />
    <glyph glyph-name="P" unicode="P" horiz-adv-x="1322" vert-adv-y="2457"
d="M611 639v-350q0 -119 12 -179q10 -50 44 -110h-536q34 59 45 110q11 61 12 179v988q-1 118 -12 179q-11 51 -45 110h487q225 0 357 -55q142 -58 214 -168q66 -100 66 -234q0 -289 -292 -407q-131 -52 -352 -63zM611 866q94 6 146 61q60 64 60 167q0 127 -87 189
q-48 34 -119 40v-457z" />
    <glyph glyph-name="Q" unicode="Q" horiz-adv-x="1850" vert-adv-y="2457"
d="M1484 150l8 -10q44 -63 143 -169q118 -127 196 -198q-187 -115 -276 -115q-74 0 -160 53q-61 37 -175 141q-81 74 -123 126q-107 -17 -201 -17q-407 0 -632 257q-193 220 -193 547q0 370 250 605q249 235 639 235q362 0 584 -218q235 -229 235 -599q0 -397 -295 -638z
M898 1338q-166 0 -276 -119q-113 -123 -113 -349q0 -242 101 -426q56 -101 150 -161q88 -56 196 -56q180 0 292 147q93 122 93 313q0 271 -118 465q-113 186 -325 186z" />
    <glyph glyph-name="R" unicode="R" horiz-adv-x="1435" vert-adv-y="2457"
d="M587 615v-326q0 -119 12 -179q10 -50 44 -110h-536q34 60 45 110q11 60 12 179v988q-1 119 -12 179q-11 50 -45 110h493q228 0 347 -44q144 -52 222 -172q68 -107 68 -233q0 -157 -96 -269q-54 -63 -172 -124l42 -56l208 -284l217 -296l32 -43q-132 -84 -241 -84
q-65 0 -131 44q-76 50 -185 191zM587 859q95 13 141 58q71 67 71 177q0 117 -81 172q-51 34 -131 34v-441z" />
    <glyph glyph-name="S" unicode="S" horiz-adv-x="1095" vert-adv-y="2457"
d="M991 1549v-420q-99 83 -163 121q-125 73 -235 73q-60 0 -106 -29q-54 -34 -54 -94q0 -64 82 -125q63 -46 199 -133q137 -88 173 -115q99 -78 141 -165q41 -87 41 -192q0 -159 -89 -292q-90 -134 -262 -183q-118 -34 -283 -34q-183 0 -377 52v435q101 -85 167 -125
q135 -80 247 -80q87 0 143 50q47 41 47 104q0 64 -55 109q-28 23 -154 104q-200 128 -238 160q-189 162 -189 371q0 157 97 279q147 185 487 185q206 0 381 -56z" />
    <glyph glyph-name="T" unicode="T" horiz-adv-x="1284" vert-adv-y="2457"
d="M847 1308v-1019q0 -120 12 -179q12 -53 45 -110h-536q33 59 44 110q12 61 12 179v1011q-154 -3 -263 -25q-101 -22 -199 -74l115 365h1276l-112 -318q-145 58 -394 60z" />
    <glyph glyph-name="U" unicode="U" horiz-adv-x="1662" vert-adv-y="2457"
d="M1064 0v84q-89 -56 -158 -82q-110 -41 -237 -41q-269 0 -404 156q-70 80 -85 175q-14 84 -14 223v762q-1 119 -12 179q-11 50 -45 110h536q-34 -60 -44 -110q-12 -60 -12 -179v-689q0 -124 15 -182q25 -87 92 -130q53 -33 115 -33q86 0 155 58q65 56 86 146q12 56 12 207
v623q0 118 -11 179q-11 51 -45 110h536q-34 -59 -44 -110q-12 -61 -12 -179v-988q0 -118 12 -179q10 -51 44 -110h-480z" />
    <glyph glyph-name="V" unicode="V" horiz-adv-x="1548" vert-adv-y="2457"
d="M974 0h-371l-497 1296q-47 121 -90 186q-23 34 -62 84h528q-7 -30 -7 -44q0 -40 32 -126l311 -824l271 758q50 139 50 180q0 18 -13 56h469q-51 -59 -83 -120q-21 -40 -85 -215z" />
    <glyph glyph-name="W" unicode="W" horiz-adv-x="2001" vert-adv-y="2457"
d="M1013 751l-204 -751h-320l-433 1331q-28 89 -64 145q-28 43 -77 90h533q-11 -38 -11 -68q0 -43 36 -167l185 -626l254 861h237l279 -861l163 642q23 93 23 144q0 35 -21 75h493q-86 -90 -155 -312l-366 -1254h-317z" />
    <glyph glyph-name="X" unicode="X" horiz-adv-x="1548" vert-adv-y="2457"
d="M994 818l364 -568q113 -172 215 -250h-601q11 32 11 54q0 60 -54 145l-193 303l-185 -302q-49 -80 -49 -129q0 -31 19 -71h-545q122 111 226 270l341 538l-286 450q-130 203 -248 308h575q-6 -28 -6 -41q0 -51 72 -166l149 -237l164 252q62 95 62 151q0 16 -6 41h493
q-56 -53 -94 -101q-41 -51 -142 -207z" />
    <glyph glyph-name="Y" unicode="Y" vert-adv-y="2457"
d="M894 624v-335q0 -119 12 -179q10 -50 45 -110h-537q35 59 45 110q12 60 12 179v335l-376 674q-79 140 -202 268h597q-13 -38 -13 -63q0 -63 56 -169l189 -361l187 361q49 93 49 158q0 30 -16 74h525q-60 -55 -99 -106q-52 -66 -127 -204z" />
    <glyph glyph-name="Z" unicode="Z" vert-adv-y="2457"
d="M1229 0h-1228q106 136 238 383l482 901h-137q-194 0 -311 -30q-77 -19 -157 -60l105 372h1137q-64 -82 -204 -339l-504 -945h162q214 -1 358 34q85 20 180 67z" />
    <glyph glyph-name="bracketleft" unicode="[" horiz-adv-x="1020" vert-adv-y="2457"
d="M260 1566h594v-172h-210v-1566h210v-172h-594v1910z" />
    <glyph glyph-name="backslash" unicode="\" horiz-adv-x="1020" vert-adv-y="2457"
d="M-106 1566h337v-8q-1 -26 7 -54q9 -44 60 -144l698 -1360q72 -138 131 -219h-335q3 19 3 28q0 35 -40 113l-716 1390q-88 172 -145 254z" />
    <glyph glyph-name="bracketright" unicode="]" horiz-adv-x="1020" vert-adv-y="2457"
d="M760 -344h-594v172h210v1566h-210v172h594v-1910z" />
    <glyph glyph-name="asciicircum" unicode="^" horiz-adv-x="1020" vert-adv-y="2457"
d="M289 812h-338l346 764h426l346 -764h-338l-221 505z" />
    <glyph glyph-name="underscore" unicode="_" horiz-adv-x="1020" vert-adv-y="2457"
d="M-77 -126h1175v-227h-1175v227z" />
    <glyph glyph-name="grave" unicode="`" vert-adv-y="2457"
d="M520 1655l342 -343l-86 -113l-410 251z" />
    <glyph glyph-name="a" unicode="a" horiz-adv-x="1020" vert-adv-y="2457"
d="M583 0v57l-67 -57q-86 -31 -169 -31q-148 0 -236 64q-53 39 -86 104q-32 65 -32 136q0 119 75 206q40 46 98 76q65 34 154 67l263 98v5q0 63 -10 98q-23 78 -144 78q-124 0 -387 -125l89 320q178 32 355 32q284 0 391 -101q62 -60 76 -143q6 -35 6 -156v-439
q0 -119 12 -179q10 -50 44 -110h-432zM583 497h-175q-63 -58 -63 -133q0 -60 35 -96q39 -41 107 -41q54 0 96 34v236z" />
    <glyph glyph-name="b" unicode="b" horiz-adv-x="1246" vert-adv-y="2457"
d="M510 1001l91 95q71 32 157 32q133 0 244 -76q184 -126 184 -398q0 -173 -80 -328q-88 -174 -236 -253q-138 -73 -361 -73h-432q34 59 45 110q11 61 12 179v998q0 100 -14 150q-14 45 -43 90l479 133q-25 -82 -35 -139q-11 -73 -11 -200v-320zM510 245q47 -18 100 -18
q88 0 134 78q58 100 58 259q0 153 -62 231q-46 59 -133 59q-44 0 -97 -30v-579z" />
    <glyph glyph-name="c" unicode="c" horiz-adv-x="982" vert-adv-y="2457"
d="M932 1096v-331q-73 66 -123 92q-86 44 -170 44q-99 0 -161 -73q-67 -79 -67 -215q0 -127 52 -232q75 -154 239 -154q120 0 284 82l-101 -293q-153 -48 -308 -48q-257 0 -406 152q-144 147 -144 391q0 314 220 481q180 136 449 136q137 0 236 -32z" />
    <glyph glyph-name="d" unicode="d" horiz-adv-x="1208" vert-adv-y="2457"
d="M721 0v74l-118 -90q-64 -15 -122 -15q-204 0 -329 148q-114 134 -114 360q0 223 104 375q132 193 358 233q61 10 145 11h76v191q0 100 -14 150q-13 45 -43 90l480 133q-26 -82 -35 -139q-12 -72 -12 -200v-1032q0 -119 12 -179q10 -50 44 -110h-432zM721 838
q-39 31 -92 31q-80 0 -130 -64q-77 -98 -77 -283q0 -157 63 -225q49 -54 130 -54q53 0 106 27v568z" />
    <glyph glyph-name="e" unicode="e" horiz-adv-x="1057" vert-adv-y="2457"
d="M1058 471h-659q45 -229 279 -229q152 0 375 107l-101 -299q-78 -40 -146 -56q-109 -26 -240 -26q-299 0 -444 173q-125 148 -125 376q0 219 112 379q162 232 477 232q237 0 356 -136q69 -79 93 -178q25 -104 25 -231q0 -37 -2 -112zM682 729q0 55 -17 92q-37 80 -119 80
q-71 0 -116 -67q-26 -38 -35 -105h287z" />
    <glyph glyph-name="f" unicode="f" horiz-adv-x="755" vert-adv-y="2457"
d="M763 1096v-226h-249v-581q0 -119 12 -179q10 -50 44 -110h-489q34 58 45 110q12 61 12 179v581h-156l156 214v68q0 239 145 357q112 90 295 90q135 0 274 -47l-146 -309q-58 74 -113 74q-36 0 -56 -28q-23 -33 -23 -118v-75h249z" />
    <glyph glyph-name="g" unicode="g" horiz-adv-x="1133" vert-adv-y="2457"
d="M1141 1049v-239h-128q15 -53 15 -92q0 -115 -74 -216q-122 -167 -412 -167l-57 1h-28q-5 -16 -5 -24q0 -19 18 -26t67 -10l191 -11q181 -11 264 -79q84 -69 84 -189q0 -87 -46 -166q-119 -207 -577 -207q-230 0 -351 77q-79 51 -79 115q0 56 95 136l68 55
q-132 41 -132 149q0 51 29 93q18 26 66 66l105 69q-212 113 -212 339q0 141 89 248q131 156 398 156q190 0 317 -78h295zM525 900q-100 0 -100 -144q0 -81 29 -136q31 -58 89 -58q44 0 70 33q31 38 31 110q0 109 -50 164q-28 31 -69 31zM404 -7q-14 -14 -14 -31
q0 -33 25 -54q47 -41 147 -41q69 0 112 22q33 18 33 44q0 51 -102 54z" />
    <glyph glyph-name="h" unicode="h" horiz-adv-x="1208" vert-adv-y="2457"
d="M501 997l85 91q76 40 166 40q162 0 253 -88q53 -52 68 -122q14 -69 14 -158v-471q1 -118 13 -179q10 -51 44 -110h-489q34 60 45 110q11 59 11 179v437q0 128 -100 128q-47 0 -110 -34v-531q0 -119 12 -179q10 -50 44 -110h-489q34 59 45 110q11 61 12 179v998
q0 100 -14 150q-14 45 -43 90l479 133q-25 -83 -34 -139q-12 -73 -12 -200v-324z" />
    <glyph glyph-name="i" unicode="i" horiz-adv-x="604" vert-adv-y="2457"
d="M546 0h-489q34 59 45 110q11 61 12 179v518q-1 118 -12 179q-11 51 -45 110h489q-33 -58 -44 -110q-12 -58 -12 -179v-518q0 -121 12 -179q11 -52 44 -110zM300 1568q102 0 173 -62q70 -62 70 -152q0 -85 -70 -147q-71 -62 -172 -62t-172 62q-70 62 -70 150t70 149
q73 62 171 62z" />
    <glyph glyph-name="j" unicode="j" horiz-adv-x="604" vert-adv-y="2457"
d="M-46 -310q63 52 97 113q61 111 63 327v677q0 118 -12 179q-11 51 -45 110h490q-34 -59 -45 -110q-12 -61 -12 -179v-675q0 -237 -93 -373q-93 -135 -226 -135q-107 0 -217 66zM300 1568q102 0 173 -62t71 -152q0 -85 -71 -147t-172 -62t-172 62t-71 150t71 149
q73 62 171 62z" />
    <glyph glyph-name="k" unicode="k" horiz-adv-x="1284" vert-adv-y="2457"
d="M551 387v-98q0 -119 12 -179q10 -50 44 -110h-489q34 59 45 110q11 61 12 179v998q0 100 -14 150q-14 45 -43 90l480 133q-26 -82 -35 -140q-12 -72 -12 -199v-586l149 195q39 50 39 105q0 28 -17 61h520q-87 -68 -184 -187l-233 -284l245 -378q87 -134 121 -176
q28 -33 77 -71h-546q8 25 8 39q0 58 -58 152z" />
    <glyph glyph-name="l" unicode="l" horiz-adv-x="604" vert-adv-y="2457"
d="M546 0h-489q34 59 45 110q11 61 12 179v998q0 100 -14 150q-14 45 -43 90l480 133q-26 -82 -35 -139q-12 -72 -12 -200v-1032q0 -119 12 -179q10 -50 44 -110z" />
    <glyph glyph-name="m" unicode="m" horiz-adv-x="1813" vert-adv-y="2457"
d="M510 1096v-116l93 102q97 46 180 46q196 0 291 -148l88 102q60 28 94 36q38 9 88 9q186 0 275 -109q43 -53 54 -108q12 -59 12 -161v-460q0 -118 12 -179q10 -51 44 -110h-489q34 58 45 110q11 61 12 179v437q0 127 -102 127q-47 0 -111 -33v-531q1 -118 13 -179
q10 -51 44 -110h-489q34 60 45 110q11 59 11 179v437q0 127 -100 127q-47 0 -110 -33v-531q0 -119 12 -179q10 -50 44 -110h-489q34 60 45 110q11 60 12 179v518q-1 119 -12 179q-11 50 -45 110h433z" />
    <glyph glyph-name="n" unicode="n" horiz-adv-x="1208" vert-adv-y="2457"
d="M501 1096v-99l85 91q76 40 166 40q162 0 253 -88q53 -52 68 -123q14 -68 14 -157v-471q1 -118 13 -179q10 -51 44 -110h-489q34 60 45 110q11 59 11 179v437q0 128 -100 128q-48 0 -110 -34v-531q0 -119 12 -179q10 -50 44 -110h-489q34 59 45 110q11 61 12 179v518
q-1 118 -12 179q-11 51 -45 110h433z" />
    <glyph glyph-name="o" unicode="o" horiz-adv-x="1246" vert-adv-y="2457"
d="M664 1128q256 0 407 -165q142 -156 142 -413q0 -274 -196 -439q-169 -143 -421 -143q-273 0 -429 185q-133 158 -133 388q0 259 165 413q188 174 465 174zM580 885q-53 0 -93 -31q-69 -52 -69 -177q0 -182 86 -344q65 -122 169 -122q64 0 103 40q53 55 53 165
q0 111 -42 244q-72 225 -207 225z" />
    <glyph glyph-name="p" unicode="p" horiz-adv-x="1208" vert-adv-y="2457"
d="M491 1096v-93l109 89q77 36 147 36q175 0 295 -133q125 -139 125 -371q0 -290 -170 -460q-113 -113 -272 -145q-93 -19 -234 -19v-55q0 -121 12 -179q11 -53 44 -110h-489q34 59 45 110q11 61 12 179v862q-1 118 -12 179q-11 51 -45 110h433zM491 244q50 -17 87 -17
q205 0 205 325q0 302 -174 302q-62 0 -118 -28v-582z" />
    <glyph glyph-name="q" unicode="q" horiz-adv-x="1208" vert-adv-y="2457"
d="M707 59l-66 -59q-75 -31 -148 -31q-121 0 -227 68q-108 69 -162 201q-47 115 -47 250q0 191 91 351q155 273 487 273q62 0 233 -16q133 -12 264 -15q-24 -47 -34 -94q-15 -72 -15 -215v-827q0 -120 12 -179q10 -50 45 -110h-489q33 59 44 110q12 60 12 179v114zM707 852
q-49 33 -98 33q-168 0 -168 -304q0 -169 48 -258q43 -80 116 -80q47 0 102 45v564z" />
    <glyph glyph-name="r" unicode="r" horiz-adv-x="868" vert-adv-y="2457"
d="M507 1096v-79l87 79q59 32 117 32q88 0 185 -40l-111 -299q-90 81 -150 81q-46 0 -83 -32q-41 -36 -45 -122v-55v-372q0 -121 12 -179q11 -52 44 -110h-489q34 60 45 110q11 60 12 179v518q-1 119 -12 179q-11 50 -45 110h433z" />
    <glyph glyph-name="s" unicode="s" horiz-adv-x="868" vert-adv-y="2457"
d="M801 1079v-326q-201 148 -318 148q-35 0 -58 -17q-30 -22 -30 -56q0 -27 19 -49q29 -35 137 -80q181 -77 249 -154q61 -69 61 -185q0 -119 -66 -212q-71 -102 -216 -149q-92 -30 -200 -30q-182 0 -364 68l7 331q251 -172 369 -172q60 0 86 35q17 22 17 48q0 44 -92 84
q-233 101 -304 189t-71 203q0 158 125 263q130 110 337 110q165 0 312 -49z" />
    <glyph glyph-name="t" unicode="t" horiz-adv-x="831" vert-adv-y="2457"
d="M543 1425v-329h265v-239h-265v-489q0 -80 42 -112q39 -29 93 -29q88 0 227 89l-139 -285q-112 -55 -252 -55q-174 0 -268 93q-50 50 -64 112q-15 65 -15 166v510h-235q131 112 287 275q158 169 251 293h73z" />
    <glyph glyph-name="u" unicode="u" horiz-adv-x="1208" vert-adv-y="2457"
d="M706 0v99l-85 -91q-76 -40 -166 -40q-162 0 -253 88q-53 52 -68 123q-14 68 -14 157v471q-1 119 -12 179q-11 50 -45 110h489q-34 -58 -45 -110q-11 -61 -11 -179v-437q0 -128 100 -128q47 0 110 34v531q0 119 -12 179q-10 50 -44 110h489q-34 -58 -45 -110
q-11 -61 -12 -179v-518q1 -118 12 -179q11 -52 45 -110h-433z" />
    <glyph glyph-name="v" unicode="v" horiz-adv-x="1133" vert-adv-y="2457"
d="M749 0h-313l-303 832q-50 135 -93 192q-21 29 -60 72h501q-20 -44 -20 -70q0 -30 20 -93l133 -416l130 430q18 59 18 81t-20 68h410q-37 -45 -57 -79q-26 -45 -57 -139z" />
    <glyph glyph-name="w" unicode="w" horiz-adv-x="1624" vert-adv-y="2457"
d="M694 0h-287l-253 841q-55 172 -125 255h466q-11 -31 -11 -51q0 -17 15 -75l88 -348l152 474h229l158 -474l85 348q15 62 15 82t-11 44h379q-61 -90 -111 -255l-253 -841h-284l-125 442z" />
    <glyph glyph-name="x" unicode="x" horiz-adv-x="1284" vert-adv-y="2457"
d="M850 566l224 -371q85 -137 165 -195h-509q8 20 8 30q0 24 -38 89l-92 157l-98 -157q-33 -52 -33 -82q0 -13 13 -37h-445q46 41 76 76q28 32 100 143l218 334l-212 350q-65 106 -96 136q-23 23 -69 57h509q-5 -18 -5 -27q0 -27 34 -86l84 -146l92 146q28 46 28 71
q0 12 -10 42h445q-45 -42 -74 -76q-31 -36 -103 -141z" />
    <glyph glyph-name="y" unicode="y" horiz-adv-x="1133" vert-adv-y="2457"
d="M602 490l120 438q11 42 11 71q0 43 -23 97h439q-40 -37 -67 -86q-29 -57 -64 -162l-269 -806q-82 -245 -151 -341q-55 -77 -150 -77q-114 0 -221 63q67 63 127 189l60 142l-289 830q-50 145 -140 248h505q-21 -51 -21 -88q0 -36 21 -112z" />
    <glyph glyph-name="z" unicode="z" horiz-adv-x="944" vert-adv-y="2457"
d="M869 0h-935l489 861q-235 -1 -321 -25q-61 -18 -148 -65l135 325h875l-473 -861h40q194 0 296 30q78 22 184 94z" />
    <glyph glyph-name="braceleft" unicode="{" horiz-adv-x="1020" vert-adv-y="2457"
d="M492 611q156 -84 153 -311v-194q0 -67 7 -95q11 -47 61 -62q34 -9 93 -10h49v-283h-165q-121 0 -184 13t-109 48q-97 74 -97 277v312q-1 104 -31 141q-31 37 -88 54v220q57 16 88 53q30 38 31 142v311q0 204 97 277q58 43 152 56q45 6 141 6h165v-283h-49
q-101 -1 -132 -32q-22 -22 -27 -67q-2 -18 -2 -68v-194q3 -227 -153 -311z" />
    <glyph glyph-name="bar" unicode="|" horiz-adv-x="1020" vert-adv-y="2457"
d="M316 1566h387v-1958h-387v1958z" />
    <glyph glyph-name="braceright" unicode="}" horiz-adv-x="1020" vert-adv-y="2457"
d="M529 611q-156 85 -153 311v194q0 66 -7 95q-12 47 -61 61q-35 10 -94 11h-49v283h166q133 0 202 -18q110 -29 152 -119q34 -73 35 -202v-311q2 -106 32 -142q31 -37 87 -53v-220q-57 -16 -87 -54q-30 -36 -32 -141v-312q0 -203 -97 -277q-57 -43 -152 -55q-44 -6 -140 -6
h-166v283h49q102 1 132 32q23 22 28 67q2 18 2 68v194q-3 227 153 311z" />
    <glyph glyph-name="asciitilde" unicode="~" horiz-adv-x="2039" vert-adv-y="2457"
d="M640 1284l-186 156q47 116 102 191q103 140 252 140q66 0 175 -42q45 -17 153 -62q68 -29 113 -29q59 0 106 59q23 29 51 80l186 -155q-58 -137 -110 -203q-103 -131 -246 -131q-52 0 -142 35q-56 21 -169 67q-85 34 -129 34q-59 0 -101 -54q-25 -30 -55 -86z" />
    <glyph glyph-name="Adieresis" unicode="&#xc4;" horiz-adv-x="1586" vert-adv-y="2457"
d="M1015 421h-478l-73 -183q-31 -77 -31 -132q0 -43 29 -106h-538q43 39 69 74q52 72 104 199l541 1293h293l594 -1328q60 -132 91 -175q20 -27 53 -63h-592q39 60 39 119q0 60 -38 152zM892 719l-126 315l-118 -315h244zM540 2036q77 0 132 -55q55 -54 55 -134
q0 -75 -55 -130t-132 -55t-132 55t-55 132q0 79 55 132q56 55 132 55zM1051 2036q77 0 132 -55q55 -54 55 -134q0 -75 -55 -130t-132 -55t-132 55t-55 132q0 79 55 132q56 55 132 55z" />
    <glyph glyph-name="Aring" unicode="&#xc5;" horiz-adv-x="1586" vert-adv-y="2457"
d="M1015 421h-478l-73 -183q-31 -77 -31 -132q0 -43 29 -106h-538q43 39 69 74q52 72 104 199l541 1293h293l594 -1328q60 -132 91 -175q20 -27 53 -63h-592q39 60 39 119q0 60 -38 152zM892 719l-126 315l-118 -315h244zM813 2111q102 0 162 -66q57 -62 57 -165
q0 -110 -78 -176q-68 -57 -168 -57q-109 0 -172 74q-53 63 -53 156q0 103 66 164q75 70 186 70zM779 2014q-65 0 -65 -83q0 -72 35 -138q25 -49 67 -49q63 0 63 82q0 74 -35 141q-24 47 -65 47z" />
    <glyph glyph-name="Ccedilla" unicode="&#xc7;" horiz-adv-x="1473" vert-adv-y="2457"
d="M969 -38l-78 -90q26 1 48 1q78 0 129 -38q55 -41 55 -120q0 -89 -67 -148q-68 -59 -185 -59q-85 0 -186 42l65 98q47 -23 92 -23q87 0 87 60q0 63 -100 63q-18 0 -43 -3l-49 101l100 116q-255 14 -430 130q-169 111 -257 294q-78 162 -78 364q0 255 121 461
q129 219 362 316q186 78 426 78q218 0 383 -39l10 -409q-75 81 -143 118q-117 64 -250 64q-203 0 -340 -163q-131 -155 -131 -388q0 -238 120 -385q63 -78 156 -121q89 -40 188 -40q157 0 294 97q45 32 109 97l8 -393q-202 -69 -416 -81z" />
    <glyph glyph-name="Eacute" unicode="&#xc9;" horiz-adv-x="1246" vert-adv-y="2457"
d="M587 923h541l-171 -385q-52 45 -113 73q-108 48 -211 46h-46v-391h80q210 0 362 38q103 25 220 78l-168 -382h-974q34 59 45 110q11 61 12 179v988q-1 118 -12 179q-11 51 -45 110h1055l-153 -386q-123 119 -339 120h-83v-377zM854 2075l117 -229l-448 -176l-65 127z" />
    <glyph glyph-name="Ntilde" unicode="&#xd1;" horiz-adv-x="1737" vert-adv-y="2457"
d="M549 860v-571q1 -119 13 -179q10 -50 44 -110h-465q33 58 44 110q12 58 13 179v1068l-153 209h519q20 -70 70 -139l554 -750v600q-1 117 -13 179q-10 51 -44 110h465q-34 -59 -44 -110q-12 -61 -13 -179v-988q1 -118 13 -179q10 -51 44 -110h-454v10q0 26 -9 51
q-8 23 -48 78zM573 1729h-88q16 102 58 163q68 97 172 97q32 0 61 -9q26 -8 91 -31l113 -40q61 -22 104 -22q41 0 61 32q7 12 19 44h87q-6 -90 -44 -149q-69 -107 -186 -107q-65 0 -152 33l-112 43q-68 26 -102 26q-38 0 -59 -31q-11 -15 -23 -49z" />
    <glyph glyph-name="Odieresis" unicode="&#xd6;" horiz-adv-x="1850" vert-adv-y="2457"
d="M957 1605q364 0 587 -218q235 -229 235 -610q0 -363 -256 -594q-247 -223 -628 -223q-406 0 -631 257q-193 221 -193 548q0 252 121 449q128 210 374 315q177 76 391 76zM898 1338q-166 0 -276 -119q-113 -123 -113 -350q0 -242 101 -426q56 -101 150 -161
q88 -56 196 -56q180 0 292 147q93 123 93 314q0 270 -118 465q-113 186 -325 186zM668 2036q77 0 132 -55q55 -54 55 -134q0 -75 -55 -130t-132 -55t-132 55t-55 132q0 79 55 132q56 55 132 55zM1180 2036q77 0 132 -55q55 -54 55 -134q0 -75 -55 -130t-132 -55t-132 55
t-55 132q0 79 55 132q56 55 132 55z" />
    <glyph glyph-name="Udieresis" unicode="&#xdc;" horiz-adv-x="1662" vert-adv-y="2457"
d="M1064 0v84q-89 -56 -158 -82q-110 -41 -237 -41q-269 0 -404 156q-70 80 -85 175q-14 84 -14 223v762q-1 119 -12 179q-11 50 -45 110h536q-34 -60 -44 -110q-12 -60 -12 -179v-689q0 -124 15 -182q25 -87 92 -130q53 -33 115 -33q86 0 155 58q65 56 86 146q12 56 12 207
v623q0 118 -11 179q-11 51 -45 110h536q-34 -59 -44 -110q-12 -61 -12 -179v-988q0 -118 12 -179q10 -51 44 -110h-480zM573 2036q78 0 133 -55q55 -54 55 -134q0 -75 -55 -130t-132 -55q-78 0 -133 55q-54 55 -54 132q0 79 54 132q57 55 132 55zM1084 2036q78 0 133 -55
q55 -54 55 -134q0 -75 -55 -130t-132 -55q-78 0 -132 55q-56 55 -56 132q0 79 56 132q56 55 131 55z" />
    <glyph glyph-name="aacute" unicode="&#xe1;" horiz-adv-x="1020" vert-adv-y="2457"
d="M583 0v57l-67 -57q-86 -31 -169 -31q-148 0 -236 64q-53 39 -86 104q-32 65 -32 136q0 119 75 206q40 46 98 76q65 34 154 67l263 98v5q0 63 -10 98q-23 78 -144 78q-124 0 -387 -125l89 320q178 32 355 32q284 0 391 -101q62 -60 76 -143q6 -35 6 -156v-439
q0 -119 12 -179q10 -50 44 -110h-432zM583 497h-175q-63 -58 -63 -133q0 -60 35 -96q39 -41 107 -41q54 0 96 34v236zM723 1655l154 -205l-410 -251l-86 113z" />
    <glyph glyph-name="agrave" unicode="&#xe0;" horiz-adv-x="1020" vert-adv-y="2457"
d="M583 0v57l-67 -57q-86 -31 -169 -31q-148 0 -236 64q-53 39 -86 104q-32 65 -32 136q0 119 75 206q40 46 98 76q65 34 154 67l263 98v5q0 63 -10 98q-23 78 -144 78q-124 0 -387 -125l89 320q178 32 355 32q284 0 391 -101q62 -60 76 -143q6 -35 6 -156v-439
q0 -119 12 -179q10 -50 44 -110h-432zM583 497h-175q-63 -58 -63 -133q0 -60 35 -96q39 -41 107 -41q54 0 96 34v236zM356 1655l342 -343l-86 -113l-410 251z" />
    <glyph glyph-name="acircumflex" unicode="&#xe2;" horiz-adv-x="1020" vert-adv-y="2457"
d="M583 0v57l-67 -57q-86 -31 -169 -31q-148 0 -236 64q-53 39 -86 104q-32 65 -32 136q0 119 75 206q40 46 98 76q65 34 154 67l263 98v5q0 63 -10 98q-23 78 -144 78q-124 0 -387 -125l89 320q178 32 355 32q284 0 391 -101q62 -60 76 -143q6 -35 6 -156v-439
q0 -119 12 -179q10 -50 44 -110h-432zM583 497h-175q-63 -58 -63 -133q0 -60 35 -96q39 -41 107 -41q54 0 96 34v236zM516 1620l350 -340l-68 -81l-282 167l-282 -167l-68 81z" />
    <glyph glyph-name="adieresis" unicode="&#xe4;" horiz-adv-x="1020" vert-adv-y="2457"
d="M583 0v57l-67 -57q-86 -31 -169 -31q-148 0 -236 64q-53 39 -86 104q-32 65 -32 136q0 119 75 206q40 46 98 76q65 34 154 67l263 98v5q0 63 -10 98q-23 78 -144 78q-124 0 -387 -125l89 320q178 32 355 32q284 0 391 -101q62 -60 76 -143q6 -35 6 -156v-439
q0 -119 12 -179q10 -50 44 -110h-432zM583 497h-175q-63 -58 -63 -133q0 -60 35 -96q39 -41 107 -41q54 0 96 34v236zM283 1602q77 0 132 -55q55 -54 55 -134q0 -75 -55 -130t-132 -55t-132 55t-55 132q0 79 55 132q56 55 132 55zM747 1602q77 0 132 -55q55 -54 55 -134
q0 -75 -55 -130t-132 -55t-132 55t-55 132q0 79 55 132q56 55 132 55z" />
    <glyph glyph-name="atilde" unicode="&#xe3;" horiz-adv-x="1020" vert-adv-y="2457"
d="M583 0v57l-67 -57q-86 -31 -169 -31q-148 0 -236 64q-53 39 -86 104q-32 65 -32 136q0 119 75 206q40 46 98 76q65 34 154 67l263 98v5q0 63 -10 98q-23 78 -144 78q-124 0 -387 -125l89 320q178 32 355 32q284 0 391 -101q62 -60 76 -143q6 -35 6 -156v-439
q0 -119 12 -179q10 -50 44 -110h-432zM583 497h-175q-63 -58 -63 -133q0 -60 35 -96q39 -41 107 -41q54 0 96 34v236zM236 1291h-87q15 101 58 162q67 97 171 97q41 0 152 -40l113 -40q62 -22 104 -22q31 0 47 15.5t33 60.5h87q-6 -90 -43 -148q-69 -108 -187 -108
q-64 0 -152 34l-112 43q-66 25 -101 25q-38 0 -60 -31q-11 -15 -23 -48z" />
    <glyph glyph-name="aring" unicode="&#xe5;" horiz-adv-x="1020" vert-adv-y="2457"
d="M583 0v57l-67 -57q-86 -31 -169 -31q-148 0 -236 64q-53 39 -86 104q-32 65 -32 136q0 119 75 206q40 46 98 76q65 34 154 67l263 98v5q0 63 -10 98q-23 78 -144 78q-124 0 -387 -125l89 320q178 32 355 32q284 0 391 -101q62 -60 76 -143q6 -35 6 -156v-439
q0 -119 12 -179q10 -50 44 -110h-432zM583 497h-175q-63 -58 -63 -133q0 -60 35 -96q39 -41 107 -41q54 0 96 34v236zM533 1681q102 0 162 -66q57 -63 57 -165q0 -110 -78 -176q-68 -57 -169 -57q-110 0 -172 74q-53 63 -53 155q0 104 66 165q76 70 187 70zM498 1584
q-65 0 -65 -84q0 -72 35 -137q26 -49 67 -49q64 0 64 83q0 73 -35 140q-24 47 -66 47z" />
    <glyph glyph-name="ccedilla" unicode="&#xe7;" horiz-adv-x="982" vert-adv-y="2457"
d="M675 -27l-88 -101q30 2 49 2q77 0 129 -38q55 -41 55 -120q0 -88 -68 -148q-67 -59 -184 -59q-84 0 -186 41l65 98q47 -22 92 -22q87 0 87 60q0 63 -101 63q-17 0 -42 -3l-50 100l107 123q-176 9 -300 93q-213 145 -213 449q0 314 220 481q180 136 449 136q137 0 236 -32
v-331q-73 66 -123 92q-86 44 -170 44q-99 0 -161 -73q-67 -79 -67 -215q0 -127 52 -232q75 -154 239 -154q121 0 284 82l-101 -293q-105 -33 -210 -43z" />
    <glyph glyph-name="eacute" unicode="&#xe9;" horiz-adv-x="1057" vert-adv-y="2457"
d="M1058 471h-659q45 -229 279 -229q152 0 375 107l-101 -299q-78 -40 -146 -56q-109 -26 -240 -26q-299 0 -444 173q-125 148 -125 376q0 219 112 379q162 232 477 232q237 0 356 -136q69 -79 93 -178q25 -104 25 -231q0 -37 -2 -112zM682 729q0 55 -17 92q-37 80 -119 80
q-71 0 -116 -67q-26 -38 -35 -105h287zM735 1655l155 -205l-410 -251l-86 113z" />
    <glyph glyph-name="egrave" unicode="&#xe8;" horiz-adv-x="1057" vert-adv-y="2457"
d="M1058 471h-659q45 -229 279 -229q152 0 375 107l-101 -299q-78 -40 -146 -56q-109 -26 -240 -26q-299 0 -444 173q-125 148 -125 376q0 219 112 379q162 232 477 232q237 0 356 -136q69 -79 93 -178q25 -104 25 -231q0 -37 -2 -112zM682 729q0 55 -17 92q-37 80 -119 80
q-71 0 -116 -67q-26 -38 -35 -105h287zM369 1655l342 -343l-87 -113l-409 251z" />
    <glyph glyph-name="ecircumflex" unicode="&#xea;" horiz-adv-x="1057" vert-adv-y="2457"
d="M1058 471h-659q45 -229 279 -229q152 0 375 107l-101 -299q-78 -40 -146 -56q-109 -26 -240 -26q-299 0 -444 173q-125 148 -125 376q0 219 112 379q162 232 477 232q237 0 356 -136q69 -79 93 -178q25 -104 25 -231q0 -37 -2 -112zM682 729q0 55 -17 92q-37 80 -119 80
q-71 0 -116 -67q-26 -38 -35 -105h287zM560 1620l350 -340l-68 -81l-282 167l-282 -167l-68 81z" />
    <glyph glyph-name="edieresis" unicode="&#xeb;" horiz-adv-x="1057" vert-adv-y="2457"
d="M1058 471h-659q45 -229 279 -229q152 0 375 107l-101 -299q-78 -40 -146 -56q-109 -26 -240 -26q-299 0 -444 173q-125 148 -125 376q0 219 112 379q162 232 477 232q237 0 356 -136q69 -79 93 -178q25 -104 25 -231q0 -37 -2 -112zM682 729q0 55 -17 92q-37 80 -119 80
q-71 0 -116 -67q-26 -38 -35 -105h287zM327 1602q77 0 132 -55q55 -54 55 -134q0 -75 -55 -130q-54 -55 -132 -55q-77 0 -132 55t-55 132q0 79 55 132q56 55 132 55zM791 1602q77 0 132 -55q55 -54 55 -134q0 -75 -55 -130t-132 -55t-132 55t-55 132q0 79 55 132
q56 55 132 55z" />
    <glyph glyph-name="iacute" unicode="&#xed;" horiz-adv-x="604" vert-adv-y="2457"
d="M547 0h-489q34 59 45 110q11 61 12 179v518q-1 118 -12 179q-11 51 -45 110h489q-33 -58 -44 -110q-12 -58 -12 -179v-518q0 -121 12 -179q11 -52 44 -110zM509 1655l154 -205l-410 -251l-86 113z" />
    <glyph glyph-name="igrave" unicode="&#xec;" horiz-adv-x="604" vert-adv-y="2457"
d="M547 0h-490q34 58 45 110q12 61 12 179v518q0 118 -12 179q-11 51 -45 110h490q-34 -60 -45 -110q-12 -60 -12 -179v-518q0 -119 12 -179q11 -50 45 -110zM142 1655l342 -343l-86 -113l-410 251z" />
    <glyph glyph-name="icircumflex" unicode="&#xee;" horiz-adv-x="604" vert-adv-y="2457"
d="M546 0h-488q34 59 44 110q12 60 12 179v518q0 119 -12 179q-10 50 -44 110h488q-32 -57 -44 -110q-12 -59 -12 -179v-518q0 -120 12 -179q12 -53 44 -110zM302 1620l349 -340l-68 -81l-281 167l-282 -167l-68 81z" />
    <glyph glyph-name="idieresis" unicode="&#xef;" horiz-adv-x="604" vert-adv-y="2457"
d="M547 0h-489q34 58 45 110q12 61 12 179v518q0 118 -12 179q-11 51 -45 110h489q-33 -60 -44 -110q-12 -60 -12 -179v-518q0 -119 12 -179q11 -50 44 -110zM85 1602q77 0 132 -55q55 -54 55 -134q0 -75 -55 -130t-132 -55t-132 55t-55 132q0 79 55 132q56 55 132 55z
M518 1602q77 0 132 -55q55 -54 55 -134q0 -75 -55 -130t-132 -55t-132 55t-55 132q0 79 55 132q56 55 132 55z" />
    <glyph glyph-name="ntilde" unicode="&#xf1;" horiz-adv-x="1208" vert-adv-y="2457"
d="M501 1096v-99l85 91q76 40 166 40q162 0 253 -88q53 -52 68 -123q14 -68 14 -157v-471q1 -118 13 -179q10 -51 44 -110h-489q34 60 45 110q11 59 11 179v437q0 128 -100 128q-48 0 -110 -34v-531q0 -119 12 -179q10 -50 44 -110h-489q34 59 45 110q11 61 12 179v518
q-1 118 -12 179q-11 51 -45 110h433zM324 1291h-88q16 101 58 162q68 97 171 97q42 0 153 -40l113 -40q62 -22 104 -22q30 0 46 15t34 61h87q-6 -90 -44 -148q-69 -108 -186 -108q-64 0 -152 34l-112 43q-67 25 -101 25q-38 0 -60 -31q-11 -15 -23 -48z" />
    <glyph glyph-name="oacute" unicode="&#xf3;" horiz-adv-x="1246" vert-adv-y="2457"
d="M664 1128q256 0 407 -165q142 -156 142 -413q0 -274 -196 -439q-169 -143 -421 -143q-273 0 -429 185q-133 158 -133 388q0 259 165 413q188 174 465 174zM580 885q-53 0 -93 -31q-69 -52 -69 -177q0 -182 86 -344q65 -122 169 -122q64 0 103 40q53 55 53 165
q0 111 -42 244q-72 225 -207 225zM830 1655l154 -205l-409 -251l-86 113z" />
    <glyph glyph-name="ograve" unicode="&#xf2;" horiz-adv-x="1246" vert-adv-y="2457"
d="M664 1128q256 0 407 -165q142 -156 142 -413q0 -274 -196 -439q-169 -143 -421 -143q-273 0 -429 185q-133 158 -133 388q0 259 165 413q188 174 465 174zM580 885q-53 0 -93 -31q-69 -52 -69 -177q0 -182 86 -344q65 -122 169 -122q64 0 103 40q53 55 53 165
q0 111 -42 244q-72 225 -207 225zM464 1655l342 -343l-87 -113l-409 251z" />
    <glyph glyph-name="ocircumflex" unicode="&#xf4;" horiz-adv-x="1246" vert-adv-y="2457"
d="M664 1128q256 0 407 -165q142 -156 142 -413q0 -274 -196 -439q-169 -143 -421 -143q-273 0 -429 185q-133 158 -133 388q0 259 165 413q188 174 465 174zM580 885q-53 0 -93 -31q-69 -52 -69 -177q0 -182 86 -344q65 -122 169 -122q64 0 103 40q53 55 53 165
q0 111 -42 244q-72 225 -207 225zM655 1620l349 -340l-68 -81l-281 167l-282 -167l-68 81z" />
    <glyph glyph-name="odieresis" unicode="&#xf6;" horiz-adv-x="1246" vert-adv-y="2457"
d="M664 1128q256 0 407 -165q142 -156 142 -413q0 -274 -196 -439q-169 -143 -421 -143q-273 0 -429 185q-133 158 -133 388q0 259 165 413q188 174 465 174zM580 885q-53 0 -93 -31q-69 -52 -69 -177q0 -182 86 -344q65 -122 169 -122q64 0 103 40q53 55 53 165
q0 111 -42 244q-72 225 -207 225zM390 1602q77 0 132 -55q55 -54 55 -134q0 -75 -55 -130t-132 -55t-132 55t-55 132q0 79 55 132q56 55 132 55zM855 1602q77 0 132 -55q55 -54 55 -134q0 -75 -55 -130q-54 -55 -132 -55q-77 0 -132 55t-55 132q0 79 55 132q56 55 132 55z
" />
    <glyph glyph-name="otilde" unicode="&#xf5;" horiz-adv-x="1246" vert-adv-y="2457"
d="M664 1128q256 0 407 -165q142 -156 142 -413q0 -274 -196 -439q-169 -143 -421 -143q-273 0 -429 185q-133 158 -133 388q0 259 165 413q188 174 465 174zM580 885q-53 0 -93 -31q-69 -52 -69 -177q0 -182 86 -344q65 -122 169 -122q64 0 103 40q53 55 53 165
q0 111 -42 244q-72 225 -207 225zM375 1291h-88q15 100 58 162q68 97 171 97q41 0 153 -40l113 -40q62 -22 104 -22q41 0 60 32q7 12 20 44h87q-6 -90 -44 -148q-69 -108 -186 -108q-64 0 -152 34l-112 43q-67 25 -101 25q-39 0 -60 -31q-11 -15 -23 -48z" />
    <glyph glyph-name="uacute" unicode="&#xfa;" horiz-adv-x="1208" vert-adv-y="2457"
d="M706 0v99l-85 -91q-76 -40 -166 -40q-162 0 -253 88q-53 52 -68 123q-14 68 -14 157v471q-1 119 -12 179q-11 50 -45 110h489q-34 -58 -45 -110q-11 -61 -11 -179v-437q0 -128 100 -128q47 0 110 34v531q0 119 -12 179q-10 50 -44 110h489q-34 -58 -45 -110
q-11 -61 -12 -179v-518q1 -118 12 -179q11 -52 45 -110h-433zM810 1655l154 -205l-409 -251l-86 113z" />
    <glyph glyph-name="ugrave" unicode="&#xf9;" horiz-adv-x="1208" vert-adv-y="2457"
d="M706 0v99l-85 -91q-76 -40 -166 -40q-162 0 -253 88q-53 52 -68 123q-14 68 -14 157v471q-1 119 -12 179q-11 50 -45 110h489q-34 -58 -45 -110q-11 -61 -11 -179v-437q0 -128 100 -128q47 0 110 34v531q0 119 -12 179q-10 50 -44 110h489q-34 -58 -45 -110
q-11 -61 -12 -179v-518q1 -118 12 -179q11 -52 45 -110h-433zM444 1655l342 -343l-87 -113l-410 251z" />
    <glyph glyph-name="ucircumflex" unicode="&#xfb;" horiz-adv-x="1208" vert-adv-y="2457"
d="M706 0v99l-85 -91q-76 -40 -166 -40q-162 0 -253 88q-53 52 -68 123q-14 68 -14 157v471q-1 119 -12 179q-11 50 -45 110h489q-34 -58 -45 -110q-11 -61 -11 -179v-437q0 -128 100 -128q47 0 110 34v531q0 119 -12 179q-10 50 -44 110h489q-34 -58 -45 -110
q-11 -61 -12 -179v-518q1 -118 12 -179q11 -52 45 -110h-433zM604 1620l349 -340l-68 -81l-281 167l-282 -167l-68 81z" />
    <glyph glyph-name="udieresis" unicode="&#xfc;" horiz-adv-x="1208" vert-adv-y="2457"
d="M706 0v99l-85 -91q-76 -40 -166 -40q-162 0 -253 88q-53 52 -68 123q-14 68 -14 157v471q-1 119 -12 179q-11 50 -45 110h489q-34 -58 -45 -110q-11 -61 -11 -179v-437q0 -128 100 -128q47 0 110 34v531q0 119 -12 179q-10 50 -44 110h489q-34 -58 -45 -110
q-11 -61 -12 -179v-518q1 -118 12 -179q11 -52 45 -110h-433zM369 1602q78 0 133 -55q55 -54 55 -134q0 -75 -55 -130t-132 -55q-78 0 -133 55t-55 132q0 79 55 132q57 55 132 55zM834 1602q78 0 133 -55q54 -54 54 -134q0 -75 -54 -130q-55 -55 -132 -55q-78 0 -132 55
q-56 55 -56 132q0 79 56 132q56 55 131 55z" />
    <glyph glyph-name="dagger" unicode="&#x2020;" vert-adv-y="2457"
d="M860 847v-1004q0 -80 5 -114q4 -29 18 -73h-406q14 44 18 73q5 32 5 114v1004h-222q-100 -1 -172 -19v271q65 -16 172 -17h222v297q0 83 -5 114q-4 28 -18 73h407q-15 -45 -19 -73q-5 -31 -5 -114v-297h223q106 1 172 17v-271q-73 18 -172 19h-223z" />
    <glyph glyph-name="degree" unicode="&#xb0;" horiz-adv-x="1133" vert-adv-y="2457"
d="M566 1606q145 0 248 -101q103 -100 103 -243q0 -142 -102 -243q-103 -103 -248 -103q-147 0 -250 102q-102 101 -102 248q0 141 102 239q106 101 249 101zM566 1424q-68 0 -117 -48q-48 -47 -48 -112q0 -70 48 -117q49 -48 117 -48t117 49q48 47 48 113q0 69 -49 115
q-50 48 -116 48z" />
    <glyph glyph-name="cent" unicode="&#xa2;" vert-adv-y="2457"
d="M875 1147v-669q15 -1 19 -1q117 0 281 83l-101 -294q-104 -33 -199 -41v-194h-109v188q-201 1 -337 94q-213 145 -213 449q0 249 142 408q151 170 408 201v195h109v-188h8h9q143 -2 229 -31v-331q-90 80 -170 112q-38 14 -76 19zM766 1143q-60 -18 -99 -65
q-67 -79 -67 -215q0 -190 103 -309q24 -28 63 -48v637z" />
    <glyph glyph-name="sterling" unicode="&#xa3;" vert-adv-y="2457"
d="M1069 0h-828q41 72 61 154q21 71 55 396q11 107 14 177h-141q87 111 165 235q19 189 38 273.5t56 149.5q77 134 210 188q77 32 166 32q93 0 241 -42v-346q-44 46 -73 69q-56 45 -113 45q-114 0 -149 -177q-16 -81 -21 -192h246v-235h-264l-29 -461q172 5 287 30
q96 21 158 54q33 19 89 64z" />
    <glyph glyph-name="section" unicode="&#xa7;" vert-adv-y="2457"
d="M1067 1522v-373q-199 211 -348 211q-75 0 -115 -39q-30 -28 -30 -62q0 -32 22 -59q22 -25 84 -69l260 -184q138 -98 203 -181q76 -96 76 -233q0 -278 -256 -351q116 -91 157 -155q54 -82 54 -179q0 -118 -74 -216q-70 -93 -204 -142q-103 -38 -218 -38q-196 0 -422 107
v377q124 -122 251 -182q111 -52 191 -52q54 0 91 27q33 23 33 70q0 56 -64 104q-35 27 -91 64q-61 40 -104 74l-189 145q-115 89 -160 147q-73 96 -73 227q0 264 264 344q-98 84 -133 144q-50 85 -50 183q0 198 178 300q131 75 321 75q191 0 346 -84zM619 747q-19 2 -30 2
q-46 0 -83 -26q-52 -36 -52 -102q0 -42 22 -75q16 -24 59 -56l214 -154h12q64 2 100 33q45 40 45 99q0 38 -20 71q-20 35 -83 79z" />
    <glyph glyph-name="bullet" unicode="&#x2022;" horiz-adv-x="1020" vert-adv-y="2457"
d="M516 1121q131 0 226 -95q96 -95 96 -231q0 -134 -96 -230q-95 -95 -230 -95q-134 0 -229 95q-96 96 -96 230q0 138 96 231q97 95 233 95z" />
    <glyph glyph-name="paragraph" unicode="&#xb6;" vert-adv-y="2457"
d="M539 -344v969h-31q-118 0 -228 53q-122 58 -181 177q-52 103 -52 232q0 158 74 273q89 138 273 180q113 26 247 26h641v-204h-112v-1706h-235v1706h-161v-1706h-235z" />
    <glyph glyph-name="germandbls" unicode="&#xdf;" horiz-adv-x="1322" vert-adv-y="2457"
d="M93 865h-174l174 230v72q0 215 142 327q150 119 390 119q469 0 469 -458q0 -81 -17 -179q-29 2 -47 2q-66 0 -106 -38q-31 -31 -31 -76q0 -37 29 -69q27 -31 90 -71q156 -98 214 -153q105 -99 105 -251q0 -168 -109 -259q-110 -92 -321 -92q-114 0 -291 40l-26 320
q95 -87 152 -118q71 -38 127 -38q39 0 66 21q34 25 34 67q0 40 -32 73q-19 19 -90 67q-160 108 -215 162q-78 75 -78 190q0 190 209 305q6 38 6 73q0 137 -31 194q-34 61 -117 61q-72 0 -112 -50q-23 -29 -28 -61q-6 -37 -6 -96v-890q0 -118 12 -179q11 -51 44 -110h-489
q34 59 45 110q12 60 12 179v576z" />
    <glyph glyph-name="registered" unicode="&#xae;" horiz-adv-x="1020" vert-adv-y="2457"
d="M463 944v-103q0 -42 5 -62q4 -18 21 -45h-226q26 39 26 107v350q0 68 -26 107h201q121 0 179 -35q74 -45 74 -129q0 -92 -102 -141l12 -15l81 -100l85 -105l16 -20q-56 -33 -101 -33q-54 0 -127 85zM463 1048q74 12 74 78q0 67 -74 68v-146zM518 1514q133 0 251 -67
q121 -68 190 -182q70 -115 70 -249q0 -133 -70 -249q-69 -115 -190 -182q-120 -67 -259 -67t-259 67q-122 67 -190 182q-70 116 -70 253q0 216 173 366q146 128 354 128zM517 1433q-193 0 -319 -138q-109 -119 -109 -276q0 -188 140 -313q120 -107 281 -107q187 0 313 138
q108 119 108 279q0 183 -140 310q-118 107 -274 107z" />
    <glyph glyph-name="copyright" unicode="&#xa9;" horiz-adv-x="1020" vert-adv-y="2457"
d="M703 1297l4 -160q-70 72 -158 72q-77 0 -129 -56q-50 -55 -50 -135q0 -82 46 -133q49 -56 130 -56q83 0 162 75l3 -153q-102 -31 -194 -31q-147 0 -236 77q-91 80 -91 207q0 139 99 225q95 83 259 83q85 0 155 -15zM518 1514q133 0 251 -67q121 -68 190 -182
q70 -115 70 -249q0 -133 -70 -249q-69 -115 -190 -182q-120 -67 -259 -67t-259 67q-122 67 -190 182q-70 116 -70 253q0 216 173 366q146 128 354 128zM517 1433q-193 0 -319 -138q-109 -119 -109 -276q0 -188 140 -313q120 -107 281 -107q187 0 313 138q108 119 108 279
q0 183 -140 310q-118 107 -274 107z" />
    <glyph glyph-name="trademark" unicode="&#x2122;" horiz-adv-x="1246" vert-adv-y="2457"
d="M195 1424v-491q0 -59 6 -86t31 -64h-363q26 38 32 64q6 27 6 86v487q-78 -2 -135 -12q-57 -11 -125 -44l71 202h758l-68 -173q-81 29 -213 31zM791 1204v-271q0 -59 6 -86q7 -27 31 -64h-305q25 37 31 64q7 27 7 86v530l-79 103h352q-7 -19 -7 -25q0 -11 23 -45l180 -254
l169 245q26 38 26 52q0 7 -8 27h335q-24 -37 -31 -64q-6 -27 -6 -85v-484q0 -59 6 -86q7 -27 31 -64h-362q25 37 31 64q7 27 7 86v269l-212 -328z" />
    <glyph glyph-name="acute" unicode="&#xb4;" vert-adv-y="2457"
d="M887 1655l154 -205l-410 -251l-86 113z" />
    <glyph glyph-name="dieresis" unicode="&#xa8;" vert-adv-y="2457"
d="M447 1602q77 0 132 -55q55 -54 55 -134q0 -75 -55 -130t-132 -55t-132 55t-55 132q0 79 55 132q56 55 132 55zM911 1602q77 0 132 -55q55 -54 55 -134q0 -75 -55 -130q-54 -55 -132 -55q-77 0 -132 55t-55 132q0 79 55 132q56 55 132 55z" />
    <glyph glyph-name="notequal" unicode="&#x2260;" horiz-adv-x="1342" vert-adv-y="2457"
d="M681 1151l92 252l209 -76l-64 -176h356v-235h-442l-85 -235h527v-235h-613l-92 -252l-209 76l64 176h-356v235h442l85 235h-527v235h613z" />
    <glyph glyph-name="AE" unicode="&#xc6;" horiz-adv-x="2077" vert-adv-y="2457"
d="M1057 415h-468l-102 -204q-59 -117 -59 -160q0 -25 24 -51h-534q52 38 79 71q26 31 74 118l687 1243q34 61 34 93q0 14 -13 41h1276l-153 -386q-123 119 -339 120h-83v-377h541l-171 -384q-52 44 -113 72q-108 49 -211 47l-46 -1v-390h80q209 -1 362 37q104 25 220 78
l-168 -382h-974q34 59 44 110q12 62 13 179v126zM1057 713v619l-318 -619h318z" />
    <glyph glyph-name="Oslash" unicode="&#xd8;" horiz-adv-x="1850" vert-adv-y="2457"
d="M1429 1480q63 -41 115 -93q235 -231 235 -598q0 -374 -256 -605q-246 -223 -630 -223q-172 0 -311 47l-72 -125h-206l115 200q-87 56 -155 134q-193 223 -193 548q0 370 250 606q248 234 640 234q167 0 307 -47l72 125h206zM1232 1138l-486 -845q95 -66 209 -66
q182 0 293 147q93 123 93 317q0 188 -66 357q-19 49 -43 90zM619 430l488 848q-88 61 -209 61q-167 0 -276 -119q-113 -124 -113 -353q0 -237 102 -423q3 -7 8 -14z" />
    <glyph glyph-name="infinity" unicode="&#x221e;" horiz-adv-x="1566" vert-adv-y="2457"
d="M789 634q-54 -64 -99 -104q-122 -106 -277 -106q-166 0 -273 112q-99 103 -99 265q0 165 107 268q106 103 263 103q201 0 367 -209q164 209 376 209q178 0 285 -124q87 -99 87 -249q0 -165 -102 -268q-107 -107 -268 -107q-148 0 -270 107q-45 39 -97 103zM907 798
q6 -8 9 -13q94 -137 201 -137q62 0 105 41q45 43 45 109q0 68 -48 111q-43 38 -103 38q-84 0 -159 -85q-19 -21 -37 -46zM659 797q-4 7 -9 14q-94 137 -204 137q-61 0 -102 -40q-44 -43 -44 -110q0 -70 47 -112q43 -37 103 -37q86 0 160 84q10 12 30 37.5t19 26.5z" />
    <glyph glyph-name="plusminus" unicode="&#xb1;" horiz-adv-x="2001" vert-adv-y="2457"
d="M398 947h494v470h219v-470h493v-235h-493v-391h-219v391h-494v235zM398 219h1206v-235h-1206v235z" />
    <glyph glyph-name="lessequal" unicode="&#x2264;" horiz-adv-x="1175" vert-adv-y="2457"
d="M1096 1536v-359l-599 -183l599 -181v-358l-1018 380v321zM1096 393v-337h-1018v337h1018z" />
    <glyph glyph-name="greaterequal" unicode="&#x2265;" horiz-adv-x="1175" vert-adv-y="2457"
d="M78 1536l1018 -380v-321l-1018 -380v358l599 181l-599 183v359zM78 393h1018v-337h-1018v337z" />
    <glyph glyph-name="yen" unicode="&#xa5;" vert-adv-y="2457"
d="M884 624v-335q0 -120 11 -179q10 -49 42 -110h-509q32 58 43 110q11 61 11 179v335h-341v235h216l-233 439q-78 145 -192 268h560q-12 -38 -12 -65q0 -61 53 -168l188 -375l185 375q47 95 47 159q0 30 -16 74h490q-57 -55 -94 -106q-49 -67 -121 -204l-206 -397h219v-235
h-341z" />
    <glyph glyph-name="mu" unicode="&#xb5;" horiz-adv-x="1208" vert-adv-y="2457"
d="M464 -32v-23q0 -118 12 -179q11 -51 45 -110h-458q34 59 45 110q11 60 12 179v862q-1 119 -12 179q-11 50 -45 110h489q-34 -58 -45 -110q-11 -61 -11 -179v-437q0 -127 100 -127q47 0 110 33v531q0 119 -12 179q-10 50 -44 110h489q-34 -58 -45 -110q-11 -61 -12 -179
v-518q1 -118 12 -179q11 -52 45 -110h-433v99l-85 -91q-55 -29 -107 -36q-19 -2 -50 -4z" />
    <glyph glyph-name="partialdiff" unicode="&#x2202;" horiz-adv-x="1175" vert-adv-y="2457"
d="M136 1274l42 281q231 -26 404 -90q213 -79 361 -251q197 -229 197 -597q0 -301 -152 -469q-157 -174 -418 -174q-256 0 -406 181q-63 76 -98 177q-32 94 -32 187q0 158 86 286q81 120 221 172q89 34 188 34q101 0 166 -37q14 -8 69 -43q9 -5 27 -17q-10 19 -15 28
q-50 93 -82 124q-99 94 -288 154q-112 36 -270 54zM593 742q-88 0 -150 -58q-79 -72 -79 -183q0 -101 69 -172q65 -66 158 -66q83 0 145 60q74 73 74 183q0 106 -68 174q-63 62 -149 62z" />
    <glyph glyph-name="summation" unicode="&#x2211;" horiz-adv-x="1566" vert-adv-y="2457"
d="M1468 1762v-609h-328l-40 274h-613l566 -804l-563 -875h631l23 286h346v-621h-1411v385l543 824l-543 755v385h1389z" />
    <glyph glyph-name="product" unicode="&#x220f;" horiz-adv-x="1566" vert-adv-y="2457"
d="M41 1762h1484v-292h-168v-1765h168v-292h-643v292h149v1765h-496v-1765h146v-292h-640v292h171v1765h-171v292z" />
    <glyph glyph-name="pi" unicode="&#x3c0;" horiz-adv-x="1389" vert-adv-y="2457"
d="M803 857h-212v-568q0 -119 12 -179q11 -50 45 -110h-489q34 59 44 110q12 60 12 179v568h-147v239h1252v-239h-141v-568q0 -118 12 -179q11 -51 44 -110h-489q35 59 45 110q12 60 12 179v568z" />
    <glyph glyph-name="integral" unicode="&#x222b;" horiz-adv-x="1175" vert-adv-y="2457"
d="M89 -563l60 344q62 -24 100 -24q58 0 96 33q41 35 44 110q1 31 2 198v911q0 148 2 257q4 165 44 251q67 144 214 206q92 39 226 39q72 0 207 -24l-60 -345q-59 24 -104 24q-83 0 -117 -62q-17 -32 -20 -89q-1 -25 -1 -69v-1135q0 -250 -25 -345q-34 -132 -162 -221
q-119 -82 -339 -82q-75 0 -122 13q-32 8 -45 10z" />
    <glyph glyph-name="ordfeminine" unicode="&#xaa;" horiz-adv-x="944" vert-adv-y="2457"
d="M516 626v25l-32 -24q-58 -20 -112 -20q-100 0 -159 39q-36 24 -58 65q-22 40 -22 84q0 74 51 127q44 45 166 86l166 56q-1 50 -14 67q-21 26 -78 26q-79 0 -264 -80l64 211q125 19 236 19q188 0 259 -61q43 -37 53 -89q4 -22 4 -94v-259q0 -70 8 -103q7 -33 35 -75h-303z
M516 919h-103q-35 -30 -35 -71q0 -32 20 -51q24 -22 63 -22q32 0 55 17v127z" />
    <glyph glyph-name="ordmasculine" unicode="&#xba;" horiz-adv-x="944" vert-adv-y="2457"
d="M499 1308q169 0 269 -100q95 -94 95 -249q0 -166 -130 -265q-114 -86 -280 -86q-180 0 -283 112q-89 95 -89 234q0 156 110 249q124 105 308 105zM444 1149q-32 0 -56 -17q-42 -28 -42 -99q0 -104 55 -198q40 -68 103 -68q94 0 94 114q0 105 -55 203q-37 65 -99 65z" />
    <glyph glyph-name="Omega" unicode="&#x2126;" horiz-adv-x="1610" vert-adv-y="2457"
d="M87 0v316h311q-121 75 -200 172q-120 148 -120 377q0 205 102 381q110 190 298 285q147 74 324 74q311 0 519 -213q210 -213 210 -524q0 -243 -134 -400q-70 -82 -185 -152h311v-316h-636v291q121 64 182 163q93 152 93 347q0 200 -96 339q-99 145 -259 145
q-163 0 -265 -145q-95 -134 -95 -341q0 -367 276 -508v-291h-636z" />
    <glyph glyph-name="ae" unicode="&#xe6;" horiz-adv-x="1548" vert-adv-y="2457"
d="M812 1030q139 98 334 98q233 0 352 -136q68 -78 93 -178q25 -103 25 -233q0 -31 -3 -110h-659q44 -229 279 -229q153 0 375 107l-100 -299q-136 -82 -321 -82q-172 0 -284 76q-24 16 -65 49q7 -46 19 -93h-336v79l-74 -74q-82 -36 -167 -36q-143 0 -231 64
q-53 39 -86 104q-32 66 -32 136q0 120 75 206q40 46 98 76q65 34 154 67l263 98v5q0 63 -10 98q-23 78 -144 78q-124 0 -387 -125l89 320q178 32 356 32q198 0 309 -48q39 -17 78 -50zM521 497h-175q-63 -58 -63 -133q0 -59 35 -95q39 -41 107 -41q54 0 96 33v236zM1237 729
q0 55 -17 92q-37 80 -118 80q-72 0 -116 -67q-26 -38 -36 -105h287z" />
    <glyph glyph-name="oslash" unicode="&#xf8;" horiz-adv-x="1246" vert-adv-y="2457"
d="M1057 977q156 -160 156 -420q0 -280 -196 -445q-169 -143 -421 -143q-153 0 -276 60l-83 -107h-201l157 203q-159 164 -159 416q0 255 165 413q96 92 237 138q111 36 229 36q149 0 264 -58l81 105h201zM794 639l-267 -344q22 -29 41 -46q42 -37 104 -37q65 0 104 40
q53 55 53 155q0 101 -35 232zM453 454l268 349q-60 82 -141 82q-54 0 -93 -31q-69 -52 -69 -175q0 -114 35 -225z" />
    <glyph glyph-name="questiondown" unicode="&#xbf;" horiz-adv-x="982" vert-adv-y="2457"
d="M991 130l-19 -408q-231 -99 -449 -99q-226 0 -363 118q-154 131 -154 339q0 158 93 282q54 74 133 126q65 44 150 90q130 70 170 111q28 31 42 59l83 2l5 -268q-29 -35 -108 -109q-161 -152 -161 -248q0 -81 79 -133q60 -39 138 -39q160 0 361 177zM623 1237
q100 0 171 -61q70 -62 70 -148q0 -87 -70 -149q-70 -61 -170 -61q-101 0 -171 61q-70 62 -70 151q0 85 70 146q72 61 170 61z" />
    <glyph glyph-name="exclamdown" unicode="&#xa1;" horiz-adv-x="755" vert-adv-y="2457"
d="M414 745l159 -377v-483q-2 -145 42 -229h-475q44 86 42 229v483l159 377h73zM377 1237q100 0 171 -62q70 -61 70 -148q0 -86 -70 -148q-70 -61 -170 -61q-101 0 -171 61q-70 62 -70 151q0 85 70 145q72 62 170 62z" />
    <glyph glyph-name="logicalnot" unicode="&#xac;" horiz-adv-x="2001" vert-adv-y="2457"
d="M1135 0v351h-643v337h1018v-688h-375z" />
    <glyph glyph-name="radical" unicode="&#x221a;" horiz-adv-x="1566" vert-adv-y="2457"
d="M1613 1942v-301h-386l-411 -1641h-425l-133 587h-211v301h418l60 -239q20 -87 46 -335h20q50 373 142 731l227 897h653z" />
    <glyph glyph-name="florin" unicode="&#x192;" vert-adv-y="2457"
d="M1092 1094l-46 -234h-249l-234 -1204h-376l234 1205h-155l198 221l41 209q41 211 178 328q139 119 352 119q130 0 262 -47l-159 -301q-66 66 -142 66q-41 0 -66 -28q-29 -34 -45 -117l-42 -215z" />
    <glyph glyph-name="approxequal" unicode="&#x2248;" horiz-adv-x="1274" vert-adv-y="2457"
d="M254 818l-186 131q51 123 100 189q105 142 253 142q75 0 249 -73q89 -38 116 -48q45 -15 78 -15q83 0 156 117l186 -130q-62 -143 -114 -208q-101 -126 -238 -126q-56 0 -146 34q-40 16 -163 66q-89 36 -136 36q-80 0 -155 -115zM254 289l-186 131q51 123 100 190
q105 141 254 141q75 0 248 -72q90 -37 116 -46q45 -15 79 -15q83 0 155 115l186 -131q-61 -143 -114 -208q-101 -126 -238 -126q-56 0 -146 34q-37 15 -163 66q-89 36 -136 36q-80 0 -155 -115z" />
    <glyph glyph-name="Delta" unicode="&#x2206;" horiz-adv-x="1533" vert-adv-y="2457"
d="M20 0l555 1566h378l561 -1566h-1494zM484 316h558l-275 866z" />
    <glyph glyph-name="guillemotleft" unicode="&#xab;" horiz-adv-x="1057" vert-adv-y="2457"
d="M303 946h245q-40 -111 -104 -220q-68 -111 -128 -162q60 -52 128 -163q64 -108 104 -220h-245q-52 103 -127 199q-105 128 -202 184q97 55 202 183q75 96 127 199zM776 946h245q-40 -111 -104 -220q-69 -111 -128 -162q60 -52 128 -163q64 -108 104 -220h-245
q-52 103 -127 199q-105 128 -202 184q97 55 202 183q75 96 127 199z" />
    <glyph glyph-name="guillemotright" unicode="&#xbb;" horiz-adv-x="1057" vert-adv-y="2457"
d="M754 181h-244q40 112 104 220q68 111 127 163q-59 50 -127 162q-64 109 -104 220h244q52 -103 128 -199q105 -128 202 -183q-97 -56 -202 -184q-76 -96 -128 -199zM281 181h-244q40 113 104 220q67 110 127 163q-59 51 -127 162q-64 108 -104 220h244q52 -103 128 -199
q105 -128 202 -183q-97 -56 -202 -184q-76 -96 -128 -199z" />
    <glyph glyph-name="ellipsis" unicode="&#x2026;" horiz-adv-x="2001" vert-adv-y="2457"
d="M249 447q111 0 189 -68t78 -167q0 -93 -78 -161t-188 -68q-111 0 -189 68t-78 164q0 97 78 164q79 68 188 68zM1001 447q111 0 188 -68q78 -68 78 -167q0 -93 -78 -161t-188 -68t-188 68t-78 164q0 97 78 164q79 68 188 68zM1752 447q111 0 189 -68t78 -167
q0 -93 -78 -161t-188 -68q-111 0 -189 68t-78 164q0 97 78 164q80 68 188 68z" />
    <glyph glyph-name="glyph172" vert-adv-y="1360"
 />
    <glyph glyph-name="Agrave" unicode="&#xc0;" horiz-adv-x="1586" vert-adv-y="2457"
d="M1015 421h-478l-73 -183q-31 -77 -31 -132q0 -43 29 -106h-538q43 39 69 74q52 72 104 199l541 1293h293l594 -1328q60 -132 91 -175q20 -27 53 -63h-592q39 60 39 119q0 60 -38 152zM892 719l-126 315l-118 -315h244zM565 2075l396 -278l-65 -127l-447 176z" />
    <glyph glyph-name="Atilde" unicode="&#xc3;" horiz-adv-x="1586" vert-adv-y="2457"
d="M1015 421h-478l-73 -183q-31 -77 -31 -132q0 -43 29 -106h-538q43 39 69 74q52 72 104 199l541 1293h293l594 -1328q60 -132 91 -175q20 -27 53 -63h-592q39 60 39 119q0 60 -38 152zM892 719l-126 315l-118 -315h244zM517 1729h-87q15 101 58 163q67 97 171 97
q32 0 61 -9q26 -8 91 -31l113 -40q61 -22 104 -22q41 0 60 32q7 12 20 44h87q-6 -91 -43 -149q-70 -107 -187 -107q-65 0 -152 33l-112 43q-68 26 -101 26q-38 0 -60 -31q-11 -15 -23 -49z" />
    <glyph glyph-name="Otilde" unicode="&#xd5;" horiz-adv-x="1850" vert-adv-y="2457"
d="M957 1605q364 0 587 -218q235 -229 235 -610q0 -363 -256 -594q-247 -223 -628 -223q-406 0 -631 257q-193 221 -193 548q0 252 121 449q128 210 374 315q177 76 391 76zM898 1338q-166 0 -276 -119q-113 -123 -113 -350q0 -242 101 -426q56 -101 150 -161
q88 -56 196 -56q180 0 292 147q93 123 93 314q0 270 -118 465q-113 186 -325 186zM661 1729h-87q15 102 58 163q67 97 171 97q32 0 61 -9q26 -8 91 -31l113 -40q62 -22 104 -22q41 0 61 32q7 12 19 44h87q-6 -90 -43 -149q-69 -107 -187 -107q-65 0 -152 33l-112 43
q-67 26 -101 26q-39 0 -60 -31q-11 -15 -23 -49z" />
    <glyph glyph-name="OE" unicode="&#x152;" horiz-adv-x="2417" vert-adv-y="2457"
d="M1611 923h542l-171 -385q-53 45 -113 73q-108 48 -211 46h-47v-391h80q210 0 363 38q104 25 220 78l-169 -382h-847q-42 -2 -122 -6q-30 -2 -68 -2q-319 0 -513 120q-165 101 -257 277q-92 175 -92 374q0 261 150 474q131 186 358 274q163 63 337 63q36 0 85 -3
q55 -4 88 -5h963l-154 -386q-122 119 -339 120h-83v-377zM1188 1282q-79 26 -150 26q-158 0 -267 -115q-127 -132 -127 -355q0 -228 113 -400q117 -179 327 -179q50 0 104 14v1009z" />
    <glyph glyph-name="oe" unicode="&#x153;" horiz-adv-x="1813" vert-adv-y="2457"
d="M1807 471h-659q45 -229 279 -229q153 0 375 107l-100 -299q-162 -82 -386 -82q-244 0 -382 111q-158 -111 -367 -111q-274 0 -430 185q-133 158 -133 388q0 255 165 413q96 92 237 138q110 36 227 36q196 0 337 -110q149 110 365 110q238 0 357 -136q68 -79 93 -178
q25 -103 25 -231q0 -33 -3 -112zM550 885q-53 0 -93 -31q-69 -52 -69 -177q0 -182 86 -343q65 -123 169 -123q64 0 103 40q53 55 53 166q0 110 -42 243q-72 225 -207 225zM1431 729q0 55 -17 92q-37 80 -119 80q-71 0 -115 -67q-26 -38 -36 -105h287z" />
    <glyph glyph-name="endash" unicode="&#x2013;" vert-adv-y="2457"
d="M132 375v379q82 -14 234 -16h629q153 2 234 16v-379q-80 14 -234 16h-629q-153 -2 -234 -16z" />
    <glyph glyph-name="emdash" unicode="&#x2014;" horiz-adv-x="2001" vert-adv-y="2457"
d="M225 375v379q82 -14 234 -16h1083q152 2 234 16v-379q-81 14 -234 16h-1083q-153 -2 -234 -16z" />
    <glyph glyph-name="quotedblleft" unicode="&#x201c;" horiz-adv-x="1322" vert-adv-y="2457"
d="M1089 1016h-408q-2 42 -2 70q0 127 70 263q58 114 162 217h298q-122 -184 -122 -466q0 -22 2 -84zM546 1016h-408q-2 37 -2 68q0 129 70 265q58 114 162 217h298q-122 -184 -122 -466q0 -17 2 -84z" />
    <glyph glyph-name="quotedblright" unicode="&#x201d;" horiz-adv-x="1322" vert-adv-y="2457"
d="M233 1566h408q2 -42 2 -70q0 -126 -70 -264q-58 -114 -162 -216h-298q122 185 122 466q0 17 -2 84zM775 1566h408q3 -43 3 -68q0 -128 -70 -266q-58 -113 -162 -216h-298q121 184 121 466q0 24 -2 84z" />
    <glyph glyph-name="quoteleft" unicode="&#x2018;" horiz-adv-x="755" vert-adv-y="2457"
d="M534 1016h-408q-2 37 -2 68q0 129 70 265q58 114 162 217h298q-122 -184 -122 -466q0 -17 2 -84z" />
    <glyph glyph-name="quoteright" unicode="&#x2019;" horiz-adv-x="755" vert-adv-y="2457"
d="M221 1566h408q2 -42 2 -70q0 -126 -70 -264q-58 -114 -162 -216h-298q122 185 122 466q0 17 -2 84z" />
    <glyph glyph-name="divide" unicode="&#xf7;" horiz-adv-x="2001" vert-adv-y="2457"
d="M398 917h1206v-235h-1206v235zM1001 1422q89 0 151 -54t62 -134q0 -74 -62 -128q-63 -55 -151 -55t-150 55q-63 54 -63 131t63 131t150 54zM1001 546q89 0 151 -54t62 -134q0 -74 -62 -128q-62 -55 -151 -55q-88 0 -150 55q-63 54 -63 131q0 78 63 131q63 54 150 54z" />
    <glyph glyph-name="lozenge" unicode="&#x25ca;" horiz-adv-x="1566" vert-adv-y="2457"
d="M783 1627l610 -844l-610 -844l-610 844zM783 1419l-463 -636l463 -636l463 636z" />
    <glyph glyph-name="ydieresis" unicode="&#xff;" horiz-adv-x="1133" vert-adv-y="2457"
d="M602 490l120 438q11 42 11 71q0 43 -23 97h439q-40 -37 -67 -86q-29 -57 -64 -162l-269 -806q-82 -245 -151 -341q-55 -77 -150 -77q-114 0 -221 63q67 63 127 189l60 142l-289 830q-50 145 -140 248h505q-21 -51 -21 -88q0 -36 21 -112zM334 1602q77 0 132 -55
q55 -54 55 -134q0 -75 -55 -130t-132 -55t-132 55t-55 132q0 79 55 132q56 55 132 55zM798 1602q77 0 132 -55q55 -54 55 -134q0 -75 -55 -130t-132 -55t-132 55t-55 132q0 79 55 132q56 55 132 55z" />
    <glyph glyph-name="Ydieresis" unicode="&#x178;" vert-adv-y="2457"
d="M894 624v-335q0 -119 12 -179q10 -50 45 -110h-537q35 59 45 110q12 60 12 179v335l-376 674q-79 140 -202 268h597q-13 -38 -13 -63q0 -63 56 -169l189 -361l187 361q49 93 49 158q0 30 -16 74h525q-60 -55 -99 -106q-52 -66 -127 -204zM424 2036q77 0 132 -55
q55 -54 55 -134q0 -75 -55 -130t-132 -55t-132 55t-55 132q0 79 55 132q56 55 132 55zM934 2036q78 0 133 -55q55 -54 55 -134q0 -75 -55 -130q-54 -55 -132 -55q-77 0 -132 55t-55 132q0 79 55 132q56 55 131 55z" />
    <glyph glyph-name="glyph188" horiz-adv-x="755" vert-adv-y="2457"
 />
    <glyph glyph-name="Euro" unicode="&#xa4;" vert-adv-y="2457"
d="M565 547q23 -79 65 -142q52 -76 129 -121q70 -41 153 -41q142 0 268 139v-387q-175 -34 -338 -34q-263 0 -438 134q-220 168 -271 452h-128l56 168h55q-1 18 -1 38q0 29 2 70h-112l56 168h78q38 166 111 280q216 334 672 334q185 0 329 -27l-90 -314q-104 75 -237 75
q-138 0 -236 -102q-94 -98 -134 -246h475l-56 -168h-441v-8v-26q0 -33 3 -74h402l-56 -168h-316z" />
    <glyph glyph-name="Euro" unicode="&#x20ac;" vert-adv-y="2457"
d="M565 547q23 -79 65 -142q52 -76 129 -121q70 -41 153 -41q142 0 268 139v-387q-175 -34 -338 -34q-263 0 -438 134q-220 168 -271 452h-128l56 168h55q-1 18 -1 38q0 29 2 70h-112l56 168h78q38 166 111 280q216 334 672 334q185 0 329 -27l-90 -314q-104 75 -237 75
q-138 0 -236 -102q-94 -98 -134 -246h475l-56 -168h-441v-8v-26q0 -33 3 -74h402l-56 -168h-316z" />
    <glyph glyph-name="guilsinglleft" unicode="&#x2039;" horiz-adv-x="604" vert-adv-y="2457"
d="M313 946h245q-40 -111 -104 -220q-68 -111 -128 -162q60 -52 128 -163q64 -108 104 -220h-245q-52 103 -127 199q-105 128 -202 184q97 55 202 183q75 96 127 199z" />
    <glyph glyph-name="guilsinglright" unicode="&#x203a;" horiz-adv-x="604" vert-adv-y="2457"
d="M291 181h-244q40 113 104 220q67 110 127 163q-59 51 -127 162q-64 108 -104 220h244q52 -103 128 -199q105 -128 202 -183q-97 -56 -202 -184q-76 -96 -128 -199z" />
    <glyph glyph-name="fi" unicode="&#xf001;" horiz-adv-x="1309" vert-adv-y="2457"
d="M533 870v-581q0 -119 12 -179q10 -50 44 -110h-489q34 58 45 110q12 61 12 179v581h-156l156 214v68q0 239 145 357q112 90 297 90q91 0 212 -29l-116 -295q-50 42 -82 42q-37 0 -57 -28q-23 -33 -23 -118v-75h698q-33 -57 -44 -110q-12 -59 -12 -179v-518
q0 -120 12 -179q11 -53 44 -110h-489q34 60 45 110q12 59 12 179v581h-266zM994 1547q86 0 147 -56q61 -55 61 -137q0 -76 -61 -132t-147 -56t-146 56q-61 56 -61 135t61 134q62 56 146 56z" />
    <glyph glyph-name="fi" unicode="&#xfb01;" horiz-adv-x="1309" vert-adv-y="2457"
d="M533 870v-581q0 -119 12 -179q10 -50 44 -110h-489q34 58 45 110q12 61 12 179v581h-156l156 214v68q0 239 145 357q112 90 297 90q91 0 212 -29l-116 -295q-50 42 -82 42q-37 0 -57 -28q-23 -33 -23 -118v-75h698q-33 -57 -44 -110q-12 -59 -12 -179v-518
q0 -120 12 -179q11 -53 44 -110h-489q34 60 45 110q12 59 12 179v581h-266zM994 1547q86 0 147 -56q61 -55 61 -137q0 -76 -61 -132t-147 -56t-146 56q-61 56 -61 135t61 134q62 56 146 56z" />
    <glyph glyph-name="fl" unicode="&#xf002;" horiz-adv-x="1309" vert-adv-y="2457"
d="M735 1096v-226h-202v-581q0 -119 12 -179q10 -50 44 -110h-489q34 58 45 110q12 61 12 179v581h-156l156 214v68q0 239 145 357q112 90 295 90q132 0 257 -41l368 102q-26 -82 -35 -140q-12 -72 -12 -199v-1032q0 -119 12 -179q10 -51 44 -110h-489q34 60 45 110
q12 59 12 179v1051l-74 -57q-54 50 -111 50q-39 0 -58 -28q-23 -34 -23 -118v-91h202z" />
    <glyph glyph-name="fl" unicode="&#xfb02;" horiz-adv-x="1309" vert-adv-y="2457"
d="M735 1096v-226h-202v-581q0 -119 12 -179q10 -50 44 -110h-489q34 58 45 110q12 61 12 179v581h-156l156 214v68q0 239 145 357q112 90 295 90q132 0 257 -41l368 102q-26 -82 -35 -140q-12 -72 -12 -199v-1032q0 -119 12 -179q10 -51 44 -110h-489q34 60 45 110
q12 59 12 179v1051l-74 -57q-54 50 -111 50q-39 0 -58 -28q-23 -34 -23 -118v-91h202z" />
    <glyph glyph-name="daggerdbl" unicode="&#x2021;" vert-adv-y="2457"
d="M860 847v-457h223q98 2 172 19v-271q-62 18 -172 17h-223v-312q0 -83 5 -114q4 -29 19 -73h-407q14 44 18 73q5 31 5 114v312h-222q-110 0 -172 -17v271q73 -18 172 -19h222v457h-222q-100 -1 -172 -19v271q65 -16 172 -17h222v297q0 83 -5 114q-4 28 -18 73h407
q-15 -45 -19 -73q-5 -31 -5 -114v-297h223q106 1 172 17v-271q-73 18 -172 19h-223z" />
    <glyph glyph-name="periodcentered" unicode="&#x2219;" horiz-adv-x="755" vert-adv-y="2457"
d="M377 843q111 0 189 -68t78 -167q0 -93 -78 -161t-188 -68q-111 0 -189 68q-78 69 -78 164q0 97 78 164q79 68 188 68z" />
    <glyph glyph-name="quotesinglbase" unicode="&#x201a;" horiz-adv-x="755" vert-adv-y="2457"
d="M221 423h408q2 -43 2 -70q0 -126 -70 -264q-58 -115 -162 -217h-298q122 185 122 467q0 17 -2 84z" />
    <glyph glyph-name="quotedblbase" unicode="&#x201e;" horiz-adv-x="1322" vert-adv-y="2457"
d="M233 423h408q2 -43 2 -70q0 -126 -70 -264q-58 -115 -162 -217h-298q122 185 122 467q0 17 -2 84zM775 423h408q3 -43 3 -69q0 -127 -70 -265q-58 -114 -162 -217h-298q121 184 121 467q0 24 -2 84z" />
    <glyph glyph-name="perthousand" unicode="&#x2030;" horiz-adv-x="2606" vert-adv-y="2457"
d="M756 1403l92 163h572l-826 -1420q-68 -105 -70 -146h-288q41 52 70 97q16 26 109 194l601 1040h-233q13 -56 13 -107q0 -176 -138 -280q-121 -91 -298 -91q-190 0 -300 118q-94 100 -94 246q0 166 116 262q133 111 330 111q244 0 344 -187zM360 1433q-25 0 -44 -19
q-33 -34 -33 -115q0 -106 41 -212q30 -77 80 -77q75 0 75 131q0 118 -39 219q-29 73 -80 73zM1330 713q180 0 286 -105q100 -100 100 -262q0 -175 -138 -279q-121 -91 -298 -91q-190 0 -300 118q-94 100 -94 246q0 164 116 262q131 111 328 111zM1280 556q-26 0 -44 -19
q-33 -34 -33 -115q0 -106 41 -212q30 -77 81 -77q74 0 74 131q0 117 -39 219q-28 73 -80 73zM2254 713q180 0 286 -105q100 -100 100 -262q0 -176 -138 -279q-120 -91 -297 -91q-191 0 -301 118q-94 100 -94 246q0 164 116 262q132 111 328 111zM2204 556q-26 0 -44 -19
q-33 -34 -33 -114q0 -108 41 -213q30 -77 80 -77q75 0 75 132q0 116 -39 218q-29 73 -80 73z" />
    <glyph glyph-name="Acircumflex" unicode="&#xc2;" horiz-adv-x="1586" vert-adv-y="2457"
d="M1015 421h-478l-73 -183q-31 -77 -31 -132q0 -43 29 -106h-538q43 39 69 74q52 72 104 199l541 1293h293l594 -1328q60 -132 91 -175q20 -27 53 -63h-592q39 60 39 119q0 60 -38 152zM892 719l-126 315l-118 -315h244zM797 2090l349 -340l-67 -81l-282 167l-282 -167
l-68 81z" />
    <glyph glyph-name="Ecircumflex" unicode="&#xca;" horiz-adv-x="1246" vert-adv-y="2457"
d="M587 923h541l-171 -385q-52 45 -113 73q-108 48 -211 46h-46v-391h80q210 0 362 38q103 25 220 78l-168 -382h-974q34 59 45 110q11 61 12 179v988q-1 118 -12 179q-11 51 -45 110h1055l-153 -386q-123 119 -339 120h-83v-377zM623 2090l349 -340l-67 -81l-282 167
l-282 -167l-68 81z" />
    <glyph glyph-name="Aacute" unicode="&#xc1;" horiz-adv-x="1586" vert-adv-y="2457"
d="M1015 421h-478l-73 -183q-31 -77 -31 -132q0 -43 29 -106h-538q43 39 69 74q52 72 104 199l541 1293h293l594 -1328q60 -132 91 -175q20 -27 53 -63h-592q39 60 39 119q0 60 -38 152zM892 719l-126 315l-118 -315h244zM1028 2075l116 -229l-447 -176l-65 127z" />
    <glyph glyph-name="Edieresis" unicode="&#xcb;" horiz-adv-x="1246" vert-adv-y="2457"
d="M587 923h541l-171 -385q-52 45 -113 73q-108 48 -211 46h-46v-391h80q210 0 362 38q103 25 220 78l-168 -382h-974q34 59 45 110q11 61 12 179v988q-1 118 -12 179q-11 51 -45 110h1055l-153 -386q-123 119 -339 120h-83v-377zM365 2036q78 0 133 -55q55 -54 55 -134
q0 -75 -55 -130t-132 -55q-78 0 -132 55q-55 55 -55 132q0 79 55 132q56 55 131 55zM877 2036q78 0 133 -55q55 -54 55 -134q0 -75 -55 -130t-133 -55q-77 0 -131 55q-55 55 -55 132q0 79 55 132q56 55 131 55z" />
    <glyph glyph-name="Egrave" unicode="&#xc8;" horiz-adv-x="1246" vert-adv-y="2457"
d="M587 923h541l-171 -385q-52 45 -113 73q-108 48 -211 46h-46v-391h80q210 0 362 38q103 25 220 78l-168 -382h-974q34 59 45 110q11 61 12 179v988q-1 118 -12 179q-11 51 -45 110h1055l-153 -386q-123 119 -339 120h-83v-377zM391 2075l396 -278l-65 -127l-447 176z" />
    <glyph glyph-name="Iacute" unicode="&#xcd;" horiz-adv-x="793" vert-adv-y="2457"
d="M664 0h-536q34 60 45 110q11 60 12 179v988q-1 119 -12 179q-11 51 -45 110h536q-34 -59 -44 -110q-12 -60 -12 -179v-988q0 -119 12 -179q10 -50 44 -110zM627 2075l116 -229l-447 -176l-65 127z" />
    <glyph glyph-name="Icircumflex" unicode="&#xce;" horiz-adv-x="793" vert-adv-y="2457"
d="M665 0h-536q33 59 44 110q12 61 12 179v988q0 118 -12 179q-11 51 -44 110h536q-33 -57 -45 -110q-12 -59 -12 -179v-988q0 -120 12 -179q12 -53 45 -110zM397 2090l349 -340l-68 -81l-281 167l-282 -167l-68 81z" />
    <glyph glyph-name="Idieresis" unicode="&#xcf;" horiz-adv-x="793" vert-adv-y="2457"
d="M664 0h-536q34 59 45 110q12 61 12 179v988q0 118 -12 179q-11 51 -45 110h536q-32 -57 -44 -110q-12 -59 -12 -179v-988q0 -120 12 -179q12 -53 44 -110zM171 2036q77 0 132 -55q55 -54 55 -134q0 -75 -55 -130t-132 -55t-132 55t-55 132q0 79 55 132q56 55 132 55z
M620 2036q77 0 132 -55q55 -54 55 -134q0 -75 -55 -130q-54 -55 -132 -55q-77 0 -132 55t-55 132q0 79 55 132q56 55 132 55z" />
    <glyph glyph-name="Igrave" unicode="&#xcc;" horiz-adv-x="793" vert-adv-y="2457"
d="M664 0h-536q34 60 45 110q12 60 12 179v988q0 119 -12 179q-11 51 -45 110h536q-32 -57 -44 -110q-12 -59 -12 -179v-988q0 -120 12 -179q12 -53 44 -110zM165 2075l396 -278l-65 -127l-447 176z" />
    <glyph glyph-name="Oacute" unicode="&#xd3;" horiz-adv-x="1850" vert-adv-y="2457"
d="M957 1605q364 0 587 -218q235 -229 235 -610q0 -363 -256 -594q-247 -223 -628 -223q-406 0 -631 257q-193 221 -193 548q0 252 121 449q128 210 374 315q177 76 391 76zM898 1338q-166 0 -276 -119q-113 -123 -113 -350q0 -242 101 -426q56 -101 150 -161
q88 -56 196 -56q180 0 292 147q93 123 93 314q0 270 -118 465q-113 186 -325 186zM1157 2075l116 -229l-447 -176l-65 127z" />
    <glyph glyph-name="Ocircumflex" unicode="&#xd4;" horiz-adv-x="1850" vert-adv-y="2457"
d="M957 1605q364 0 587 -218q235 -229 235 -610q0 -363 -256 -594q-247 -223 -628 -223q-406 0 -631 257q-193 221 -193 548q0 252 121 449q128 210 374 315q177 76 391 76zM898 1338q-166 0 -276 -119q-113 -123 -113 -350q0 -242 101 -426q56 -101 150 -161
q88 -56 196 -56q180 0 292 147q93 123 93 314q0 270 -118 465q-113 186 -325 186zM925 2090l350 -340l-68 -81l-282 167l-282 -167l-67 81z" />
    <glyph glyph-name="glyph210" horiz-adv-x="755" vert-adv-y="2457"
 />
    <glyph glyph-name="Ograve" unicode="&#xd2;" horiz-adv-x="1850" vert-adv-y="2457"
d="M957 1605q364 0 587 -218q235 -229 235 -610q0 -363 -256 -594q-247 -223 -628 -223q-406 0 -631 257q-193 221 -193 548q0 252 121 449q128 210 374 315q177 76 391 76zM898 1338q-166 0 -276 -119q-113 -123 -113 -350q0 -242 101 -426q56 -101 150 -161
q88 -56 196 -56q180 0 292 147q93 123 93 314q0 270 -118 465q-113 186 -325 186zM693 2075l397 -278l-65 -127l-448 176z" />
    <glyph glyph-name="Uacute" unicode="&#xda;" horiz-adv-x="1662" vert-adv-y="2457"
d="M1064 0v84q-89 -56 -158 -82q-110 -41 -237 -41q-269 0 -404 156q-70 80 -85 175q-14 84 -14 223v762q-1 119 -12 179q-11 50 -45 110h536q-34 -60 -44 -110q-12 -60 -12 -179v-689q0 -124 15 -182q25 -87 92 -130q53 -33 115 -33q86 0 155 58q65 56 86 146q12 56 12 207
v623q0 118 -11 179q-11 51 -45 110h536q-34 -59 -44 -110q-12 -61 -12 -179v-988q0 -118 12 -179q10 -51 44 -110h-480zM1062 2075l116 -229l-447 -176l-65 127z" />
    <glyph glyph-name="Ucircumflex" unicode="&#xdb;" horiz-adv-x="1662" vert-adv-y="2457"
d="M1064 0v84q-89 -56 -158 -82q-110 -41 -237 -41q-269 0 -404 156q-70 80 -85 175q-14 84 -14 223v762q-1 119 -12 179q-11 50 -45 110h536q-34 -60 -44 -110q-12 -60 -12 -179v-689q0 -124 15 -182q25 -87 92 -130q53 -33 115 -33q86 0 155 58q65 56 86 146q12 56 12 207
v623q0 118 -11 179q-11 51 -45 110h536q-34 -59 -44 -110q-12 -61 -12 -179v-988q0 -118 12 -179q10 -51 44 -110h-480zM830 2090l350 -340l-68 -81l-282 167l-281 -167l-68 81z" />
    <glyph glyph-name="Ugrave" unicode="&#xd9;" horiz-adv-x="1662" vert-adv-y="2457"
d="M1064 0v84q-89 -56 -158 -82q-110 -41 -237 -41q-269 0 -404 156q-70 80 -85 175q-14 84 -14 223v762q-1 119 -12 179q-11 50 -45 110h536q-34 -60 -44 -110q-12 -60 -12 -179v-689q0 -124 15 -182q25 -87 92 -130q53 -33 115 -33q86 0 155 58q65 56 86 146q12 56 12 207
v623q0 118 -11 179q-11 51 -45 110h536q-34 -59 -44 -110q-12 -61 -12 -179v-988q0 -118 12 -179q10 -51 44 -110h-480zM599 2075l396 -278l-65 -127l-447 176z" />
    <glyph glyph-name="dotlessi" unicode="&#x131;" horiz-adv-x="604" vert-adv-y="2457"
d="M546 0h-489q34 59 45 110q11 61 12 179v518q-1 118 -12 179q-11 51 -45 110h489q-33 -58 -44 -110q-12 -58 -12 -179v-518q0 -121 12 -179q11 -52 44 -110z" />
    <glyph glyph-name="circumflex" unicode="&#x2c6;" vert-adv-y="2457"
d="M681 1620l349 -340l-68 -81l-281 167l-282 -167l-68 81z" />
    <glyph glyph-name="tilde" unicode="&#x2dc;" vert-adv-y="2457"
d="M400 1291h-87q15 101 58 162q68 97 171 97q41 0 153 -40l113 -40q61 -22 104 -22q40 0 60 32q7 12 20 44h87q-7 -90 -44 -148q-69 -108 -186 -108q-65 0 -153 34l-112 42q-66 26 -100 26q-39 0 -61 -31q-10 -15 -23 -48z" />
    <glyph glyph-name="macron" unicode="&#x2c9;" vert-adv-y="2457"
d="M1007 1454v-171h-653v171h653z" />
    <glyph glyph-name="breve" unicode="&#x2d8;" vert-adv-y="2457"
d="M914 1576h86q-5 -110 -52 -185q-92 -147 -268 -147t-268 147q-48 76 -53 185h87q93 -142 234 -142t234 142z" />
    <glyph glyph-name="dotaccent" unicode="&#x2d9;" vert-adv-y="2457"
d="M679 1602q77 0 132 -55q55 -54 55 -134q0 -75 -55 -130t-132 -55t-132 55t-55 132q0 79 55 132q56 55 132 55z" />
    <glyph glyph-name="ring" unicode="&#x2da;" vert-adv-y="2457"
d="M697 1681q102 0 162 -66q57 -63 57 -166q0 -109 -78 -175q-68 -57 -169 -57q-109 0 -171 74q-53 63 -53 156q0 103 66 164q75 70 186 70zM662 1584q-64 0 -64 -83q0 -72 35 -138q26 -49 66 -49q64 0 64 83q0 73 -35 140q-24 47 -66 47z" />
    <glyph glyph-name="cedilla" unicode="&#xb8;" vert-adv-y="2457"
d="M755 0h133l-112 -128q30 2 49 2q77 0 129 -38q55 -41 55 -119q0 -89 -67 -149q-68 -59 -185 -59q-85 0 -186 41l65 98q46 -22 92 -22q87 0 87 60q0 63 -101 63q-17 0 -42 -3l-50 100z" />
    <glyph glyph-name="hungarumlaut" unicode="&#x2dd;" vert-adv-y="2457"
d="M665 1700l176 -165l-360 -318l-93 86zM1035 1684l176 -164l-360 -319l-93 86z" />
    <glyph glyph-name="ogonek" unicode="&#x2db;" vert-adv-y="2457"
d="M853 0h160q-164 -87 -164 -182q0 -45 32 -75q34 -31 80 -31q51 0 106 23v-147q-76 -29 -142 -29q-112 0 -180 55q-76 60 -76 156q0 131 184 230z" />
    <glyph glyph-name="caron" unicode="&#x2c7;" vert-adv-y="2457"
d="M680 1199l-350 340l68 81l282 -167l281 167l68 -81z" />
    <glyph glyph-name="whitecircle" horiz-adv-x="2048" vert-adv-y="2457"
d="M1037 1465q187 0 353 -98q171 -101 268 -267q98 -169 98 -365t-98 -366q-98 -169 -268 -267q-169 -98 -365 -98q-195 0 -366 98q-170 98 -267 267q-98 171 -98 371q0 316 242 537q207 188 501 188zM1035 1349q-282 0 -467 -204q-158 -174 -158 -406q0 -169 83 -312
q82 -143 225 -225q142 -82 307 -82t307 82q143 83 225 225q83 144 83 308q0 269 -204 456q-95 87 -218 126q-97 32 -183 32z" />
    <glyph glyph-name="nonbreakingspace" unicode="&#xa0;" horiz-adv-x="755" vert-adv-y="2457"
 />
    <glyph glyph-name="brokenbar" unicode="&#xa6;" horiz-adv-x="1020" vert-adv-y="2457"
d="M316 1566h387v-834h-387v834zM316 360h387v-752h-387v752z" />
    <glyph glyph-name="sfthyphen" unicode="&#xad;" horiz-adv-x="755" vert-adv-y="2457"
d="M56 375v379q81 -14 234 -16h175q153 2 234 16v-379q-80 14 -234 16h-175q-154 -2 -234 -16z" />
    <glyph glyph-name="macron" unicode="&#xaf;" horiz-adv-x="1020" vert-adv-y="2457"
d="M-77 2069h1175v-225h-1175v225z" />
    <glyph glyph-name="twosuperior" unicode="&#xb2;" horiz-adv-x="944" vert-adv-y="2457"
d="M804 626h-741q203 226 370 462q112 158 112 227q0 34 -22 55q-21 22 -56 22q-47 0 -76 -40q-30 -41 -30 -103q0 -26 6 -68l-269 58q-1 16 -1 21q0 114 74 203q103 126 300 126q141 0 235 -67q104 -74 104 -207q0 -75 -39 -152q-30 -59 -95 -141l-171 -217h91
q135 -1 278 78z" />
    <glyph glyph-name="threesuperior" unicode="&#xb3;" horiz-adv-x="944" vert-adv-y="2457"
d="M114 1566h749q-46 -56 -87 -129l-144 -259q84 -33 123 -81q61 -75 61 -181q0 -143 -105 -231q-97 -82 -269 -82q-216 0 -349 137l128 199q38 -59 69 -88q54 -51 126 -51q60 0 97 36q38 37 38 91q0 80 -95 120q-54 22 -125 22h-27l183 318h-65q-128 0 -195 -17
q-54 -14 -113 -47v243z" />
    <glyph glyph-name="middot" unicode="&#xb7;" horiz-adv-x="755" vert-adv-y="2457"
d="M377 843q111 0 189 -68t78 -167q0 -93 -78 -161t-188 -68q-111 0 -189 68q-78 69 -78 164q0 97 78 164q79 68 188 68z" />
    <glyph glyph-name="onesuperior" unicode="&#xb9;" horiz-adv-x="944" vert-adv-y="2457"
d="M663 1604v-755q0 -80 10 -130q9 -46 38 -93h-350q28 46 39 93q9 47 9 130v416h-174z" />
    <glyph glyph-name="onequarter" unicode="&#xbc;" horiz-adv-x="2001" vert-adv-y="2457"
d="M601 1604v-755q0 -80 10 -130q9 -46 38 -93h-350q28 46 39 93q9 47 9 130v416h-174zM1248 1566h280q-51 -70 -129 -222l-622 -1220q-32 -63 -32 -93q0 -9 5 -31h-277q53 71 116 192l607 1194q54 106 54 156q0 8 -2 24zM1851 250v-113q-1 -89 28 -137h-310q29 53 27 137
v113h-404v187q34 33 67 74l292 351q29 35 45 78h283q-26 -62 -28 -146v-366h142v-178h-142zM1601 424v228l-181 -228h181z" />
    <glyph glyph-name="onehalf" unicode="&#xbd;" horiz-adv-x="2001" vert-adv-y="2457"
d="M601 1604v-755q0 -80 10 -130q9 -46 38 -93h-350q28 46 39 93q9 47 9 130v416h-174zM1248 1566h280q-51 -70 -129 -222l-622 -1220q-32 -63 -32 -93q0 -9 5 -31h-277q53 71 116 192l607 1194q54 106 54 156q0 8 -2 24zM1922 0h-741q205 229 370 463q112 158 112 227
q0 33 -22 55t-57 22q-46 0 -75 -40q-30 -41 -30 -103q0 -26 6 -69l-269 58q-1 16 -1 22q0 113 74 203q104 126 299 126q142 0 236 -68q104 -74 104 -206q0 -75 -39 -152q-30 -60 -95 -142l-171 -217h91q136 -1 278 78z" />
    <glyph glyph-name="threequarters" unicode="&#xbe;" horiz-adv-x="2001" vert-adv-y="2457"
d="M53 1566h749q-46 -56 -87 -129l-144 -259q84 -33 123 -81q61 -75 61 -181q0 -143 -105 -231q-97 -82 -269 -82q-217 0 -349 137l128 199q38 -59 69 -88q54 -51 126 -51q60 0 97 36q38 37 38 91q0 80 -95 120q-54 22 -125 22h-27l183 318h-65q-128 0 -195 -17
q-54 -14 -113 -47v243zM1249 1566h279q-51 -72 -128 -222l-622 -1220q-33 -64 -33 -92q0 -10 5 -32h-277q52 68 116 192l607 1194q54 106 54 157q0 8 -1 23zM1852 250v-113q-1 -86 27 -137h-309q29 52 27 137v113h-405v187q35 34 68 74l292 351q29 36 45 78h283
q-26 -62 -28 -146v-366h141v-178h-141zM1602 424v228l-182 -228h182z" />
    <glyph glyph-name="Eth" unicode="&#xd0;" horiz-adv-x="1662" vert-adv-y="2457"
d="M214 657h-91v266h91v354q0 113 -14 179q-11 51 -46 110h555q318 0 505 -100q190 -101 293 -289q94 -171 94 -380q0 -255 -137 -456q-80 -116 -197 -197q-140 -96 -332 -124q-130 -20 -298 -20h-476q32 57 43 110q10 57 10 179v368zM637 657v-414q220 14 340 112
q185 150 185 439q0 191 -84 322q-90 139 -261 184q-69 18 -180 23v-400h247v-266h-247z" />
    <glyph glyph-name="multiply" unicode="&#xd7;" horiz-adv-x="2001" vert-adv-y="2457"
d="M613 1352l388 -387l387 387l166 -166l-387 -387l387 -388l-166 -166l-387 387l-388 -387l-166 166l388 387l-388 388z" />
    <glyph glyph-name="Yacute" unicode="&#xdd;" vert-adv-y="2457"
d="M894 624v-335q0 -119 12 -179q10 -50 45 -110h-537q35 59 45 110q12 60 12 179v335l-376 674q-79 140 -202 268h597q-13 -38 -13 -63q0 -63 56 -169l189 -361l187 361q49 93 49 158q0 30 -16 74h525q-60 -55 -99 -106q-52 -66 -127 -204zM912 2075l116 -229l-447 -176
l-65 127z" />
    <glyph glyph-name="Thorn" unicode="&#xde;" horiz-adv-x="1322" vert-adv-y="2457"
d="M611 342v-53q0 -119 12 -179q10 -50 44 -110h-536q34 59 45 110q11 61 12 179v988q-1 118 -12 179q-11 51 -45 110h536q-34 -59 -44 -110q-12 -60 -12 -179v-8h15q299 0 462 -118q167 -121 167 -339q0 -290 -292 -407q-131 -53 -352 -63zM611 569q94 5 146 61
q60 63 60 166q0 128 -87 189q-48 34 -119 41v-457z" />
    <glyph glyph-name="eth" unicode="&#xf0;" horiz-adv-x="1246" vert-adv-y="2457"
d="M732 1398l-160 -66l-59 145l157 64q-25 48 -58 95l179 74q49 -47 83 -87l141 57l60 -142l-113 -46q71 -129 128 -283q123 -331 123 -619q0 -279 -148 -435q-178 -187 -469 -187q-273 0 -429 185q-133 158 -133 388q0 255 165 413q96 92 237 138q111 36 232 36
q72 0 147 -19q-34 150 -83 289zM581 885q-54 0 -94 -31q-69 -52 -69 -177q0 -182 86 -344q65 -122 169 -122q63 0 103 40q53 54 53 172t-35 238q-66 224 -213 224z" />
    <glyph glyph-name="yacute" unicode="&#xfd;" horiz-adv-x="1133" vert-adv-y="2457"
d="M602 490l120 438q11 42 11 71q0 43 -23 97h439q-40 -37 -67 -86q-29 -57 -64 -162l-269 -806q-82 -245 -151 -341q-55 -77 -150 -77q-114 0 -221 63q67 63 127 189l60 142l-289 830q-50 145 -140 248h505q-21 -51 -21 -88q0 -36 21 -112zM774 1655l154 -205l-410 -251
l-86 113z" />
    <glyph glyph-name="thorn" unicode="&#xfe;" horiz-adv-x="1208" vert-adv-y="2457"
d="M491 0v-55q0 -121 12 -179q11 -53 44 -110h-489q34 59 45 110q11 61 12 179v1343q0 99 -14 149q-14 46 -43 90l480 133q-26 -82 -35 -139q-12 -72 -12 -199v-319l109 90q76 35 147 35q175 0 295 -133q125 -138 125 -371q0 -290 -170 -460q-113 -113 -272 -145
q-93 -18 -234 -19zM491 244q50 -17 87 -17q205 0 205 325q0 302 -174 302q-61 0 -118 -28v-582z" />
    <glyph glyph-name="Amacron" unicode="&#x100;" horiz-adv-x="1586" vert-adv-y="2457"
d="M1015 421h-478l-73 -183q-31 -77 -31 -132q0 -43 29 -106h-538q43 39 69 74q52 72 104 199l541 1293h293l594 -1328q60 -132 91 -175q20 -27 53 -63h-592q39 60 39 119q0 60 -38 152zM892 719l-126 315l-118 -315h244zM1119 1918v-173h-653v173h653z" />
    <glyph glyph-name="amacron" unicode="&#x101;" horiz-adv-x="1020" vert-adv-y="2457"
d="M583 0v57l-67 -57q-86 -31 -169 -31q-148 0 -236 64q-53 39 -86 104q-32 65 -32 136q0 119 75 206q40 46 98 76q65 34 154 67l263 98v5q0 63 -10 98q-23 78 -144 78q-124 0 -387 -125l89 320q178 32 355 32q284 0 391 -101q62 -60 76 -143q6 -35 6 -156v-439
q0 -119 12 -179q10 -50 44 -110h-432zM583 497h-175q-63 -58 -63 -133q0 -60 35 -96q39 -41 107 -41q54 0 96 34v236zM837 1454v-171h-653v171h653z" />
    <glyph glyph-name="Abreve" unicode="&#x102;" horiz-adv-x="1586" vert-adv-y="2457"
d="M1015 421h-478l-73 -183q-31 -77 -31 -132q0 -43 29 -106h-538q43 39 69 74q52 72 104 199l541 1293h293l594 -1328q60 -132 91 -175q20 -27 53 -63h-592q39 60 39 119q0 60 -38 152zM892 719l-126 315l-118 -315h244zM1046 2014h87q-5 -109 -53 -185q-92 -147 -268 -147
t-268 147q-47 76 -52 185h86q93 -142 234 -142t234 142z" />
    <glyph glyph-name="abreve" unicode="&#x103;" horiz-adv-x="1020" vert-adv-y="2457"
d="M583 0v57l-67 -57q-86 -31 -169 -31q-148 0 -236 64q-53 39 -86 104q-32 65 -32 136q0 119 75 206q40 46 98 76q65 34 154 67l263 98v5q0 63 -10 98q-23 78 -144 78q-124 0 -387 -125l89 320q178 32 355 32q284 0 391 -101q62 -60 76 -143q6 -35 6 -156v-439
q0 -119 12 -179q10 -50 44 -110h-432zM583 497h-175q-63 -58 -63 -133q0 -60 35 -96q39 -41 107 -41q54 0 96 34v236zM750 1576h87q-6 -110 -53 -185q-92 -147 -268 -147t-268 147q-47 76 -53 185h87q93 -142 234 -142t234 142z" />
    <glyph glyph-name="Aogonek" unicode="&#x104;" horiz-adv-x="1586" vert-adv-y="2457"
d="M1669 0q-164 -87 -164 -182q0 -45 32 -75q34 -31 80 -31q51 0 106 23v-147q-77 -29 -142 -29q-112 0 -180 55q-76 60 -76 156q0 131 184 230h-432q38 60 38 119q0 62 -38 152l-62 150h-479l-73 -183q-31 -79 -31 -132q0 -43 30 -106h-538q43 39 69 74q51 72 104 199
l541 1293h293l594 -1328q67 -147 112 -202q10 -13 32 -36zM892 719l-127 315l-117 -315h244z" />
    <glyph glyph-name="aogonek" unicode="&#x105;" horiz-adv-x="1020" vert-adv-y="2457"
d="M1016 0q-164 -87 -164 -182q0 -45 32 -75q34 -31 80 -31q51 0 106 23v-147q-77 -29 -142 -29q-112 0 -180 55q-76 60 -76 156q0 131 183 230h-272v57l-67 -57q-86 -31 -169 -31q-148 0 -236 64q-53 39 -86 104q-32 65 -32 136q0 119 75 206q40 46 98 76q65 34 154 67
l263 98v5q0 63 -10 98q-23 78 -144 78q-124 0 -387 -125l89 320q178 32 355 32q284 0 391 -101q62 -60 76 -143q6 -35 6 -156v-439q0 -159 25 -224q9 -24 32 -65zM583 497h-175q-63 -58 -63 -133q0 -60 35 -96q39 -41 107 -41q54 0 96 34v236z" />
    <glyph glyph-name="Cacute" unicode="&#x106;" horiz-adv-x="1473" vert-adv-y="2457"
d="M1364 1566l10 -409q-76 81 -143 118q-117 64 -250 64q-203 0 -340 -163q-131 -155 -131 -387q0 -239 120 -386q63 -77 156 -120q89 -40 188 -40q156 0 294 97q45 31 109 96l8 -392q-250 -83 -489 -83q-371 0 -594 215q-230 221 -230 574q0 255 121 461q128 219 362 316
q186 78 426 78q218 0 383 -39zM1093 2075l116 -229l-447 -176l-65 127z" />
    <glyph glyph-name="cacute" unicode="&#x107;" horiz-adv-x="982" vert-adv-y="2457"
d="M932 1096v-331q-73 66 -123 92q-86 44 -170 44q-99 0 -161 -73q-67 -79 -67 -215q0 -127 52 -232q75 -154 239 -154q120 0 284 82l-101 -293q-153 -48 -308 -48q-257 0 -406 152q-144 147 -144 391q0 314 220 481q180 136 449 136q137 0 236 -32zM776 1655l154 -205
l-410 -251l-86 113z" />
    <glyph glyph-name="Ccaron" unicode="&#x10c;" horiz-adv-x="1473" vert-adv-y="2457"
d="M1364 1566l10 -409q-76 81 -143 118q-117 64 -250 64q-203 0 -340 -163q-131 -155 -131 -387q0 -239 120 -386q63 -77 156 -120q89 -40 188 -40q156 0 294 97q45 31 109 96l8 -392q-250 -83 -489 -83q-371 0 -594 215q-230 221 -230 574q0 255 121 461q128 219 362 316
q186 78 426 78q218 0 383 -39zM893 1669l-350 340l68 81l282 -167l282 167l68 -81z" />
    <glyph glyph-name="ccaron" unicode="&#x10d;" horiz-adv-x="982" vert-adv-y="2457"
d="M932 1096v-331q-73 66 -123 92q-86 44 -170 44q-99 0 -161 -73q-67 -79 -67 -215q0 -127 52 -232q75 -154 239 -154q120 0 284 82l-101 -293q-153 -48 -308 -48q-257 0 -406 152q-144 147 -144 391q0 314 220 481q180 136 449 136q137 0 236 -32zM584 1199l-349 340
l68 81l281 -167l282 167l68 -81z" />
    <glyph glyph-name="Dcaron" unicode="&#x10e;" horiz-adv-x="1586" vert-adv-y="2457"
d="M93 1566h555q318 0 505 -100q189 -101 293 -289q94 -171 94 -380q0 -256 -138 -457q-79 -115 -196 -196q-140 -96 -332 -124q-131 -20 -298 -20h-476q32 56 43 110q10 57 10 179v988q0 114 -14 179q-11 51 -46 110zM576 243q219 13 340 112q185 150 185 439
q0 191 -85 322q-89 139 -261 184q-68 18 -179 23v-1080zM683 1669l-349 340l67 81l282 -167l282 167l68 -81z" />
    <glyph glyph-name="dcaron" unicode="&#x10f;" horiz-adv-x="1624" vert-adv-y="2457"
d="M790 0v74l-118 -90q-64 -15 -122 -15q-204 0 -329 148q-114 134 -114 360q0 223 104 375q132 193 358 233q61 10 145 11h76v191q0 100 -14 150q-13 45 -43 90l480 133q-26 -82 -35 -139q-12 -72 -12 -200v-1032q0 -119 12 -179q10 -50 44 -110h-432zM790 838
q-39 31 -92 31q-80 0 -130 -64q-77 -98 -77 -283q0 -157 63 -225q49 -54 130 -54q53 0 106 27v568zM1317 1644h247q-3 -111 -37 -206q-39 -107 -103 -158h-164q61 126 61 289q0 31 -4 75z" />
    <glyph glyph-name="Dslash" unicode="&#x110;" horiz-adv-x="1662" vert-adv-y="2457"
d="M214 657h-91v266h91v354q0 113 -14 179q-11 51 -46 110h555q318 0 505 -100q190 -101 293 -289q94 -171 94 -380q0 -255 -137 -456q-80 -116 -197 -197q-140 -96 -332 -124q-130 -20 -298 -20h-476q32 57 43 110q10 57 10 179v368zM637 657v-414q220 14 340 112
q185 150 185 439q0 191 -84 322q-90 139 -261 184q-69 18 -180 23v-400h247v-266h-247z" />
    <glyph glyph-name="dmacron" unicode="&#x111;" horiz-adv-x="1208" vert-adv-y="2457"
d="M722 1189h-271v188h269q-9 81 -54 150l479 134q-42 -132 -46 -273v-11h87v-188h-88v-900q0 -119 12 -179q11 -50 45 -110h-433v74l-118 -90q-64 -15 -122 -15q-204 0 -329 148q-114 135 -114 361q0 222 104 375q167 244 503 244l42 -1h34v93zM722 838q-39 32 -92 32
q-80 0 -130 -64q-77 -98 -77 -284q0 -157 63 -225q49 -54 130 -54q52 0 106 27v568z" />
    <glyph glyph-name="Emacron" unicode="&#x112;" horiz-adv-x="1246" vert-adv-y="2457"
d="M587 923h541l-171 -385q-52 45 -113 73q-108 48 -211 46h-46v-391h80q210 0 362 38q103 25 220 78l-168 -382h-974q34 59 45 110q11 61 12 179v988q-1 118 -12 179q-11 51 -45 110h1055l-153 -386q-123 119 -339 120h-83v-377zM950 1918v-173h-653v173h653z" />
    <glyph glyph-name="emacron" unicode="&#x113;" horiz-adv-x="1057" vert-adv-y="2457"
d="M1058 471h-659q45 -229 279 -229q152 0 375 107l-101 -299q-78 -40 -146 -56q-109 -26 -240 -26q-299 0 -444 173q-125 148 -125 376q0 219 112 379q162 232 477 232q237 0 356 -136q69 -79 93 -178q25 -104 25 -231q0 -37 -2 -112zM682 729q0 55 -17 92q-37 80 -119 80
q-71 0 -116 -67q-26 -38 -35 -105h287zM886 1454v-171h-652v171h652z" />
    <glyph glyph-name="Edot" unicode="&#x116;" horiz-adv-x="1246" vert-adv-y="2457"
d="M587 923h541l-171 -385q-52 45 -113 73q-108 48 -211 46h-46v-391h80q210 0 362 38q103 25 220 78l-168 -382h-974q34 59 45 110q11 61 12 179v988q-1 118 -12 179q-11 51 -45 110h1055l-153 -386q-123 119 -339 120h-83v-377zM621 2036q78 0 133 -55q55 -54 55 -134
q0 -75 -55 -130t-133 -55q-77 0 -131 55q-55 55 -55 132q0 79 55 132q56 55 131 55z" />
    <glyph glyph-name="edot" unicode="&#x117;" horiz-adv-x="1057" vert-adv-y="2457"
d="M1058 471h-659q45 -229 279 -229q152 0 375 107l-101 -299q-78 -40 -146 -56q-109 -26 -240 -26q-299 0 -444 173q-125 148 -125 376q0 219 112 379q162 232 477 232q237 0 356 -136q69 -79 93 -178q25 -104 25 -231q0 -37 -2 -112zM682 729q0 55 -17 92q-37 80 -119 80
q-71 0 -116 -67q-26 -38 -35 -105h287zM559 1602q77 0 132 -55q55 -54 55 -134q0 -75 -55 -130q-54 -55 -132 -55q-77 0 -132 55t-55 132q0 79 55 132q56 55 132 55z" />
    <glyph glyph-name="Eogonek" unicode="&#x118;" horiz-adv-x="1246" vert-adv-y="2457"
d="M1080 0q-163 -87 -163 -182q0 -45 32 -75q33 -31 80 -31q50 0 106 23v-147q-77 -29 -143 -29q-112 0 -180 55q-75 60 -75 156q0 131 183 230h-813q34 59 45 110q11 61 12 179v988q-1 118 -12 179q-11 51 -45 110h1055l-154 -386q-122 119 -338 120h-83v-377h541
l-171 -385q-52 45 -113 73q-108 48 -211 46h-46v-391h80q210 0 362 38q103 25 220 78z" />
    <glyph glyph-name="eogonek" unicode="&#x119;" horiz-adv-x="1057" vert-adv-y="2457"
d="M1058 471h-659q44 -229 279 -229q152 0 375 107l-100 -299q-21 -10 -64 -30q-83 -39 -133 -88q-59 -58 -59 -114q0 -45 33 -75q33 -31 79 -31q51 0 106 23v-147q-77 -29 -142 -29q-112 0 -180 55q-76 60 -76 156q0 111 135 202q-49 -4 -85 -4q-209 0 -334 76
q-131 80 -192 231q-44 110 -44 242q0 219 112 379q162 232 477 232q237 0 356 -136q69 -79 93 -178q25 -104 25 -231q0 -38 -2 -112zM682 729q0 55 -17 92q-37 80 -119 80q-71 0 -116 -67q-26 -38 -35 -105h287z" />
    <glyph glyph-name="Ecaron" unicode="&#x11a;" horiz-adv-x="1246" vert-adv-y="2457"
d="M587 923h541l-171 -385q-52 45 -113 73q-108 48 -211 46h-46v-391h80q210 0 362 38q103 25 220 78l-168 -382h-974q34 59 45 110q11 61 12 179v988q-1 118 -12 179q-11 51 -45 110h1055l-153 -386q-123 119 -339 120h-83v-377zM639 1669l-350 340l68 81l282 -167l281 167
l68 -81z" />
    <glyph glyph-name="ecaron" unicode="&#x11b;" horiz-adv-x="1057" vert-adv-y="2457"
d="M1058 471h-659q45 -229 279 -229q152 0 375 107l-101 -299q-78 -40 -146 -56q-109 -26 -240 -26q-299 0 -444 173q-125 148 -125 376q0 219 112 379q162 232 477 232q237 0 356 -136q69 -79 93 -178q25 -104 25 -231q0 -37 -2 -112zM682 729q0 55 -17 92q-37 80 -119 80
q-71 0 -116 -67q-26 -38 -35 -105h287zM560 1199l-350 340l68 81l282 -167l282 167l67 -81z" />
    <glyph glyph-name="Gbreve" unicode="&#x11e;" horiz-adv-x="1586" vert-adv-y="2457"
d="M1422 1530l8 -425q-97 89 -168 134q-158 100 -334 100q-187 0 -315 -121q-159 -150 -159 -402q0 -180 82 -323q105 -185 329 -234q74 -16 149 -16q14 0 42 2q18 2 34 3v294q0 119 -12 179q-10 51 -45 110h536q-32 -57 -44 -110q-12 -59 -12 -179v-227q1 -176 40 -251
q-311 -103 -633 -103q-424 0 -670 240q-234 227 -234 586q0 408 299 638q233 180 591 180q300 0 516 -75zM1105 2014h87q-6 -109 -53 -185q-92 -147 -268 -147t-268 147q-47 76 -53 185h87q93 -142 234 -142t234 142z" />
    <glyph glyph-name="gbreve" unicode="&#x11f;" horiz-adv-x="1133" vert-adv-y="2457"
d="M1141 1049v-239h-128q15 -53 15 -92q0 -115 -74 -216q-122 -167 -412 -167l-57 1h-28q-4 -14 -4 -19q0 -17 18 -23q18 -7 66 -10l191 -11q180 -11 264 -79t84 -193q0 -142 -95 -234q-148 -143 -528 -143q-230 0 -351 77q-79 51 -79 115q0 56 95 136l68 55
q-132 41 -132 149q0 51 29 93q18 26 66 66l105 69q-212 113 -212 339q0 141 89 248q131 156 398 156q190 0 317 -78h295zM525 900q-100 0 -100 -144q0 -81 29 -136q31 -58 89 -58q44 0 70 33q31 38 31 110q0 109 -50 164q-28 31 -69 31zM404 -7q-14 -14 -14 -31
q0 -33 25 -54q47 -41 147 -41q69 0 112 22q33 18 33 44q0 51 -102 54zM785 1576h87q-6 -109 -53 -185q-92 -147 -268 -147t-268 147q-47 75 -53 185h87q93 -142 234 -142t234 142z" />
    <glyph glyph-name="Gcedilla" unicode="&#x122;" horiz-adv-x="1586" vert-adv-y="2457"
d="M1422 1530l8 -425q-97 89 -168 134q-158 100 -334 100q-187 0 -315 -121q-159 -150 -159 -402q0 -180 82 -323q105 -185 329 -234q74 -16 149 -16q14 0 42 2q18 2 34 3v294q0 119 -12 179q-10 51 -45 110h536q-32 -57 -44 -110q-12 -59 -12 -179v-227q1 -176 40 -251
q-311 -103 -633 -103q-424 0 -670 240q-234 227 -234 586q0 408 299 638q233 180 591 180q300 0 516 -75zM764 -141h259q-3 -116 -39 -216q-42 -113 -108 -166h-173q65 133 65 304q0 32 -4 78z" />
    <glyph glyph-name="gcedilla" unicode="&#x123;" horiz-adv-x="1133" vert-adv-y="2457"
d="M1141 1049v-239h-128q15 -53 15 -92q0 -115 -74 -216q-122 -167 -412 -167l-57 1h-28q-4 -14 -4 -19q0 -17 18 -23q18 -7 66 -10l191 -11q180 -11 264 -79t84 -193q0 -142 -95 -234q-148 -143 -528 -143q-230 0 -351 77q-79 51 -79 115q0 56 95 136l68 55
q-132 41 -132 149q0 51 29 93q18 26 66 66l105 69q-212 113 -212 339q0 141 89 248q131 156 398 156q190 0 317 -78h295zM525 900q-100 0 -100 -144q0 -81 29 -136q31 -58 89 -58q44 0 70 33q31 38 31 110q0 109 -50 164q-28 31 -69 31zM404 -7q-14 -14 -14 -31
q0 -33 25 -54q47 -41 147 -41q69 0 112 22q33 18 33 44q0 51 -102 54zM677 1233h-247q3 111 37 206q39 108 103 158h165q-62 -125 -62 -290q0 -33 4 -74z" />
    <glyph glyph-name="Itilde" unicode="&#x128;" horiz-adv-x="786" vert-adv-y="2457"
d="M661 0h-537q34 60 45 110q12 60 12 179v988q0 119 -12 179q-11 51 -45 110h537q-34 -59 -45 -110q-12 -60 -12 -179v-988q0 -119 12 -179q11 -50 45 -110zM97 1729h-87q15 102 58 163q67 97 171 97q32 0 61 -9q26 -8 92 -31l113 -40q61 -22 103 -22q41 0 61 32
q7 12 20 44h87q-7 -90 -44 -149q-69 -107 -187 -107q-64 0 -152 33l-112 43q-67 26 -101 26q-38 0 -60 -31q-10 -15 -23 -49z" />
    <glyph glyph-name="itilde" unicode="&#x129;" horiz-adv-x="646" vert-adv-y="2457"
d="M568 0h-490q35 59 45 110q12 61 12 179v518q0 118 -12 179q-10 51 -45 110h490q-33 -58 -45 -110q-12 -58 -12 -179v-518q0 -121 12 -179q12 -52 45 -110zM43 1291h-87q16 101 58 162q68 97 171 97q41 0 153 -40l113 -40q62 -22 104 -22q40 0 60 32q7 13 20 44h87
q-7 -90 -44 -148q-69 -108 -186 -108q-65 0 -153 34l-112 43q-66 25 -100 25q-39 0 -61 -31q-10 -15 -23 -48z" />
    <glyph glyph-name="Imacron" unicode="&#x12a;" horiz-adv-x="793" vert-adv-y="2457"
d="M664 0h-536q34 60 45 110q12 60 12 179v988q0 119 -12 179q-11 51 -45 110h536q-32 -57 -44 -110q-12 -59 -12 -179v-988q0 -120 12 -179q12 -53 44 -110zM723 1918v-173h-653v173h653z" />
    <glyph glyph-name="imacron" unicode="&#x12b;" horiz-adv-x="604" vert-adv-y="2457"
d="M547 0h-489q34 59 44 110q12 60 12 179v518q0 119 -12 179q-10 50 -44 110h489q-33 -57 -45 -110q-12 -59 -12 -179v-518q0 -120 12 -179q12 -53 45 -110zM629 1454v-171h-653v171h653z" />
    <glyph glyph-name="Iogonek" unicode="&#x12e;" horiz-adv-x="793" vert-adv-y="2457"
d="M504 0h-376q34 60 45 110q11 60 12 179v988q-1 119 -12 179q-11 51 -45 110h536q-34 -59 -44 -110q-12 -61 -12 -179v-988q-1 -156 24 -224q10 -27 32 -65q-164 -87 -164 -182q0 -45 33 -75q33 -31 79 -31q51 0 106 23v-147q-77 -29 -142 -29q-112 0 -180 55
q-75 60 -75 156q0 131 183 230z" />
    <glyph glyph-name="iogonek" unicode="&#x12f;" horiz-adv-x="604" vert-adv-y="2457"
d="M546 0q-164 -87 -164 -182q0 -45 33 -75q33 -31 79 -31q51 0 106 23v-147q-77 -29 -142 -29q-112 0 -180 55q-75 60 -75 156q0 131 183 230h-329q34 59 45 110q11 61 12 179v518q-1 118 -12 179q-11 51 -45 110h489q-33 -58 -45 -110q-11 -58 -11 -179v-518
q-1 -155 24 -224q10 -27 32 -65zM300 1568q102 0 173 -62q70 -62 70 -152q0 -85 -70 -147q-71 -62 -172 -62t-172 62q-70 62 -70 150t70 149q73 62 171 62z" />
    <glyph glyph-name="Idotaccent" unicode="&#x130;" horiz-adv-x="793" vert-adv-y="2457"
d="M664 0h-536q34 60 45 110q11 60 12 179v988q-1 119 -12 179q-11 51 -45 110h536q-34 -59 -44 -110q-12 -60 -12 -179v-988q0 -119 12 -179q10 -50 44 -110zM394 2036q78 0 133 -55t55 -134q0 -75 -55 -130t-132 -55q-78 0 -133 55t-55 132q0 78 55 132q57 55 132 55z" />
    <glyph glyph-name="IJ" unicode="&#x132;" horiz-adv-x="1813" vert-adv-y="2457"
d="M661 0h-536q34 60 45 110q11 60 12 179v988q-1 119 -12 179q-11 51 -45 110h536q-34 -59 -44 -110q-12 -60 -12 -179v-988q0 -119 12 -179q10 -50 44 -110zM931 1566h756q-34 -60 -44 -110q-12 -60 -12 -179v-947q0 -230 -45 -336q-68 -157 -256 -287q-121 -83 -210 -83
q-128 0 -266 116q164 76 279 239q55 82 67 167q7 50 8 184v954h-64q-138 0 -240 -36q-60 -22 -89 -43q-13 -8 -50 -42z" />
    <glyph glyph-name="ij" unicode="&#x133;" horiz-adv-x="1343" vert-adv-y="2457"
d="M567 0h-489q34 59 45 110q11 61 12 179v518q-1 118 -12 179q-11 51 -45 110h489q-33 -58 -44 -110q-12 -58 -12 -179v-518q0 -121 12 -179q11 -52 44 -110zM321 1568q102 0 173 -62q70 -62 70 -152q0 -85 -70 -147q-71 -62 -172 -62t-172 62q-70 62 -70 150t70 149
q73 62 171 62zM671 -310q63 51 97 113q61 111 64 327v677q-1 118 -12 179q-11 51 -45 110h489q-34 -59 -44 -110q-12 -61 -12 -179v-675q0 -237 -94 -373q-93 -135 -225 -135q-107 0 -218 66zM1017 1568q102 0 173 -62t71 -152q0 -85 -71 -147t-172 -62t-171 62
q-71 62 -71 150t71 149q72 62 170 62z" />
    <glyph glyph-name="Kcedilla" unicode="&#x136;" horiz-adv-x="1511" vert-adv-y="2457"
d="M852 881l456 -595q137 -179 280 -286h-679q16 35 16 65q0 57 -44 118l-344 470v-364q0 -119 12 -179q10 -50 44 -110h-536q34 59 45 110q11 61 12 179v988q-1 118 -12 179q-11 51 -45 110h536q-34 -60 -44 -110q-12 -60 -12 -179v-313l305 414q40 53 40 105q0 37 -22 83
h561q-56 -44 -85 -72q-41 -38 -102 -118zM652 -141h260q-3 -116 -40 -216q-41 -114 -108 -166h-172q65 133 65 303q0 35 -5 79z" />
    <glyph glyph-name="kcedilla" unicode="&#x137;" horiz-adv-x="1284" vert-adv-y="2457"
d="M551 387v-98q0 -119 12 -179q10 -50 44 -110h-489q34 59 45 110q11 61 12 179v998q0 100 -14 150q-14 45 -43 90l480 133q-26 -82 -35 -140q-12 -72 -12 -199v-586l149 195q39 50 39 105q0 28 -17 61h520q-86 -68 -184 -187l-233 -284l245 -378q87 -134 121 -176
q28 -33 77 -71h-546q8 25 8 39q0 58 -58 152zM538 -125h247q-4 -111 -38 -206q-38 -107 -103 -158h-164q62 127 62 290q0 29 -4 74z" />
    <glyph glyph-name="kgreenlandic" unicode="&#x138;" horiz-adv-x="1205" vert-adv-y="2457"
d="M510 738l150 192q39 49 39 105q0 28 -17 61h520q-87 -68 -184 -187l-233 -284l245 -378q87 -134 121 -176q28 -33 77 -71h-546q8 24 8 39q0 58 -58 152l-122 197v-99q1 -121 12 -179q12 -52 45 -110h-489q34 59 45 110q11 61 12 179v518q-1 118 -12 179q-11 51 -45 110
h489q-33 -58 -45 -110q-11 -58 -12 -179v-69z" />
    <glyph glyph-name="Lacute" unicode="&#x139;" horiz-adv-x="1171" vert-adv-y="2457"
d="M994 0h-917q34 60 45 110q11 60 12 179v988q-1 119 -12 179q-11 51 -45 110h536q-34 -60 -44 -110q-12 -60 -12 -179v-995h137q203 0 314 39q66 23 150 83zM692 2075l116 -229l-447 -176l-65 127z" />
    <glyph glyph-name="lacute" unicode="&#x13a;" horiz-adv-x="604" vert-adv-y="2457"
d="M547 0h-489q34 59 45 110q11 61 12 179v998q0 100 -14 150q-14 45 -43 90l480 133q-26 -82 -35 -139q-12 -72 -12 -200v-1032q0 -119 12 -179q10 -50 44 -110zM534 2075l116 -229l-447 -176l-65 127z" />
    <glyph glyph-name="Lcedilla" unicode="&#x13b;" horiz-adv-x="1171" vert-adv-y="2457"
d="M994 0h-917q34 60 45 110q11 60 12 179v988q-1 119 -12 179q-11 50 -45 110h536q-34 -60 -44 -110q-12 -60 -12 -179v-995h137q203 0 314 39q66 23 150 83zM478 -141h260q-2 -113 -40 -216q-41 -113 -108 -166h-172q65 133 65 304q0 30 -5 78z" />
    <glyph glyph-name="lcedilla" unicode="&#x13c;" horiz-adv-x="604" vert-adv-y="2457"
d="M546 0h-489q34 59 45 110q11 61 12 179v998q0 100 -14 150q-14 45 -43 90l480 133q-26 -82 -35 -139q-12 -72 -12 -200v-1032q0 -119 12 -179q10 -50 44 -110zM199 -125h247q-4 -112 -38 -206q-39 -107 -103 -158h-164q62 127 62 288q0 35 -4 76z" />
    <glyph glyph-name="Lcaron" unicode="&#x13d;" horiz-adv-x="1171" vert-adv-y="2457"
d="M994 0h-917q34 60 45 110q11 60 12 179v988q-1 119 -12 179q-11 51 -45 110h536q-34 -60 -44 -110q-12 -60 -12 -179v-995h137q203 0 314 39q66 23 150 83zM768 1566h259q-2 -113 -39 -216q-41 -113 -108 -166h-172q65 132 65 304q0 30 -5 78z" />
    <glyph glyph-name="lcaron" unicode="&#x13e;" horiz-adv-x="982" vert-adv-y="2457"
d="M596 0h-489q34 59 45 110q11 61 12 179v998q0 100 -14 150q-14 45 -43 90l480 133q-26 -82 -35 -139q-12 -72 -12 -200v-1032q0 -119 12 -179q10 -50 44 -110zM691 1644h247q-4 -111 -38 -206q-39 -107 -103 -158h-164q62 127 62 289q0 30 -4 75z" />
    <glyph glyph-name="Ldot" unicode="&#x13f;" horiz-adv-x="1269" vert-adv-y="2457"
d="M1042 0h-917q34 60 45 110q11 60 12 179v988q-1 119 -12 179q-11 51 -45 110h536q-34 -60 -44 -110q-12 -60 -12 -179v-995h137q203 0 314 39q66 23 150 83zM918 1036q78 0 133 -55q55 -54 55 -134q0 -75 -55 -130t-132 -55q-78 0 -132 55q-56 55 -56 132q0 79 56 132
q56 55 131 55z" />
    <glyph glyph-name="ldot" unicode="&#x140;" horiz-adv-x="955" vert-adv-y="2457"
d="M567 0h-489q34 59 45 110q11 61 12 179v998q0 100 -14 150q-14 45 -43 90l480 133q-26 -82 -35 -139q-12 -72 -12 -200v-1032q0 -119 12 -179q10 -50 44 -110zM819 973q78 0 133 -55q55 -54 55 -134q0 -75 -55 -130t-132 -55q-78 0 -133 55t-55 132q0 79 55 132
q57 55 132 55z" />
    <glyph glyph-name="Lslash" unicode="&#x141;" horiz-adv-x="1284" vert-adv-y="2457"
d="M214 469l-97 -73v285l97 73v523q0 121 -12 179q-11 53 -44 110h536q-34 -59 -45 -110q-12 -61 -12 -179v-251l278 209v-285l-278 -209v-459h138q204 0 314 39q66 23 150 83l-164 -404h-917q33 57 44 110q12 58 12 179v180z" />
    <glyph glyph-name="lslash" unicode="&#x142;" horiz-adv-x="982" vert-adv-y="2457"
d="M303 630l-98 -74v232l98 74v425q0 84 -4 108q-13 72 -52 132l479 133q-26 -83 -35 -139q-12 -71 -12 -200v-254l98 74v-232l-98 -74v-546q0 -120 12 -179q10 -50 44 -110h-488q33 57 44 110q12 62 12 179v341z" />
    <glyph glyph-name="Nacute" unicode="&#x143;" horiz-adv-x="1737" vert-adv-y="2457"
d="M549 860v-571q1 -119 13 -179q10 -50 44 -110h-465q33 58 44 110q12 58 13 179v1068l-153 209h519q20 -70 70 -139l554 -750v600q-1 117 -13 179q-10 51 -44 110h465q-34 -59 -44 -110q-12 -61 -13 -179v-988q1 -118 13 -179q10 -51 44 -110h-454v10q0 26 -9 51
q-8 23 -48 78zM1100 2075l116 -229l-447 -176l-65 127z" />
    <glyph glyph-name="nacute" unicode="&#x144;" horiz-adv-x="1208" vert-adv-y="2457"
d="M501 1096v-99l85 91q76 40 166 40q162 0 253 -88q53 -52 68 -123q14 -68 14 -157v-471q1 -118 13 -179q10 -51 44 -110h-489q34 60 45 110q11 59 11 179v437q0 128 -100 128q-48 0 -110 -34v-531q0 -119 12 -179q10 -50 44 -110h-489q34 59 45 110q11 61 12 179v518
q-1 118 -12 179q-11 51 -45 110h433zM873 1655l154 -205l-409 -251l-86 113z" />
    <glyph glyph-name="Ncedilla" unicode="&#x145;" horiz-adv-x="1737" vert-adv-y="2457"
d="M549 860v-571q1 -119 13 -179q10 -50 44 -110h-465q33 58 44 110q12 58 13 179v1068l-153 209h519q20 -70 70 -140l554 -750v601q-1 117 -13 179q-10 51 -44 110h465q-34 -59 -44 -110q-12 -61 -13 -179v-988q1 -118 13 -179q10 -51 44 -110h-454v10q0 26 -9 51
q-8 23 -48 78zM761 -141h259q-3 -116 -39 -216q-41 -113 -108 -166h-173q65 132 65 304q0 33 -4 78z" />
    <glyph glyph-name="ncedilla" unicode="&#x146;" horiz-adv-x="1208" vert-adv-y="2457"
d="M501 1096v-99l85 91q76 40 166 40q162 0 253 -88q53 -51 68 -123q14 -68 14 -157v-471q1 -118 13 -179q10 -51 44 -110h-489q34 60 45 110q11 59 11 179v437q0 128 -100 128q-47 0 -110 -34v-531q0 -119 12 -179q10 -50 44 -110h-489q34 59 45 110q11 61 12 179v518
q-1 118 -12 179q-11 51 -45 110h433zM501 -125h247q-3 -111 -37 -206q-39 -107 -103 -158h-164q62 126 62 290q0 31 -5 74z" />
    <glyph glyph-name="Ncaron" unicode="&#x147;" horiz-adv-x="1737" vert-adv-y="2457"
d="M549 860v-571q1 -119 13 -179q10 -50 44 -110h-465q33 58 44 110q12 58 13 179v1068l-153 209h519q20 -70 70 -139l554 -750v600q-1 117 -13 179q-10 51 -44 110h465q-34 -59 -44 -110q-12 -61 -13 -179v-988q1 -118 13 -179q10 -51 44 -110h-454v10q0 26 -9 51
q-8 23 -48 78zM884 1669l-350 340l68 81l282 -167l282 167l68 -81z" />
    <glyph glyph-name="ncaron" unicode="&#x148;" horiz-adv-x="1208" vert-adv-y="2457"
d="M501 1096v-99l85 91q76 40 166 40q162 0 253 -88q53 -52 68 -123q14 -68 14 -157v-471q1 -118 13 -179q10 -51 44 -110h-489q34 60 45 110q11 59 11 179v437q0 128 -100 128q-48 0 -110 -34v-531q0 -119 12 -179q10 -50 44 -110h-489q34 59 45 110q11 61 12 179v518
q-1 118 -12 179q-11 51 -45 110h433zM650 1199l-349 340l68 81l281 -167l282 167l68 -81z" />
    <glyph glyph-name="napostrophe" unicode="&#x149;" horiz-adv-x="1388" vert-adv-y="2457"
d="M670 1096v-99l85 91q76 40 167 40q161 0 253 -88q53 -52 68 -123q14 -68 14 -157v-471q0 -118 12 -179q11 -51 45 -110h-489q34 59 44 110q12 60 12 179v437q0 128 -101 128q-47 0 -110 -34v-531q0 -119 12 -179q10 -51 44 -110h-488q34 59 44 110q12 61 12 179v518
q0 118 -12 179q-10 51 -44 110h432zM17 1457h247q-3 -111 -38 -206q-39 -107 -103 -158h-164q62 125 62 289q0 31 -4 75z" />
    <glyph glyph-name="Eng" unicode="&#x14a;" horiz-adv-x="1706" vert-adv-y="2457"
d="M855 -394q101 55 182 146q110 124 110 207q0 73 -78 180l-536 721v-571q1 -119 13 -179q10 -50 44 -110h-465q33 58 44 110q12 58 13 179v1068l-153 209h519q20 -70 70 -139l554 -750v600q-1 117 -13 179q-10 51 -44 110h465q-34 -59 -44 -110q-12 -61 -13 -179v-1081
q0 -230 -38 -335q-59 -159 -219 -287q-105 -84 -182 -84q-110 0 -229 116z" />
    <glyph glyph-name="eng" unicode="&#x14b;" horiz-adv-x="1229" vert-adv-y="2457"
d="M562 -310q63 51 97 113q60 111 62 327v596q0 128 -100 128q-47 0 -110 -34v-531q0 -120 11 -179q11 -50 45 -110h-489q34 59 45 110q11 61 12 179v518q-1 118 -12 179q-11 51 -45 110h433v-99l85 91q76 40 166 40q162 0 253 -88q53 -51 68 -123q14 -68 14 -157v-627
q0 -238 -93 -374q-93 -135 -225 -135q-107 0 -217 66z" />
    <glyph glyph-name="Omacron" unicode="&#x14c;" horiz-adv-x="1850" vert-adv-y="2457"
d="M957 1605q364 0 587 -218q235 -229 235 -610q0 -363 -256 -594q-247 -223 -628 -223q-406 0 -631 257q-193 221 -193 548q0 252 121 449q128 210 374 315q177 76 391 76zM898 1338q-166 0 -276 -119q-113 -123 -113 -350q0 -242 101 -426q56 -101 150 -161
q88 -56 196 -56q180 0 292 147q93 123 93 314q0 270 -118 465q-113 186 -325 186zM1251 1918v-173h-652v173h652z" />
    <glyph glyph-name="omacron" unicode="&#x14d;" horiz-adv-x="1246" vert-adv-y="2457"
d="M664 1128q256 0 407 -165q142 -156 142 -413q0 -274 -196 -439q-169 -143 -421 -143q-273 0 -429 185q-133 158 -133 388q0 259 165 413q188 174 465 174zM580 885q-53 0 -93 -31q-69 -52 -69 -177q0 -182 86 -344q65 -122 169 -122q64 0 103 40q53 55 53 165
q0 111 -42 244q-72 225 -207 225zM965 1454v-171h-652v171h652z" />
    <glyph glyph-name="Odblacute" unicode="&#x150;" horiz-adv-x="1850" vert-adv-y="2457"
d="M957 1605q364 0 587 -218q235 -229 235 -610q0 -363 -256 -594q-247 -223 -628 -223q-406 0 -631 257q-193 221 -193 548q0 252 121 449q128 210 374 315q177 76 391 76zM898 1338q-166 0 -276 -119q-113 -123 -113 -350q0 -242 101 -426q56 -101 150 -161
q88 -56 196 -56q180 0 292 147q93 123 93 314q0 270 -118 465q-113 186 -325 186zM976 2141l151 -188l-401 -265l-80 98zM1401 2125l151 -187l-400 -266l-80 99z" />
    <glyph glyph-name="odblacute" unicode="&#x151;" horiz-adv-x="1246" vert-adv-y="2457"
d="M664 1128q256 0 407 -165q142 -156 142 -413q0 -274 -196 -439q-169 -143 -421 -143q-273 0 -429 185q-133 158 -133 388q0 259 165 413q188 174 465 174zM580 885q-53 0 -93 -31q-69 -52 -69 -177q0 -182 86 -344q65 -122 169 -122q64 0 103 40q53 55 53 165
q0 111 -42 244q-72 225 -207 225zM609 1700l176 -165l-360 -318l-93 86zM979 1684l176 -164l-360 -319l-93 86z" />
    <glyph glyph-name="Racute" unicode="&#x154;" horiz-adv-x="1435" vert-adv-y="2457"
d="M587 615v-326q0 -119 12 -179q10 -50 44 -110h-536q34 60 45 110q11 60 12 179v988q-1 119 -12 179q-11 50 -45 110h493q228 0 347 -44q144 -52 222 -172q68 -107 68 -233q0 -157 -96 -269q-54 -63 -172 -124l42 -56l208 -284l217 -296l32 -43q-132 -84 -241 -84
q-65 0 -131 44q-76 50 -185 191zM587 859q95 13 141 58q71 67 71 177q0 117 -81 172q-51 34 -131 34v-441zM886 2075l116 -229l-447 -176l-65 127z" />
    <glyph glyph-name="racute" unicode="&#x155;" horiz-adv-x="868" vert-adv-y="2457"
d="M507 1096v-79l87 79q59 32 117 32q88 0 185 -40l-111 -299q-90 81 -150 81q-46 0 -83 -32q-41 -36 -45 -122v-55v-372q0 -121 12 -179q11 -52 44 -110h-489q34 60 45 110q11 60 12 179v518q-1 119 -12 179q-11 50 -45 110h433zM643 1655l154 -205l-410 -251l-86 113z" />
    <glyph glyph-name="Rcedilla" unicode="&#x156;" horiz-adv-x="1435" vert-adv-y="2457"
d="M587 615v-326q0 -119 12 -179q10 -50 44 -110h-536q34 60 45 110q11 60 12 179v988q-1 119 -12 179q-11 50 -45 110h493q228 0 347 -44q144 -52 222 -172q68 -107 68 -233q0 -157 -96 -269q-54 -63 -172 -125l42 -56l208 -283l217 -296l32 -43q-132 -84 -241 -84
q-65 0 -131 44q-76 50 -185 191zM587 859q95 13 141 58q71 67 71 177q0 117 -81 172q-51 34 -131 34v-441zM609 -141h260q-2 -113 -39 -216q-42 -113 -109 -166h-172q65 132 65 304q0 33 -5 78z" />
    <glyph glyph-name="rcedilla" unicode="&#x157;" horiz-adv-x="868" vert-adv-y="2457"
d="M507 1096v-79l87 79q58 32 117 32q87 0 185 -40l-111 -299q-90 81 -150 81q-46 0 -83 -32q-41 -36 -45 -122v-55v-372q0 -121 12 -179q11 -53 44 -110h-489q34 59 45 110q11 60 12 179v518q-1 119 -12 179q-11 50 -45 110h433zM224 -125h247q-3 -111 -37 -206
q-39 -107 -103 -158h-165q61 126 61 290q0 31 -3 74z" />
    <glyph glyph-name="Rcaron" unicode="&#x158;" horiz-adv-x="1435" vert-adv-y="2457"
d="M587 615v-326q0 -119 12 -179q10 -50 44 -110h-536q34 60 45 110q11 60 12 179v988q-1 119 -12 179q-11 50 -45 110h493q228 0 347 -44q144 -52 222 -172q68 -107 68 -233q0 -157 -96 -269q-54 -63 -172 -124l42 -56l208 -284l217 -296l32 -43q-132 -84 -241 -84
q-65 0 -131 44q-76 50 -185 191zM587 859q95 13 141 58q71 67 71 177q0 117 -81 172q-51 34 -131 34v-441zM639 1669l-350 340l68 81l282 -167l281 167l68 -81z" />
    <glyph glyph-name="rcaron" unicode="&#x159;" horiz-adv-x="868" vert-adv-y="2457"
d="M507 1096v-79l87 79q59 32 117 32q88 0 185 -40l-111 -299q-90 81 -150 81q-46 0 -83 -32q-41 -36 -45 -122v-55v-372q0 -121 12 -179q11 -52 44 -110h-489q34 60 45 110q11 60 12 179v518q-1 119 -12 179q-11 50 -45 110h433zM436 1199l-350 340l68 81l282 -167l282 167
l67 -81z" />
    <glyph glyph-name="Sacute" unicode="&#x15a;" horiz-adv-x="1095" vert-adv-y="2457"
d="M991 1549v-420q-99 83 -163 121q-125 73 -235 73q-60 0 -106 -29q-54 -34 -54 -94q0 -64 82 -125q63 -46 199 -133q137 -88 173 -115q99 -78 141 -165q41 -87 41 -192q0 -159 -89 -292q-90 -134 -262 -183q-118 -34 -283 -34q-183 0 -377 52v435q101 -85 167 -125
q135 -80 247 -80q87 0 143 50q47 41 47 104q0 64 -55 109q-28 23 -154 104q-200 128 -238 160q-189 162 -189 371q0 157 97 279q147 185 487 185q206 0 381 -56zM826 2075l116 -229l-447 -176l-65 127z" />
    <glyph glyph-name="sacute" unicode="&#x15b;" horiz-adv-x="868" vert-adv-y="2457"
d="M801 1079v-326q-201 148 -318 148q-35 0 -58 -17q-30 -22 -30 -56q0 -27 19 -49q29 -35 137 -80q181 -77 249 -154q61 -69 61 -185q0 -119 -66 -212q-71 -102 -216 -149q-92 -30 -200 -30q-182 0 -364 68l7 331q251 -172 369 -172q60 0 86 35q17 22 17 48q0 44 -92 84
q-233 101 -304 189t-71 203q0 158 125 263q130 110 337 110q165 0 312 -49zM676 1655l154 -205l-409 -251l-86 113z" />
    <glyph glyph-name="Scedilla" unicode="&#x15e;" horiz-adv-x="1095" vert-adv-y="2457"
d="M601 -28l-87 -100q30 2 49 2q76 0 128 -38q55 -41 55 -120q0 -89 -67 -148q-68 -59 -185 -59q-83 0 -185 41l65 98q47 -22 91 -22q87 0 87 60q0 62 -100 62q-20 0 -42 -2l-50 100l100 115q-123 0 -205 11q-85 11 -197 41v435q101 -86 167 -125q135 -81 247 -81
q87 0 143 50q47 42 47 104q0 65 -55 110q-28 23 -154 103q-200 127 -238 161q-189 162 -189 371q0 157 97 279q147 185 487 185q205 0 381 -56v-420q-99 84 -163 121q-125 73 -235 73q-60 0 -106 -29q-54 -34 -54 -94q0 -64 82 -125q62 -46 199 -133q137 -88 173 -115
q99 -78 141 -165q41 -87 41 -192q0 -187 -115 -328q-113 -137 -353 -170z" />
    <glyph glyph-name="scedilla" unicode="&#x15f;" horiz-adv-x="868" vert-adv-y="2457"
d="M497 -21l-93 -107q30 2 49 2q77 0 129 -38q55 -41 55 -119q0 -89 -68 -149q-67 -59 -184 -59q-84 0 -186 41l65 98q46 -22 92 -22q87 0 87 60q0 63 -101 63q-17 0 -42 -3l-50 100l107 123q-192 7 -342 68l7 331q253 -172 369 -172q60 0 86 35q17 22 17 48q0 44 -92 84
q-233 101 -304 189t-71 203q0 158 125 263q130 110 337 110q165 0 312 -49v-326q-201 148 -318 148q-35 0 -58 -17q-30 -22 -30 -56q0 -27 19 -49q29 -35 137 -80q181 -77 249 -154q61 -69 61 -187q0 -117 -66 -210q-90 -129 -298 -169z" />
    <glyph glyph-name="Scaron" unicode="&#x160;" horiz-adv-x="1095" vert-adv-y="2457"
d="M991 1549v-420q-99 83 -163 121q-125 73 -235 73q-60 0 -106 -29q-54 -34 -54 -94q0 -64 82 -125q63 -46 199 -133q137 -88 173 -115q99 -78 141 -165q41 -87 41 -192q0 -159 -89 -292q-90 -134 -262 -183q-118 -34 -283 -34q-183 0 -377 52v435q101 -85 167 -125
q135 -80 247 -80q87 0 143 50q47 41 47 104q0 64 -55 109q-28 23 -154 104q-200 128 -238 160q-189 162 -189 371q0 157 97 279q147 185 487 185q206 0 381 -56zM610 1669l-349 340l68 81l281 -167l282 167l68 -81z" />
    <glyph glyph-name="scaron" unicode="&#x161;" horiz-adv-x="868" vert-adv-y="2457"
d="M801 1079v-326q-201 148 -318 148q-35 0 -58 -17q-30 -22 -30 -56q0 -27 19 -49q29 -35 137 -80q181 -77 249 -154q61 -69 61 -185q0 -119 -66 -212q-71 -102 -216 -149q-92 -30 -200 -30q-182 0 -364 68l7 331q251 -172 369 -172q60 0 86 35q17 22 17 48q0 44 -92 84
q-233 101 -304 189t-71 203q0 158 125 263q130 110 337 110q165 0 312 -49zM469 1199l-349 340l68 81l281 -167l282 167l68 -81z" />
    <glyph glyph-name="Tcedilla" unicode="&#x162;" horiz-adv-x="1284" vert-adv-y="2457"
d="M847 1307v-1018q0 -120 12 -179q12 -53 45 -110h-536q33 59 44 110q12 61 12 179v1011q-154 -3 -263 -26q-101 -21 -199 -74l115 366h1276l-112 -318q-145 58 -394 59zM542 -141h260q-4 -116 -40 -216q-41 -113 -108 -166h-172q65 133 65 299q0 40 -5 83z" />
    <glyph glyph-name="tcedilla" unicode="&#x163;" horiz-adv-x="831" vert-adv-y="2457"
d="M543 1425v-329h265v-239h-265v-489q0 -80 42 -112q39 -29 93 -29q87 0 227 89l-139 -285q-112 -55 -252 -55q-174 0 -268 93q-50 50 -64 112q-15 65 -15 166v510h-235q132 112 287 275q158 168 251 293h73zM324 -125h247q-3 -111 -38 -206q-39 -107 -103 -158h-164
q62 126 62 290q0 32 -4 74z" />
    <glyph glyph-name="Tcaron" unicode="&#x164;" horiz-adv-x="1284" vert-adv-y="2457"
d="M847 1308v-1019q0 -120 12 -179q12 -53 45 -110h-536q33 59 44 110q12 61 12 179v1011q-154 -3 -263 -25q-101 -22 -199 -74l115 365h1276l-112 -318q-145 58 -394 60zM665 1669l-349 340l67 81l282 -167l282 167l68 -81z" />
    <glyph glyph-name="tcaron" unicode="&#x165;" horiz-adv-x="1020" vert-adv-y="2457"
d="M592 1425v-329h265v-239h-265v-489q0 -80 42 -112q39 -29 93 -29q88 0 227 89l-139 -285q-112 -55 -252 -55q-174 0 -268 93q-50 50 -64 112q-15 65 -15 166v510h-235q131 112 287 275q158 169 251 293h73zM741 1644h247q-4 -112 -38 -206q-39 -107 -103 -158h-164
q62 126 62 288q0 36 -4 76z" />
    <glyph glyph-name="Tbar" unicode="&#x166;" horiz-adv-x="1422" vert-adv-y="2457"
d="M916 896h266v-173h-266v-434q0 -120 12 -179q11 -53 44 -110h-536q34 59 45 110q11 61 11 179v434h-284v173h284v404q-153 -3 -262 -25q-101 -22 -199 -74l115 365h1275l-111 -318q-145 58 -394 60v-412z" />
    <glyph glyph-name="tbar" unicode="&#x167;" horiz-adv-x="895" vert-adv-y="2457"
d="M575 712h265v-171h-265v-173q0 -141 136 -141q86 0 226 89l-138 -285q-113 -55 -253 -55q-174 0 -267 93q-51 50 -65 112q-15 65 -15 166v194h-153v171h153v145h-235q133 113 288 275q156 167 250 293h73v-329h265v-239h-265v-145z" />
    <glyph glyph-name="Utilde" unicode="&#x168;" horiz-adv-x="1678" vert-adv-y="2457"
d="M1072 0v84q-89 -56 -158 -82q-110 -41 -237 -41q-269 0 -404 156q-70 80 -85 175q-14 84 -14 223v762q-1 119 -12 179q-11 50 -45 110h536q-34 -60 -44 -110q-12 -60 -12 -179v-689q0 -124 15 -182q25 -87 92 -130q53 -33 115 -33q86 0 155 58q65 56 86 146q12 56 12 207
v623q0 118 -11 179q-11 51 -45 110h536q-34 -59 -44 -110q-12 -61 -12 -179v-988q0 -118 12 -179q10 -51 44 -110h-480zM543 1729h-88q16 102 58 163q68 97 171 97q40 0 153 -40l113 -40q62 -22 103 -22q42 0 61 32q8 12 20 44h87q-6 -90 -44 -149q-69 -107 -186 -107
q-65 0 -152 33l-112 43q-67 26 -102 26q-38 0 -59 -31q-11 -15 -23 -49z" />
    <glyph glyph-name="utilde" unicode="&#x169;" horiz-adv-x="1229" vert-adv-y="2457"
d="M716 0v99l-85 -91q-76 -40 -166 -40q-162 0 -253 88q-53 52 -68 123q-14 68 -14 157v471q-1 119 -12 179q-11 50 -45 110h489q-34 -58 -45 -110q-11 -61 -11 -179v-437q0 -128 100 -128q47 0 110 34v531q0 119 -12 179q-10 50 -44 110h489q-34 -58 -45 -110
q-11 -61 -12 -179v-518q1 -118 12 -179q11 -52 45 -110h-433zM331 1291h-87q15 101 58 162q67 97 171 97q41 0 152 -40l113 -40q62 -22 105 -22q30 0 46 15t34 61h86q-6 -90 -43 -148q-69 -108 -186 -108q-65 0 -153 34l-112 43q-67 25 -101 25q-38 0 -60 -31
q-10 -15 -23 -48z" />
    <glyph glyph-name="Umacron" unicode="&#x16a;" horiz-adv-x="1662" vert-adv-y="2457"
d="M1064 0v84q-89 -56 -158 -82q-110 -41 -237 -41q-269 0 -404 156q-70 80 -85 175q-14 84 -14 223v762q-1 119 -12 179q-11 50 -45 110h536q-34 -60 -44 -110q-12 -60 -12 -179v-689q0 -124 15 -182q25 -87 92 -130q53 -33 115 -33q86 0 155 58q65 56 86 146q12 56 12 207
v623q0 118 -11 179q-11 51 -45 110h536q-34 -59 -44 -110q-12 -61 -12 -179v-988q0 -118 12 -179q10 -51 44 -110h-480zM1156 1918v-173h-652v173h652z" />
    <glyph glyph-name="umacron" unicode="&#x16b;" horiz-adv-x="1208" vert-adv-y="2457"
d="M706 0v99l-85 -91q-76 -40 -166 -40q-162 0 -253 88q-53 52 -68 123q-14 68 -14 157v471q-1 119 -12 179q-11 50 -45 110h489q-34 -58 -45 -110q-11 -61 -11 -179v-437q0 -128 100 -128q47 0 110 34v531q0 119 -12 179q-10 50 -44 110h489q-34 -58 -45 -110
q-11 -61 -12 -179v-518q1 -118 12 -179q11 -52 45 -110h-433zM930 1454v-171h-653v171h653z" />
    <glyph glyph-name="Uring" unicode="&#x16e;" horiz-adv-x="1662" vert-adv-y="2457"
d="M1064 0v84q-89 -56 -158 -82q-110 -41 -237 -41q-269 0 -404 156q-70 80 -85 175q-14 84 -14 223v762q-1 119 -12 179q-11 50 -45 110h536q-34 -60 -44 -110q-12 -60 -12 -179v-689q0 -124 15 -182q25 -87 92 -130q53 -33 115 -33q86 0 155 58q65 56 86 146q12 56 12 207
v623q0 118 -11 179q-11 51 -45 110h536q-34 -59 -44 -110q-12 -61 -12 -179v-988q0 -118 12 -179q10 -51 44 -110h-480zM847 2111q102 0 162 -66q58 -63 58 -165q0 -110 -79 -176q-68 -57 -168 -57q-109 0 -172 74q-53 63 -53 155q0 104 66 165q75 70 186 70zM813 2014
q-65 0 -65 -83q0 -73 34 -138q26 -49 68 -49q64 0 64 82q0 73 -35 141q-25 47 -66 47z" />
    <glyph glyph-name="uring" unicode="&#x16f;" horiz-adv-x="1208" vert-adv-y="2457"
d="M706 0v99l-85 -91q-76 -40 -166 -40q-162 0 -253 88q-53 52 -68 123q-14 68 -14 157v471q-1 119 -12 179q-11 50 -45 110h489q-34 -58 -45 -110q-11 -61 -11 -179v-437q0 -128 100 -128q47 0 110 34v531q0 119 -12 179q-10 50 -44 110h489q-34 -58 -45 -110
q-11 -61 -12 -179v-518q1 -118 12 -179q11 -52 45 -110h-433zM620 1681q102 0 162 -66q57 -63 57 -165q0 -110 -78 -176q-68 -57 -169 -57q-109 0 -171 74q-54 63 -54 155q0 104 67 165q75 70 186 70zM586 1584q-65 0 -65 -83q0 -73 34 -138q27 -49 68 -49q64 0 64 83
q0 73 -36 140q-24 47 -65 47z" />
    <glyph glyph-name="Udblacute" unicode="&#x170;" horiz-adv-x="1662" vert-adv-y="2457"
d="M1064 0v84q-89 -56 -158 -82q-110 -41 -237 -41q-269 0 -404 156q-70 80 -85 175q-14 84 -14 223v762q-1 119 -12 179q-11 50 -45 110h536q-34 -60 -44 -110q-12 -60 -12 -179v-689q0 -124 15 -182q25 -87 92 -130q53 -33 115 -33q86 0 155 58q65 56 86 146q12 56 12 207
v623q0 118 -11 179q-11 51 -45 110h536q-34 -59 -44 -110q-12 -61 -12 -179v-988q0 -118 12 -179q10 -51 44 -110h-480zM881 2141l151 -188l-400 -265l-80 98zM1306 2125l151 -187l-400 -266l-80 99z" />
    <glyph glyph-name="udblacute" unicode="&#x171;" horiz-adv-x="1208" vert-adv-y="2457"
d="M706 0v99l-85 -91q-76 -40 -166 -40q-162 0 -253 88q-53 52 -68 123q-14 68 -14 157v471q-1 119 -12 179q-11 50 -45 110h489q-34 -58 -45 -110q-11 -61 -11 -179v-437q0 -128 100 -128q47 0 110 34v531q0 119 -12 179q-10 50 -44 110h489q-34 -58 -45 -110
q-11 -61 -12 -179v-518q1 -118 12 -179q11 -52 45 -110h-433zM589 1700l176 -165l-361 -318l-92 86zM959 1684l176 -164l-360 -319l-93 86z" />
    <glyph glyph-name="Uogonek" unicode="&#x172;" horiz-adv-x="1662" vert-adv-y="2457"
d="M1544 0q-163 -87 -163 -182q0 -45 32 -75q33 -31 79 -31q51 0 105 23v-147q-76 -29 -141 -29q-111 0 -180 55q-75 60 -75 156q0 131 183 230h-320v84q-89 -56 -158 -82q-110 -41 -237 -41q-269 0 -404 156q-70 80 -85 175q-14 84 -14 223v762q-1 119 -12 179
q-11 51 -45 110h536q-34 -59 -44 -110q-12 -60 -12 -179v-689q0 -173 42 -245q30 -50 85 -78q45 -22 95 -22q86 0 155 58q65 57 86 146q12 56 12 207v623q0 118 -11 179q-11 51 -45 110h536q-34 -60 -44 -110q-12 -61 -12 -179v-988q0 -158 24 -224q10 -26 32 -65z" />
    <glyph glyph-name="uogonek" unicode="&#x173;" horiz-adv-x="1208" vert-adv-y="2457"
d="M1139 0q-163 -86 -163 -182q0 -45 32 -75q33 -31 80 -31q51 0 105 23v-147q-76 -29 -142 -29q-112 0 -180 55q-75 60 -75 156q0 130 183 230h-273v99l-85 -91q-76 -40 -166 -40q-162 0 -253 88q-53 51 -68 123q-14 68 -14 157v471q-1 119 -12 179q-11 50 -45 110h489
q-34 -58 -45 -110q-11 -61 -11 -179v-437q0 -128 100 -128q47 0 110 34v531q0 119 -12 179q-10 50 -44 110h489q-33 -57 -44 -110q-12 -62 -13 -179v-518q0 -154 25 -224q11 -28 32 -65z" />
    <glyph glyph-name="Zacute" unicode="&#x179;" vert-adv-y="2457"
d="M1229 0h-1228q106 136 238 383l482 901h-137q-194 0 -311 -30q-77 -19 -157 -60l105 372h1137q-64 -82 -204 -339l-504 -945h162q214 -1 358 34q85 20 180 67zM1036 2075l117 -229l-447 -176l-66 127z" />
    <glyph glyph-name="zacute" unicode="&#x17a;" horiz-adv-x="944" vert-adv-y="2457"
d="M868 0h-935l489 861q-235 -1 -321 -25q-61 -18 -148 -65l135 325h875l-473 -861h40q194 0 296 30q78 22 184 94zM741 1655l154 -205l-409 -251l-86 113z" />
    <glyph glyph-name="Zdot" unicode="&#x17b;" vert-adv-y="2457"
d="M1229 0h-1228q106 136 238 383l482 901h-137q-194 0 -311 -30q-77 -19 -157 -60l105 372h1137q-64 -82 -204 -339l-504 -945h162q214 -1 358 34q85 20 180 67zM771 2036q78 0 133 -55t55 -134q0 -75 -55 -130t-132 -55t-132 55t-55 132q0 79 55 132q56 55 131 55z" />
    <glyph glyph-name="zdot" unicode="&#x17c;" horiz-adv-x="944" vert-adv-y="2457"
d="M869 0h-935l489 861q-235 -1 -321 -25q-61 -18 -148 -65l135 325h875l-473 -861h40q194 0 296 30q78 22 184 94zM534 1602q77 0 132 -55q55 -54 55 -134q0 -75 -55 -130t-132 -55t-132 55t-55 132q0 79 55 132q56 55 132 55z" />
    <glyph glyph-name="Zcaron" unicode="&#x17d;" vert-adv-y="2457"
d="M1229 0h-1228q106 136 238 383l482 901h-137q-194 0 -311 -30q-77 -19 -157 -60l105 372h1137q-64 -82 -204 -339l-504 -945h162q214 -1 358 34q85 20 180 67zM789 1669l-349 340l67 81l282 -167l282 167l68 -81z" />
    <glyph glyph-name="zcaron" unicode="&#x17e;" horiz-adv-x="944" vert-adv-y="2457"
d="M869 0h-935l489 861q-235 -1 -321 -25q-61 -18 -148 -65l135 325h875l-473 -861h40q194 0 296 30q78 22 184 94zM520 1199l-350 340l68 81l282 -167l281 167l68 -81z" />
    <glyph glyph-name="Gamma" unicode="&#x393;" horiz-adv-x="1269" vert-adv-y="2457"
d="M1042 1566l164 -404q-84 60 -150 83q-111 39 -314 39h-137v-995q0 -119 12 -179q10 -50 44 -110h-536q34 60 45 110q11 60 12 179v988q-1 119 -12 179q-11 51 -45 110h917z" />
    <glyph glyph-name="Theta" unicode="&#x398;" horiz-adv-x="1865" vert-adv-y="2457"
d="M1198 883v-236h-541v236h541zM964 1605q364 0 587 -218q235 -229 235 -610q0 -363 -256 -594q-247 -223 -628 -223q-406 0 -631 257q-193 221 -193 548q0 252 121 449q128 210 374 315q177 76 391 76zM905 1338q-166 0 -276 -119q-113 -123 -113 -350q0 -242 101 -426
q56 -101 150 -161q88 -56 196 -56q180 0 292 147q93 123 93 314q0 270 -118 465q-113 186 -325 186z" />
    <glyph glyph-name="Lambda" unicode="&#x39b;" horiz-adv-x="1745" vert-adv-y="2457"
d="M842 1034l-302 -796q-31 -81 -31 -132q0 -43 29 -106h-538q43 39 69 74q52 72 104 198l541 1294h293l594 -1328q60 -132 91 -175q20 -27 53 -63h-592q39 60 39 119q0 58 -38 152z" />
    <glyph glyph-name="Xi" unicode="&#x39e;" horiz-adv-x="1491" vert-adv-y="2457"
d="M307 538l-170 385h1218l-170 -385q-53 45 -114 72q-104 47 -211 47h-228q-107 0 -211 -47q-61 -27 -114 -72zM184 0l-168 381q117 -53 220 -77q151 -38 362 -38h296q211 0 363 38q102 24 219 77l-168 -381h-1124zM256 1180l-153 386h1286l-153 -386q-123 119 -339 120
h-302q-216 -1 -339 -120z" />
    <glyph glyph-name="Pi" unicode="&#x3a0;" horiz-adv-x="1674" vert-adv-y="2457"
d="M1070 1284h-465v-995q0 -119 12 -179q10 -50 44 -110h-536q34 59 45 110q11 61 12 179v988q-1 118 -12 179q-11 51 -45 110h1424q-34 -59 -44 -110q-12 -61 -12 -179v-988q0 -118 12 -179q10 -51 44 -110h-536q34 59 45 110q11 60 12 179v995z" />
    <glyph glyph-name="Sigma" unicode="&#x3a3;" horiz-adv-x="1443" vert-adv-y="2457"
d="M560 773l-296 454q-128 207 -156 248q-26 39 -69 91h1240l105 -372q-80 41 -157 60q-117 30 -311 30h-229l308 -490l-300 -512h155q214 -1 358 34q85 20 180 67l-121 -383h-1228q120 128 260 351z" />
    <glyph glyph-name="Upsilon" unicode="&#x3a5;" horiz-adv-x="1575" vert-adv-y="2457"
d="M1001 624v-335q0 -119 12 -179q10 -50 45 -110h-537q35 59 45 110q12 60 12 179v335l-376 674q-79 140 -202 268h597q-13 -38 -13 -63q0 -63 56 -169l189 -361l187 361q49 93 49 158q0 30 -16 74h525q-60 -55 -99 -106q-52 -66 -127 -204z" />
    <glyph glyph-name="Phi" unicode="&#x3a6;" horiz-adv-x="1946" vert-adv-y="2457"
d="M766 82q-223 27 -383 131q-150 97 -230 248q-75 140 -75 306q0 255 169 441q187 206 519 267q-4 114 -54 200h521q-48 -83 -54 -190q197 -24 348 -112q166 -98 256 -253q84 -146 84 -331q0 -259 -170 -438q-190 -200 -518 -261q3 -52 10 -89q10 -50 44 -110h-521
q48 83 54 191zM768 374v846q-81 -25 -141 -76q-124 -104 -124 -292q0 -199 111 -350q62 -83 154 -128zM1177 1198v-849q68 21 120 59q145 108 145 300q0 219 -129 382q-56 71 -136 108z" />
    <glyph glyph-name="Psi" unicode="&#x3a8;" horiz-adv-x="2025" vert-adv-y="2457"
d="M1217 606q83 9 139 33q88 40 118 140q16 50 17 180v318q-1 119 -12 179q-11 51 -45 110h522q-34 -59 -45 -110q-11 -60 -12 -179v-285q2 -240 -71 -377q-90 -169 -323 -244q-95 -30 -256 -46l-32 -3v-33q-1 -157 24 -224q11 -27 32 -65h-522q34 60 44 110q12 60 12 179
v33q-91 9 -134 14q-132 17 -252 74q-235 116 -281 373q-15 82 -15 209v285q-1 119 -12 179q-11 51 -45 110h522q-34 -59 -44 -110q-12 -60 -12 -179v-318q0 -145 24 -202q44 -111 185 -142q15 -3 64 -10v672q0 119 -12 179q-10 51 -44 110h522q-34 -59 -44 -110
q-12 -60 -12 -179v-671z" />
    <glyph glyph-name="Omega" unicode="&#x3a9;" horiz-adv-x="1912" vert-adv-y="2457"
d="M815 0h-633l-168 382q118 -54 220 -78q70 -17 190 -29q-71 44 -129 104q-193 199 -193 483q0 330 250 536q251 207 639 207q363 0 585 -192q235 -204 235 -530q0 -328 -257 -535q-54 -44 -116 -77q71 4 161 17q143 22 299 94l-168 -382h-632l-62 282q122 15 214 97
q136 124 136 348q0 256 -121 446q-115 180 -335 180q-174 0 -286 -115q-117 -120 -117 -338q0 -185 68 -339q77 -176 224 -245q28 -14 60 -22z" />
    <glyph glyph-name="alpha" unicode="&#x3b1;" horiz-adv-x="1558" vert-adv-y="2457"
d="M1034 181q-25 -31 -51 -58q-81 -82 -162 -117q-87 -38 -217 -38q-244 0 -392 159q-149 159 -149 415q0 181 81 322q81 142 236 212q118 53 247 53q192 0 316 -112q47 -43 108 -129l37 95q16 41 16 64q0 19 -15 49h445q-51 -48 -74 -77q-40 -50 -78 -144l-130 -331
l142 -349q39 -95 87 -144q24 -24 64 -51h-474q8 19 8 32q0 40 -24 98zM892 502q-36 94 -50 129q-61 146 -125 205q-55 50 -120 50q-60 0 -94 -38q-57 -62 -57 -208q0 -158 55 -291q25 -60 72 -102q40 -36 89 -36q69 0 123 85q25 39 50 89q58 116 57 117z" />
    <glyph glyph-name="beta" unicode="&#x3b2;" horiz-adv-x="1246" vert-adv-y="2457"
d="M510 1v-56q0 -121 12 -179q12 -53 45 -110h-489q43 74 52 163q5 43 5 126v1144q0 142 19 215q45 165 213 244q106 51 260 51q195 0 308 -89q67 -54 107 -141q42 -89 42 -188q0 -258 -260 -341q91 -6 154 -37q108 -53 160 -153q45 -87 45 -194q0 -175 -114 -297
q-133 -142 -355 -154q-64 -4 -156 -4h-48zM613 919q144 21 144 203q0 92 -38 144q-36 51 -96 51t-91 -48q-19 -28 -21 -61v-70v-893q48 -19 91 -19q89 0 143 67q59 75 59 193q0 152 -87 203q-38 23 -104 26v204z" />
    <glyph glyph-name="gamma" unicode="&#x3b3;" horiz-adv-x="1139" vert-adv-y="2457"
d="M767 81v-136q0 -121 12 -179q12 -53 44 -110h-488q34 59 44 110q12 61 12 179v143l-264 760q-49 144 -139 248h505q-21 -50 -21 -88q0 -36 21 -112l112 -405l119 437q11 38 11 71q0 43 -22 97h438q-39 -37 -66 -86q-29 -57 -64 -162z" />
    <glyph glyph-name="delta" unicode="&#x3b4;" horiz-adv-x="1304" vert-adv-y="2457"
d="M999 1599l135 -325q-87 47 -149 65q-87 24 -320 25h-52l343 -278q159 -129 214 -226q72 -127 72 -299q0 -285 -196 -450q-169 -143 -420 -143q-274 0 -430 185q-133 157 -133 388q0 206 108 348q118 157 343 217l-318 258v235h803zM609 885q-53 0 -93 -31
q-69 -52 -69 -177q0 -182 86 -344q65 -122 169 -122q64 0 103 40q53 55 53 165q0 111 -42 244q-72 225 -207 225z" />
    <glyph glyph-name="epsilon" unicode="&#x3b5;" horiz-adv-x="1051" vert-adv-y="2457"
d="M700 660v-192q-41 2 -57 2q-195 0 -195 -119q0 -126 214 -126q125 0 215 34q37 14 105 48l-101 -293q-151 -47 -326 -47t-266 37q-92 37 -148 109q-71 89 -71 206q0 122 80 202q44 44 123 69q-155 82 -155 227q0 132 106 218q116 94 381 94q184 0 321 -32v-331
q-95 86 -169 112q-68 25 -155 25q-136 0 -136 -108q0 -56 46 -93q37 -30 109 -38q22 -2 79 -4z" />
    <glyph glyph-name="zeta" unicode="&#x3b6;" horiz-adv-x="1101" vert-adv-y="2457"
d="M747 1364h-241q-174 0 -260 -26q-61 -17 -148 -64l135 325h868v-235l-387 -317q-86 -71 -176 -190q-96 -127 -96 -289q0 -112 49 -198q39 -69 169 -151q31 -19 153 -81q157 -80 157 -215q0 -131 -95 -268q-40 -59 -136 -150l-308 131q127 88 168 146q26 37 26 76
q0 43 -39 66q-17 9 -137 55q-387 146 -387 521q0 215 129 377q101 126 241 237z" />
    <glyph glyph-name="eta" unicode="&#x3b7;" horiz-adv-x="1229" vert-adv-y="2457"
d="M511 1096v-99l85 91q76 40 166 40q162 0 253 -88q53 -51 68 -123q14 -68 14 -157v-815q1 -118 13 -179q10 -51 44 -110h-489q34 60 45 110q11 59 11 179v781q0 128 -100 128q-47 0 -110 -34v-531q0 -119 12 -179q10 -50 44 -110h-489q34 59 45 110q11 61 12 179v518
q-1 118 -12 179q-11 51 -45 110h433z" />
    <glyph glyph-name="theta" unicode="&#x3b8;" horiz-adv-x="1304" vert-adv-y="2457"
d="M467 638q50 -243 104 -341q53 -97 128 -97t115 70q58 101 58 296q0 24 -2 72h-403zM437 877h408q-25 152 -65 291q-57 202 -174 202q-57 0 -98 -54q-75 -97 -75 -324q0 -56 4 -115zM692 1599q261 0 408 -232q142 -226 142 -579q0 -381 -196 -617q-85 -103 -204 -156
q-101 -45 -215 -45q-279 0 -431 260q-133 226 -133 544q0 362 165 580q98 130 237 194q110 51 227 51z" />
    <glyph glyph-name="iota" unicode="&#x3b9;" horiz-adv-x="645" vert-adv-y="2457"
d="M567 0h-489q34 59 45 110q11 61 12 179v518q-1 118 -12 179q-11 51 -45 110h489q-33 -58 -44 -110q-12 -58 -12 -179v-518q0 -121 12 -179q11 -52 44 -110z" />
    <glyph glyph-name="kappa" unicode="&#x3ba;" horiz-adv-x="1204" vert-adv-y="2457"
d="M567 0h-489q34 59 45 110q11 61 12 179v518q-1 118 -12 179q-11 51 -45 110h489q-33 -58 -45 -110q-11 -58 -12 -179v-72l150 195q39 50 39 105q0 28 -17 61h520q-87 -68 -184 -187l-233 -284l245 -378q87 -134 121 -176q28 -33 77 -71h-546q10 25 10 39q0 56 -60 152
l-121 196l-1 -98q0 -120 12 -179q12 -52 45 -110z" />
    <glyph glyph-name="lambda" unicode="&#x3bb;" horiz-adv-x="1139" vert-adv-y="2457"
d="M397 1081l-59 139q-59 126 -127 189q108 63 221 63q97 0 151 -77q59 -84 97 -195l332 -952q49 -145 140 -248h-505q21 50 21 88q0 35 -21 112l-113 406l-119 -438q-11 -40 -11 -71q0 -44 22 -97h-438q40 37 66 86q29 56 64 162z" />
    <glyph glyph-name="mu" unicode="&#x3bc;" horiz-adv-x="1229" vert-adv-y="2457"
d="M506 -30v-25q0 -121 12 -179q11 -53 44 -110h-489q34 59 45 110q11 60 12 179v862q-1 119 -12 179q-11 50 -45 110h489q-34 -58 -45 -110q-11 -61 -11 -179v-437q0 -127 100 -127q47 0 110 33v531q0 119 -12 179q-10 50 -44 110h489q-34 -58 -45 -110q-11 -61 -12 -179
v-518q1 -118 12 -179q11 -52 45 -110h-433v99l-85 -91q-58 -31 -125 -38z" />
    <glyph glyph-name="nu" unicode="&#x3bd;" horiz-adv-x="1131" vert-adv-y="2457"
d="M749 0h-313l-303 832q-50 135 -93 192q-21 29 -60 72h501q-20 -44 -20 -70q0 -30 20 -93l133 -416l130 430q18 59 18 81t-20 68h410q-37 -45 -57 -79q-26 -45 -57 -139z" />
    <glyph glyph-name="xi" unicode="&#x3be;" horiz-adv-x="1064" vert-adv-y="2457"
d="M577 1364h-71q-174 0 -260 -25q-61 -18 -148 -65l135 325h790v-235q-102 0 -154 -19q-89 -33 -89 -114q0 -94 159 -124l-21 -299q-127 93 -246 93q-97 0 -160 -73q-67 -80 -67 -233q0 -137 53 -226q43 -71 164 -149q33 -22 151 -82q157 -79 157 -215q0 -131 -95 -268
q-40 -58 -136 -150l-308 131q128 89 168 147q26 36 26 75q0 43 -39 66q-16 9 -137 56q-117 46 -160 73q-227 141 -227 458q0 309 221 481q95 73 218 106q-45 46 -45 95q0 103 121 171z" />
    <glyph glyph-name="omicron" unicode="&#x3bf;" horiz-adv-x="1304" vert-adv-y="2457"
d="M693 1128q256 0 407 -165q142 -156 142 -413q0 -274 -196 -439q-169 -143 -421 -143q-273 0 -429 185q-133 158 -133 388q0 259 165 413q188 174 465 174zM609 885q-53 0 -93 -31q-69 -52 -69 -177q0 -182 86 -344q65 -122 169 -122q64 0 103 40q53 55 53 165
q0 111 -42 244q-72 225 -207 225z" />
    <glyph glyph-name="rho" unicode="&#x3c1;" horiz-adv-x="1249" vert-adv-y="2457"
d="M511 0v-55q0 -121 12 -179q11 -53 44 -110h-489q34 59 45 110q11 61 12 179v575q0 136 10 211q58 397 500 397q170 0 278 -55q154 -79 221 -235q43 -101 43 -229q0 -274 -170 -445q-113 -113 -272 -145q-93 -18 -234 -19zM511 244q50 -17 87 -17q205 0 205 325
q0 144 -41 222q-20 39 -60 62q-32 18 -69 18q-122 0 -122 -163v-447z" />
    <glyph glyph-name="sigma1" unicode="&#x3c2;" horiz-adv-x="1024" vert-adv-y="2457"
d="M968 1096v-331q-72 65 -123 92q-86 44 -173 44q-96 0 -159 -73q-67 -80 -67 -233q0 -137 53 -226q43 -71 164 -149q33 -22 151 -82q157 -79 157 -214q0 -132 -95 -269q-40 -58 -136 -150l-308 131q128 89 168 147q26 36 26 75q0 43 -39 66q-16 9 -137 56q-117 46 -160 73
q-227 141 -227 459q0 313 220 480q180 136 449 136q137 0 236 -32z" />
    <glyph glyph-name="sigma" unicode="&#x3c3;" horiz-adv-x="1363" vert-adv-y="2457"
d="M1332 1127v-265h-204q58 -74 79 -115q46 -91 46 -215q0 -241 -156 -400q-165 -170 -435 -170q-272 0 -438 175q-158 165 -158 425q0 280 184 451q163 152 400 152q97 0 193 -38h489zM663 922q-128 0 -191 -108q-58 -101 -58 -250q0 -151 57 -251q62 -108 193 -108
q126 0 187 101q56 94 56 252q0 168 -55 260q-62 104 -189 104z" />
    <glyph glyph-name="tau" unicode="&#x3c4;" horiz-adv-x="1126" vert-adv-y="2457"
d="M1094 1096v-239h-343v-857h-376v857h-344v239h1063z" />
    <glyph glyph-name="upsilon" unicode="&#x3c5;" horiz-adv-x="1235" vert-adv-y="2457"
d="M1160 1096q-34 -60 -44 -110q-12 -60 -12 -179v-430q0 -184 -68 -269q-115 -143 -419 -143q-305 0 -420 143q-67 85 -67 269v430q-1 119 -12 179q-11 50 -45 110h489q-34 -58 -45 -110q-11 -61 -11 -179v-437q0 -82 38 -109q29 -19 73 -19q49 0 78 24q33 27 33 104v437
q-1 118 -12 179q-11 53 -45 110h489z" />
    <glyph glyph-name="phi" unicode="&#x3c6;" horiz-adv-x="1619" vert-adv-y="2457"
d="M629 898q-84 -4 -120 -42q-79 -83 -79 -270q0 -145 46 -266q35 -90 96 -110q17 -6 57 -9v697zM991 -32v-23q0 -120 12 -179q10 -50 45 -110h-475q34 59 44 110q12 60 12 179v24q-17 -1 -29 -1q-215 0 -351 121q-186 167 -186 448q0 206 99 355q148 222 467 235v155
q0 100 -13 150q-14 45 -43 90l465 133q-26 -82 -35 -139q-12 -72 -12 -200v-189q24 1 36 1q207 0 333 -103q93 -76 144 -194q53 -122 53 -271q0 -213 -108 -366q-151 -213 -458 -226zM991 201q84 3 121 41q79 83 79 268q0 108 -26 206q-47 178 -174 182v-697z" />
    <glyph glyph-name="chi" unicode="&#x3c7;" horiz-adv-x="1194" vert-adv-y="2457"
d="M575 -1l-110 -217q-33 -64 -33 -89q0 -13 13 -37h-445q53 40 82 72q35 39 94 154l241 465l-256 563q-42 91 -81 131q-21 22 -63 55h509q-6 -20 -6 -29q0 -8 6 -42q7 -43 11 -52l95 -208l106 204q21 41 21 85q0 13 -10 42h445q-63 -54 -96 -99q-43 -58 -73 -118l-235 -459
l257 -561q61 -129 147 -203h-509q12 35 12 50q0 25 -17 64z" />
    <glyph glyph-name="psi" unicode="&#x3c8;" horiz-adv-x="1698" vert-adv-y="2457"
d="M1028 -28v-27q1 -119 13 -179q10 -50 44 -110h-475q34 59 45 110q11 61 12 179v27q-144 7 -255 46q-198 71 -256 266q-26 80 -26 227v296q-1 119 -12 179q-11 50 -45 110h475q-34 -58 -45 -110q-11 -61 -12 -179v-290q1 -143 59 -204q39 -43 117 -60v542q0 100 -14 150
q-13 45 -43 90l466 133q-26 -82 -35 -139q-12 -72 -13 -199v-577q90 19 131 76q45 61 46 188v290q-1 118 -12 179q-11 52 -45 110h475q-34 -60 -44 -110q-12 -60 -12 -179v-296q-1 -171 -42 -269q-67 -161 -241 -224q-111 -39 -256 -46z" />
    <glyph glyph-name="omega" unicode="&#x3c9;" horiz-adv-x="1691" vert-adv-y="2457"
d="M846 135q-98 -167 -321 -167q-196 0 -327 148q-135 153 -135 406q0 313 206 491q75 65 207 111l173 -140q-99 -61 -146 -148q-56 -106 -56 -315q0 -174 35 -237q31 -57 80 -57q44 0 70 32q39 48 39 124v89q-1 113 -56 200h462q-55 -87 -56 -200v-89q0 -75 39 -123
q26 -32 70 -32q56 0 87 71q28 63 28 223q0 228 -70 337q-46 72 -132 125l173 140q132 -46 207 -111q206 -178 206 -491q0 -253 -135 -406q-131 -148 -328 -148q-222 0 -320 167z" />
    <glyph glyph-name="theta1" unicode="&#x3d1;" horiz-adv-x="1355" vert-adv-y="2457"
d="M1200 857v-480q0 -129 -30 -202q-66 -165 -323 -199q-80 -11 -182 -11q-277 0 -399 81q-103 68 -128 202q-8 47 -8 129v430q-1 119 -12 179q-11 50 -45 110h489q-34 -58 -45 -110q-11 -61 -11 -179v-437q0 -83 39 -109q33 -23 121 -23q101 0 136 28q36 28 36 104v487
q-43 1 -72 13q-76 35 -115 138q-31 79 -31 178q0 165 90 258q74 77 200 77q138 0 215 -102q75 -99 75 -259v-64h127v-239h-127zM838 1096v88q1 73 -34 73q-14 0 -24 -15q-13 -19 -13 -52q0 -40 13 -67q14 -27 39 -27h19z" />
    <glyph glyph-name="phi1" unicode="&#x3d5;" horiz-adv-x="1619" vert-adv-y="2457"
d="M350 1061l159 -205q-79 -88 -79 -270q0 -145 46 -266q35 -90 96 -110q17 -6 57 -9v605q0 145 35 206q66 115 262 115q273 0 454 -163q177 -159 177 -408q0 -208 -109 -362q-117 -165 -317 -209q-64 -13 -140 -17v-23q0 -120 12 -179q10 -50 45 -110h-475q34 59 44 110
q12 60 12 179v24q-18 -1 -28 -1q-217 0 -352 121q-186 169 -186 449q0 254 152 420q51 56 135 103zM991 201q85 3 121 41q79 83 79 272q0 176 -64 287q-53 93 -106 93q-30 0 -30 -51v-642z" />
    <glyph glyph-name="pi2" unicode="&#x3d6;" horiz-adv-x="1691" vert-adv-y="2457"
d="M846 135q-98 -167 -321 -167q-196 0 -327 148q-135 153 -135 406q0 313 206 491q75 65 207 111l173 -140q-99 -61 -146 -148q-56 -106 -56 -315q0 -174 35 -237q31 -57 80 -57q44 0 70 32q39 48 39 124v89q-1 113 -56 200h462q-55 -87 -56 -200v-89q0 -75 39 -123
q26 -32 70 -32q56 0 87 71q28 63 28 223q0 228 -70 337q-46 72 -132 125l173 140q132 -46 207 -111q206 -178 206 -491q0 -253 -135 -406q-131 -148 -328 -148q-222 0 -320 167zM1172 1416v-171h-652v171h652z" />
    <glyph glyph-name="underscoredbl" unicode="&#x2017;" horiz-adv-x="1175" vert-adv-y="2457"
d="M0 -118h1175v-157h-1175v157zM0 -393h1175v-157h-1175v157z" />
    <glyph glyph-name="minute" unicode="&#x2032;" horiz-adv-x="384" vert-adv-y="2457"
d="M128 947l12 274l52 245h206l-53 -245l-105 -274h-112z" />
    <glyph glyph-name="second" unicode="&#x2033;" horiz-adv-x="725" vert-adv-y="2457"
d="M128 947l12 274l52 245h206l-53 -245l-105 -274h-112zM411 947l12 274l52 245h206l-53 -245l-105 -274h-112z" />
    <glyph glyph-name="exclamdbl" unicode="&#x203c;" horiz-adv-x="1417" vert-adv-y="2457"
d="M361 476l-159 377v484q2 145 -42 229h475q-44 -86 -42 -229v-484l-159 -377h-73zM397 403q100 0 171 -61q70 -61 70 -151q0 -84 -70 -145t-170 -61q-101 0 -171 61q-70 62 -70 148q0 88 70 148q72 61 170 61zM984 476l-159 377v484q2 145 -42 229h475q-44 -86 -42 -229
v-484l-159 -377h-73zM1020 403q100 0 171 -61q70 -61 70 -151q0 -84 -70 -145t-170 -61q-101 0 -171 61q-70 62 -70 148q0 88 70 148q72 61 170 61z" />
    <glyph glyph-name="zerosuperior" unicode="&#x2070;" horiz-adv-x="940" vert-adv-y="2457"
d="M470 1590q178 0 284 -116q119 -132 119 -384q0 -238 -119 -371q-105 -116 -283 -116q-179 0 -284 116q-119 133 -119 378q0 244 119 377q105 116 283 116zM471 1411q-66 0 -97 -66q-37 -79 -37 -248q0 -170 37 -248q31 -67 97 -67q133 0 133 310q0 177 -36 253
q-32 66 -97 66z" />
    <glyph glyph-name="foursuperior" unicode="&#x2074;" horiz-adv-x="944" vert-adv-y="2457"
d="M733 876v-113q-1 -87 28 -137h-310q29 52 27 137v113h-404v188q34 33 67 74l292 350q29 36 45 78h283q-26 -62 -28 -145v-366h142v-179h-142zM483 1050v228l-181 -228h181z" />
    <glyph glyph-name="fivesuperior" unicode="&#x2075;" horiz-adv-x="940" vert-adv-y="2457"
d="M439 1387l-10 -155q31 1 33 1q136 0 239 -83q106 -86 106 -222q0 -128 -102 -222q-113 -104 -286 -104q-181 0 -339 134l110 185q99 -122 213 -122q60 0 99 34q40 35 40 92q0 54 -41 89q-47 40 -116 40q-92 0 -210 -39l20 413l1 14q4 66 -28 124h653l-91 -227
q-99 47 -225 48h-66z" />
    <glyph glyph-name="sixsuperior" unicode="&#x2076;" horiz-adv-x="940" vert-adv-y="2457"
d="M410 1566h304q-102 -114 -188 -284l-50 -100q42 7 71 7q128 0 223 -85q81 -72 81 -183q0 -131 -113 -218q-129 -100 -299 -100q-154 0 -260 87q-92 74 -92 189q0 55 17 101q18 45 52 107l228 414q25 44 26 60v5zM459 1011q-46 0 -74 -35q-22 -29 -22 -71q0 -48 27 -82
q34 -41 88 -41q47 0 75 35q22 29 22 70q0 50 -27 83q-35 41 -89 41z" />
    <glyph glyph-name="sevensuperior" unicode="&#x2077;" horiz-adv-x="940" vert-adv-y="2457"
d="M116 1566h736q-31 -39 -81 -155l-278 -664q-37 -86 -37 -105q0 -5 3 -16h-318q34 34 55 66q22 34 67 140l230 555h-134q-95 0 -153 -23q-46 -18 -90 -58v260z" />
    <glyph glyph-name="eightsuperior" unicode="&#x2078;" horiz-adv-x="940" vert-adv-y="2457"
d="M225 1114q-113 93 -113 204q0 88 60 159q94 113 296 113q143 0 240 -63q53 -34 84 -91q31 -55 31 -119q0 -111 -113 -203q142 -83 142 -226q0 -127 -106 -204q-112 -81 -279 -81q-166 0 -278 81q-106 77 -106 204q0 142 142 226zM466 1411q-44 0 -76 -30q-31 -30 -31 -72
t31 -72q32 -30 76 -30t76 30q31 30 31 71q0 44 -31 73q-32 30 -76 30zM467 1029q-52 0 -89 -36t-37 -88q0 -50 37 -87q37 -36 89 -36q53 0 90 36t37 86q0 54 -37 89q-38 36 -90 36z" />
    <glyph glyph-name="ninesuperior" unicode="&#x2079;" horiz-adv-x="940" vert-adv-y="2457"
d="M530 626h-304q104 118 188 284l50 100q-41 -7 -69 -7q-130 0 -225 85q-81 73 -81 182q0 132 113 219q129 100 299 100q153 0 260 -87q92 -74 92 -188q0 -55 -17 -101q-18 -47 -52 -108l-228 -413q-25 -46 -26 -61v-5zM462 1410q-47 0 -75 -35q-22 -28 -22 -69
q0 -49 28 -83q33 -41 87 -41q47 0 75 35q22 28 22 71q0 48 -27 81q-35 41 -88 41z" />
    <glyph glyph-name="nsuperior" unicode="&#x207f;" horiz-adv-x="821" vert-adv-y="2457"
d="M351 1289v-48l43 42q52 25 113 25q108 0 170 -54q56 -50 56 -171v-279q0 -70 8 -103q7 -32 35 -75h-346q28 43 35 75q8 33 8 103v259q0 68 -58 68q-27 0 -64 -18v-309q0 -69 8 -103q7 -31 35 -75h-346q28 43 35 75q8 34 8 103v306q0 70 -8 104q-7 32 -35 75h303z" />
    <glyph glyph-name="peseta" unicode="&#x20a7;" horiz-adv-x="2357" vert-adv-y="2457"
d="M597 639v-350q0 -118 11 -179q10 -51 42 -110h-509q32 58 42 110q11 61 12 179v988q-1 118 -12 179q-10 52 -42 110h463q214 0 340 -55q265 -116 265 -402q0 -289 -277 -406q-125 -53 -335 -64zM597 866q89 6 139 62q56 63 56 166q0 127 -82 189q-45 34 -113 40v-457z
M1419 890v-204h182v-164h-182v-290q0 -79 84 -79q61 0 177 69l-110 -210q-80 -36 -181 -36q-126 0 -192 60q-36 32 -47 73q-10 40 -10 105v308h-176l393 368h62zM2261 679v-224q-148 99 -225 99q-21 0 -36 -10q-16 -10 -16 -27q0 -34 101 -73q124 -47 173 -97
q44 -45 44 -121q0 -121 -102 -187q-96 -63 -235 -63q-128 0 -258 45l6 226q181 -114 259 -114q63 0 63 44q0 21 -58 44q-162 64 -210 119q-51 57 -51 132q0 102 89 169q91 70 234 70q117 0 222 -32z" />
    <glyph glyph-name="afii61248" unicode="&#x2105;" horiz-adv-x="2302" vert-adv-y="2457"
d="M1341 1566h279q-50 -70 -128 -222l-622 -1220q-33 -64 -33 -93q0 -11 5 -31h-277q50 65 116 192l607 1194q54 106 54 157q0 8 -1 23zM1783 961q219 0 348 -141q122 -134 122 -354q0 -234 -167 -376q-145 -122 -361 -122q-234 0 -367 158q-114 135 -114 333q0 221 141 353
q161 149 398 149zM1711 753q-46 0 -80 -26q-59 -45 -59 -152q0 -156 74 -294q56 -105 145 -105q55 0 88 34q46 47 46 142t-36 208q-62 193 -178 193zM801 1553v-284q-62 56 -105 78q-74 38 -146 38q-85 0 -138 -63q-57 -67 -57 -183q0 -108 44 -199q65 -131 206 -131
q102 0 242 70l-86 -251q-131 -41 -263 -41q-221 0 -348 130q-123 125 -123 334q0 269 188 412q154 116 384 116q116 0 202 -26z" />
    <glyph glyph-name="uni210F" unicode="&#x210f;" horiz-adv-x="1176" vert-adv-y="2457"
d="M95 15l283 903l-235 -114l35 101l234 116l33 120q35 126 35 154q0 61 -108 61q-9 0 -23 -1l19 57l348 44l-102 -331l342 180l-40 -110l-330 -167l-132 -439q26 30 104 130q91 115 192 192q111 83 200 83q65 0 98 -62q21 -39 21 -89t-42 -189l-126 -424q-20 -67 -20 -77
q0 -12 7 -21q9 -12 22 -12q31 0 81 57q27 32 48 53l42 -29q-179 -218 -287 -218q-30 0 -53 21q-37 34 -37 96q0 53 29 151l129 434q29 85 29 110q0 48 -42 48q-48 0 -137 -69q-118 -91 -225 -249q-92 -138 -138 -284l-71 -226h-183z" />
    <glyph glyph-name="Ifraktur" unicode="&#x2111;" horiz-adv-x="1479" vert-adv-y="2457"
d="M1210 1230h73q0 -76 -7 -123q-17 -117 -80 -177q-59 -57 -149 -57q-72 0 -130 40q-51 35 -105 145q-79 161 -144 205q-57 39 -126 39q-90 0 -170 -56q-78 -54 -114 -141q-24 -58 -24 -118q0 -102 62 -186q59 -81 170 -116q30 -9 88 -20l-11 -75q-102 15 -162 43
q-126 61 -189 172q-46 82 -46 187q0 180 140 310q139 129 325 129q155 0 256 -88q63 -54 124 -198q48 -112 70 -138q15 -17 37 -17q61 0 87 75q25 69 25 165zM1334 536l-75 -15q-24 95 -59 139q-40 49 -102 49q-46 0 -75 -30q-30 -31 -30 -75q0 -48 42 -149q9 -23 68 -156
q31 -70 31 -118q0 -111 -129 -209q-71 -54 -162 -87q-84 -31 -154 -31q-128 0 -234 112q-54 57 -96 124l-74 120q-35 55 -80 78q-18 10 -60 25l1 72h20q94 0 180 -41q75 -36 126 -94q8 -10 102 -141q42 -58 85 -89q48 -36 117 -36q79 0 125 52q35 40 33 87q-2 53 -31 116
l-60 136q-39 87 -39 168q0 101 74 176q90 90 209 90q143 0 207 -142q22 -48 40 -131z" />
    <glyph glyph-name="uni2112" unicode="&#x2112;" horiz-adv-x="1707" vert-adv-y="2457"
d="M915 739q-154 3 -247 33q-202 63 -302 228q-62 103 -62 212q0 283 466 370l19 -60q-124 -35 -177 -58q-129 -57 -193 -163q-33 -56 -33 -127q0 -173 164 -283q141 -95 365 -96q11 144 22 222q32 247 132 393q110 161 273 161q120 0 198 -78q72 -72 72 -184
q0 -180 -203 -353q-127 -108 -297 -173q-30 -151 -42 -203q-41 -178 -115 -282q-36 -50 -127 -158q198 -80 318 -80q140 0 232 74q78 62 147 208l49 -20q-51 -124 -110 -190q-61 -67 -149 -102q-74 -30 -147 -30q-136 0 -398 100q-87 -43 -141 -63q-98 -37 -210 -37
q-141 0 -234 50q-41 23 -68 63q-21 33 -21 72q0 54 57 89q57 33 151 33q91 0 207 -41q106 -38 211 -86q55 54 88 114q90 171 105 445zM1112 849q22 10 45 21q168 82 244 164q63 69 99 151q34 79 34 146q0 76 -43 130q-41 51 -108 51q-78 0 -136 -58q-104 -103 -122 -326
q-13 -162 -13 -279zM668 141l-30 12l-7 4q-133 57 -168 68q-70 21 -129 21q-106 0 -150 -31q-31 -22 -31 -51q0 -38 56 -66q82 -42 197 -42q89 0 180 38q23 10 82 47z" />
    <glyph glyph-name="smallscriptl" unicode="&#x2113;" horiz-adv-x="662" vert-adv-y="2457"
d="M328 578q-12 -61 -27 -155q-35 -228 -35 -279q0 -56 37 -56q25 0 49 26q20 22 52 87q21 42 46 42q34 0 34 -38q0 -49 -47 -124q-77 -123 -182 -123q-107 0 -147 101q-17 45 -17 120q0 67 14 232q-28 -32 -62 -61q-39 -33 -50 -33q-10 0 -21 14q-11 15 -11 32q0 24 39 61
q48 47 122 135q76 410 175 653q108 268 269 268q77 0 117 -58q37 -53 37 -132q0 -190 -145 -417q-70 -109 -247 -295zM348 711q9 10 18 21q126 139 195 309q60 150 60 250q0 50 -30 70q-9 7 -23 7q-58 0 -95 -98q-56 -152 -125 -559z" />
    <glyph glyph-name="weierstrass" unicode="&#x2118;" horiz-adv-x="1327" vert-adv-y="2457"
d="M273 250q-38 109 -38 193q0 156 121 326q90 126 245 225q54 35 76 35t22 -13q0 -26 -69 -73q-6 -3 -79 -63q-174 -144 -174 -360q0 -51 14 -103q59 54 183 186q185 196 296 265q89 54 168 54q90 0 144 -72q55 -74 55 -172q0 -166 -110 -356q-96 -165 -235 -268
q-111 -82 -201 -82q-72 0 -118 46q-50 51 -50 147q0 115 48 169q33 36 76 36q20 0 41 -15q28 -19 28 -48q0 -58 -68 -105q-40 -29 -49 -43q-13 -24 -13 -49q0 -36 28 -58q23 -17 58 -17q51 0 97 27q75 46 165 175q162 233 162 454q0 60 -31 94q-33 37 -82 37q-66 0 -162 -66
q-87 -61 -241 -221q-116 -119 -178 -174q96 -286 96 -431q0 -101 -56 -180q-40 -56 -124 -75q-29 -7 -54 -7q-82 0 -127 58q-47 61 -47 159q0 118 81 230q21 30 81 108zM282 194q-4 -6 -10 -13q-31 -38 -61 -96q-55 -106 -55 -200q0 -69 31 -112q30 -42 75 -42q41 0 66 34
q32 43 32 114q0 70 -37 186q-23 71 -41 129z" />
    <glyph glyph-name="Rfraktur" unicode="&#x211c;" horiz-adv-x="1593" vert-adv-y="2457"
d="M855 636q-14 -233 -30 -335q-35 -231 -177 -362q-95 -87 -203 -87q-106 0 -182 88q-15 18 -64 85q-30 40 -102 70q44 35 70 70q26 37 52 105q8 -8 16 -17q56 -59 94 -81q21 -11 58 -27q-11 -10 -20 -17q-61 -49 -61 -95q0 -49 48 -81q28 -19 68 -19q126 0 193 163
q65 159 65 525q0 459 -76 598q-70 127 -198 127q-101 0 -173 -87q-50 -60 -50 -128q0 -45 20 -77q22 -35 72 -77q110 -92 144 -141q45 -65 45 -165q0 -183 -163 -279l-42 62q102 64 102 134q0 40 -30 73q-8 8 -95 88q-105 94 -138 182q-24 63 -24 124q0 89 47 176
q50 93 142 146q90 51 182 51q133 0 240 -100q98 -92 128 -240q80 110 185 184q103 71 266 152q78 -193 114 -268q70 -146 162 -262q-75 -55 -152 -98q-100 -54 -156 -75q0 -88 7 -257q5 -213 8 -245q17 -124 90 -174l72 50l47 -50q-104 -77 -240 -200q-63 75 -88 115
q-37 61 -49 135q-9 59 -12 202l-5 244q0 45 2 132q-107 -29 -209 -37zM855 706q172 25 276 58q57 19 222 86q-75 85 -131 202q-39 82 -95 220q-115 -87 -169 -139q-79 -76 -96 -150q-8 -32 -8 -113q0 -6 1 -46v-40v-78z" />
    <glyph glyph-name="prescription" unicode="&#x211e;" horiz-adv-x="1471" vert-adv-y="2457"
d="M1150 502l48 57h261l-187 -223l91 -124l91 -124l32 -43q-131 -84 -242 -84q-96 0 -200 104l-55 -65h-262l184 219l-306 396v-326q0 -119 12 -179q10 -50 44 -110h-536q34 60 45 110q11 60 12 179v988q-1 119 -12 179q-11 50 -45 110h493q228 0 347 -44q144 -52 222 -172
q68 -107 68 -233q0 -157 -96 -269q-54 -63 -172 -124l42 -56l60 -83zM605 859q95 13 141 58q71 67 71 177q0 117 -81 172q-51 34 -131 34v-441z" />
    <glyph glyph-name="uni_2120" unicode="&#x2120;" horiz-adv-x="1798" vert-adv-y="2457"
d="M959 1204v-271q0 -59 6 -86q7 -27 32 -64h-305q24 37 31 64q6 27 6 86v530l-79 103h352q-7 -18 -7 -25q0 -12 24 -45l179 -254l169 245q26 38 26 52q0 6 -8 27h335q-24 -37 -31 -64q-6 -27 -6 -85v-484q0 -59 6 -86q7 -27 31 -64h-362q25 37 32 64q6 27 6 86v269
l-212 -328zM563 1555v-209q-120 89 -204 89q-30 0 -51 -14q-25 -17 -25 -46q0 -32 42 -62q31 -23 100 -65q92 -57 122 -87q57 -56 57 -143q0 -80 -47 -146q-76 -108 -286 -108q-95 0 -199 26v217q118 -81 202 -81q44 0 72 22q23 19 23 48q0 30 -27 52q-15 11 -76 50
q-99 61 -118 77q-93 77 -93 177q0 78 51 139q78 92 257 92q105 0 200 -28z" />
    <glyph glyph-name="uni2128" unicode="&#x2128;" horiz-adv-x="1252" vert-adv-y="2457"
d="M361 1194l-47 47q95 69 158 102q143 74 268 74q114 0 220 -67q186 -118 186 -332q0 -125 -67 -230q-61 -96 -192 -160q-25 -12 -79 -35q102 -28 160 -64q123 -74 186 -204q50 -101 50 -214q0 -136 -73 -264q-70 -123 -191 -192q-100 -57 -192 -57q-124 0 -319 131
q-50 33 -86 37q-16 3 -56 4q50 48 50 98q0 65 -49 111q-40 38 -89 38q-55 0 -94 -44q-31 -35 -31 -81q0 -47 41 -99l-55 -44q-64 85 -64 151q0 82 69 142q58 49 128 49q73 0 187 -75q73 -48 109 -61q32 -11 85 -14q-42 -52 -42 -100q0 -61 52 -108q59 -53 147 -53
q124 0 210 117q89 121 89 278q0 171 -113 288q-113 116 -266 116q-141 0 -267 -104q-32 -26 -88 -83l-48 44q98 111 157 158q83 64 205 99q-197 77 -197 217q0 67 37 101q30 28 67 28q38 0 66 -28q23 -22 23 -64q0 -41 -47 -130q46 -61 147 -61q118 0 198 122q68 103 68 228
q0 136 -81 221q-43 45 -107 69q-52 20 -99 20q-140 0 -324 -122z" />
    <glyph glyph-name="uni212D" unicode="&#x212d;" horiz-adv-x="1365" vert-adv-y="2457"
d="M1362 1310l-216 -152q-24 19 -32 26q-48 40 -80 59q-31 19 -71 19q-51 0 -104 -30q-86 -47 -86 -152q0 -46 19 -76q18 -31 71 -85q86 -87 172 -208q68 -97 68 -202q0 -128 -85 -218q-86 -90 -209 -90t-211 90q-83 86 -83 197q0 56 33 136l68 -30q-32 -57 -32 -108
q0 -88 67 -152q56 -53 131 -53q72 0 118 55q42 50 42 105q0 64 -60 155q-10 16 -97 128q-67 87 -96 153q-27 62 -27 127q0 96 61 183q19 27 63 76q-19 14 -27 21q-43 33 -70 48q-30 16 -70 16q-103 0 -189 -91q-75 -79 -111 -243q-25 -116 -25 -245q0 -223 76 -403
q76 -177 214 -263q130 -80 288 -80q188 0 310 117q51 48 131 161l53 -23q-47 -104 -82 -156q-94 -138 -240 -211q-126 -62 -256 -62q-173 0 -334 106q-168 111 -256 317q-78 183 -78 395q0 207 70 397q67 182 178 276q103 87 220 87q82 0 174 -66q19 -14 66 -51
q142 100 252 100q62 0 136 -41q5 -3 37 -21q8 -5 17 -9l51 29z" />
    <glyph glyph-name="uni_212F" unicode="&#x212f;" horiz-adv-x="910" vert-adv-y="2457"
d="M753 230l30 -37q-235 -231 -428 -231q-133 0 -211 83q-76 81 -76 225q0 189 122 373q129 194 320 281q95 43 177 43q84 0 134 -42t50 -122q0 -70 -48 -141q-106 -153 -349 -218q-63 -16 -194 -42q-24 -93 -24 -145q0 -82 61 -138q61 -55 142 -55q84 0 189 79
q50 38 105 87zM302 464q114 31 180 59q124 53 198 171q47 76 47 132q0 33 -21 55q-22 23 -54 23q-98 0 -226 -181q-67 -95 -124 -259z" />
    <glyph glyph-name="aleph" unicode="&#x2135;" horiz-adv-x="1024" vert-adv-y="2457"
d="M308 636q-63 71 -84 95q-70 84 -70 170q0 136 127 173q-5 -25 -5 -35q0 -50 41 -110q70 -101 209 -234q119 -114 152 -146l124 127q-26 27 -92 84q-81 67 -81 160q0 76 56 123q22 20 73 31v-9q0 -28 16 -54q19 -30 93 -95q133 -116 133 -238q0 -119 -92 -164
q-10 53 -26 77q-12 20 -44 45l-118 -122q25 -23 36 -34q87 -78 114 -112q92 -116 92 -232q0 -53 -18 -86q-13 -25 -55 -50v17q0 30 -30 71q-49 68 -209 214q-69 64 -145 138q-112 110 -165 153q-33 -24 -47 -39q-33 -36 -33 -86q0 -35 13 -60q20 -36 64 -79q67 -66 86 -92
q38 -52 38 -102q0 -113 -136 -130q-38 -5 -209 -5l-18 52q30 1 40 1q56 -1 70 10q14 10 14 33q0 28 -41 86q-73 104 -73 212q0 177 200 242z" />
    <glyph glyph-name="uni_2136" unicode="&#x2136;" horiz-adv-x="910" vert-adv-y="2457"
d="M150 231h615q40 137 40 266q0 186 -69 242q-52 42 -188 42h-290q-87 0 -121 33q-51 50 -51 138q0 74 53 138q7 -43 24 -61q19 -22 95 -22h340q292 0 292 -384q0 -165 -71 -392h97l-77 -231h-765z" />
    <glyph glyph-name="uni_2137" unicode="&#x2137;" horiz-adv-x="683" vert-adv-y="2457"
d="M183 230h301q36 146 36 397q0 84 -29 114q-32 33 -108 40q-78 8 -105 27q-72 50 -72 157q0 64 42 125q24 -34 55 -50q36 -18 121 -30q93 -12 124 -39q36 -33 36 -84q0 -27 -6 -68q-9 -59 -9 -116q0 -94 23 -252q27 -181 27 -275q0 -83 -14 -129q-7 -23 -30 -47
q-15 80 -26 101q-7 24 -51 96l-93 -197h-288z" />
    <glyph glyph-name="arrowleft" unicode="&#x2190;" horiz-adv-x="1566" vert-adv-y="2457"
d="M1534 730h-1174q58 -85 90 -149q33 -68 33 -94q0 -33 -35 -33q-17 0 -36 20q-9 9 -47 53q-105 111 -281 208q-30 17 -38 24q-15 12 -15 31t18 33q9 6 35 21q202 111 311 242q34 39 53 39q35 0 35 -33q0 -60 -123 -243h1174v-119z" />
    <glyph glyph-name="arrowup" unicode="&#x2191;" horiz-adv-x="1566" vert-adv-y="2457"
d="M723 31v1175q-84 -58 -149 -90q-68 -33 -94 -33q-33 0 -33 35q0 17 20 36q11 10 53 47q112 105 209 281q16 29 24 38q11 15 31 15q14 0 24 -8q9 -9 29 -45q113 -204 243 -311q39 -34 39 -53q0 -35 -33 -35q-59 0 -244 123v-1175h-119z" />
    <glyph glyph-name="arrowright" unicode="&#x2192;" horiz-adv-x="1566" vert-adv-y="2457"
d="M31 849h1174q-122 183 -122 243q0 33 35 33q18 0 43 -28l10 -11q110 -133 311 -242q29 -17 38 -24q15 -12 15 -31t-18 -33q-8 -6 -35 -21q-203 -112 -311 -242l-10 -11q-25 -28 -43 -28q-35 0 -35 33q0 60 122 243h-1174v119z" />
    <glyph glyph-name="arrowdown" unicode="&#x2193;" horiz-adv-x="1566" vert-adv-y="2457"
d="M842 1535v-1175q86 59 149 90q69 33 95 33q33 0 33 -35q0 -17 -20 -36q-11 -10 -53 -47q-111 -104 -209 -280q-19 -34 -28.5 -44t-25.5 -10q-23 0 -38 25q-8 13 -27 48q-108 189 -232 291q-39 34 -39 53q0 35 33 35q29 0 108 -40q56 -29 135 -83v1175h119z" />
    <glyph glyph-name="arrowboth" unicode="&#x2194;" horiz-adv-x="1566" vert-adv-y="2457"
d="M1205 730h-845q58 -85 90 -149q33 -68 33 -94q0 -33 -35 -33q-17 0 -36 20q-9 9 -47 53q-105 111 -281 208q-30 17 -38 24q-15 12 -15 31t18 33q9 6 35 21q202 111 311 242q34 39 53 39q35 0 35 -33q0 -60 -123 -243h845q-122 183 -122 243q0 33 35 33q18 0 43 -28
l10 -11q110 -133 311 -242q29 -17 38 -24q15 -12 15 -31t-18 -33q-8 -6 -35 -21q-203 -112 -311 -242l-10 -11q-25 -28 -43 -28q-35 0 -35 33q0 60 122 243z" />
    <glyph glyph-name="arrowupdn" unicode="&#x2195;" horiz-adv-x="1566" vert-adv-y="2457"
d="M723 360v846q-84 -58 -149 -90q-68 -33 -94 -33q-33 0 -33 35q0 17 20 36q11 10 53 47q112 105 209 281q16 29 24 38q11 15 31 15q14 0 24 -8q9 -9 29 -45q112 -204 243 -311q39 -34 39 -53q0 -35 -33 -35q-59 0 -244 123v-846q86 59 149 90q69 33 95 33q33 0 33 -35
q0 -17 -20 -36q-11 -10 -53 -47q-111 -104 -209 -280q-19 -34 -28.5 -44t-25.5 -10q-23 0 -38 25q-8 13 -27 48q-108 189 -232 291q-39 34 -39 53q0 35 33 35q29 0 108 -40q56 -29 135 -83z" />
    <glyph glyph-name="uni2196" unicode="&#x2196;" horiz-adv-x="1479" vert-adv-y="2457"
d="M1458 -25l-85 -84l-1212 1205l179 -414l-93 -41l-266 603l115 109l611 -257l-44 -91l-416 177z" />
    <glyph glyph-name="uni2197" unicode="&#x2197;" horiz-adv-x="1479" vert-adv-y="2457"
d="M-6 -25l1211 1207l-416 -177l-44 91l612 257l114 -109l-266 -603l-93 41l179 414l-1212 -1205z" />
    <glyph glyph-name="uni2198" unicode="&#x2198;" horiz-adv-x="1479" vert-adv-y="2457"
d="M-6 1270l85 83l1212 -1204l-179 413l93 41l266 -603l-114 -109l-612 258l44 90l416 -177z" />
    <glyph glyph-name="uni2199" unicode="&#x2199;" horiz-adv-x="1479" vert-adv-y="2457"
d="M1458 1270l-1211 -1208l416 177l44 -90l-611 -258l-115 109l266 603l93 -41l-179 -413l1212 1204z" />
    <glyph glyph-name="arrowupdnbse" unicode="&#x21a8;" horiz-adv-x="1566" vert-adv-y="2457"
d="M470 -160h625v-101h-625v101zM723 360v846q-84 -58 -149 -90q-68 -33 -94 -33q-33 0 -33 35q0 17 20 36q11 10 53 47q112 105 209 281q16 29 24 38q11 15 31 15q14 0 24 -9q9 -8 29 -44q113 -204 243 -311q39 -34 39 -53q0 -35 -33 -35q-59 0 -244 123v-846q85 58 149 89
q69 34 95 34q33 0 33 -35q0 -17 -20 -36q-11 -11 -53 -47q-112 -104 -209 -280q-19 -34 -28.5 -44t-25.5 -10q-23 0 -38 25q-8 13 -27 48q-108 189 -232 290q-39 35 -39 54q0 35 33 35q29 0 108 -40q57 -30 135 -83z" />
    <glyph glyph-name="carriagereturn" unicode="&#x21b5;" horiz-adv-x="2048" vert-adv-y="2457"
d="M1715 946v-506h-1132l371 -145l-47 -111l-575 256v128l575 257l47 -111l-371 -146h1004v378h128z" />
    <glyph glyph-name="uni21C4" unicode="&#x21c4;" horiz-adv-x="2048" vert-adv-y="2457"
d="M246 1032h1254q-99 107 -179 300h80q109 -110 197 -185q89 -76 198 -133v-62q-116 -51 -224 -149q-55 -52 -171 -167h-80q77 191 179 293h-1254v103zM1797 519v-103h-1254q102 -104 179 -293h-80q-123 121 -171 167q-108 98 -224 149v62q109 57 198 133q86 74 197 185h80
q-75 -187 -179 -300h1254z" />
    <glyph glyph-name="uni21C6" unicode="&#x21c6;" horiz-adv-x="2048" vert-adv-y="2457"
d="M1797 1032v-103h-1254q102 -104 179 -293h-80q-114 114 -171 167q-109 99 -224 149v62q109 57 198 133q86 74 197 185h80q-75 -187 -179 -300h1254zM246 519h1254q-99 107 -179 300h80q109 -110 197 -185q89 -76 198 -133v-62q-117 -51 -224 -149q-38 -36 -171 -167h-80
q77 191 179 293h-1254v103z" />
    <glyph glyph-name="arrowdblleft" unicode="&#x21d0;" horiz-adv-x="1479" vert-adv-y="2457"
d="M1479 396h-1125q61 -71 101 -153l-50 -50q-107 145 -196 234q-51 48 -209 188q170 149 209 188q88 88 196 234l50 -50q-41 -83 -101 -153h1125v-127h-1207q-11 -11 -41 -45q-22 -25 -45 -47q27 -27 86 -92h1207v-127z" />
    <glyph glyph-name="arrowdblup" unicode="&#x21d1;" horiz-adv-x="1479" vert-adv-y="2457"
d="M521 -115v1130q-73 -62 -153 -101l-50 50q154 116 233 196q52 54 188 209q141 -162 188 -209q86 -86 234 -196l-51 -50q-78 38 -152 101v-1130h-127v1212q-70 63 -92 86q-23 -23 -91 -86v-1212h-127z" />
    <glyph glyph-name="arrowdblright" unicode="&#x21d2;" horiz-adv-x="1479" vert-adv-y="2457"
d="M0 834h1125q-62 73 -101 153l50 50q115 -153 196 -234q36 -36 209 -188q-167 -147 -209 -188q-82 -83 -196 -234l-50 50q38 79 101 153h-1125v127h1208q63 70 85 92q-25 26 -85 92h-1208v127z" />
    <glyph glyph-name="arrowdbldown" unicode="&#x21d3;" horiz-adv-x="1479" vert-adv-y="2457"
d="M521 1369h127v-1212q65 -60 91 -86q23 24 92 86v1212h127v-1130q71 61 152 101l51 -50q-149 -111 -234 -196q-50 -50 -188 -209q-149 171 -188 209q-82 83 -233 196l50 50q84 -41 153 -101v1130z" />
    <glyph glyph-name="arrowdblboth" unicode="&#x21d4;" horiz-adv-x="1479" vert-adv-y="2457"
d="M-2 619q191 157 439 501l42 -32q-28 -65 -125 -247h768q-100 187 -125 247l42 32q247 -341 439 -501q-194 -163 -439 -502l-42 32q27 65 125 247h-768q95 -178 125 -247l-42 -32q-246 342 -439 502zM274 716q-43 -52 -70 -97q32 -54 70 -98h928q43 51 70 98
q-23 39 -70 97h-928z" />
    <glyph glyph-name="uni21D5" unicode="&#x21d5;" horiz-adv-x="1479" vert-adv-y="2457"
d="M740 -113q-157 184 -500 439l31 41q59 -24 247 -124v792q-184 -100 -247 -125l-31 41q346 258 500 440q169 -199 501 -440l-31 -41q-66 27 -247 125v-792q185 98 247 124l31 -41q-328 -239 -501 -439zM643 162q57 -46 97 -70q40 24 98 70v953q-54 44 -98 70
q-45 -27 -97 -70v-953z" />
    <glyph glyph-name="universal" unicode="&#x2200;" horiz-adv-x="1214" vert-adv-y="2457"
d="M824 804l152 377h193l-478 -1181h-168l-478 1181h193l152 -377h434zM761 640h-308l154 -368z" />
    <glyph glyph-name="existential" unicode="&#x2203;" horiz-adv-x="872" vert-adv-y="2457"
d="M104 0v174h490v334h-490v173h490v337h-490v173h663v-1191h-663z" />
    <glyph glyph-name="emptyset" unicode="&#x2205;" horiz-adv-x="1452" vert-adv-y="2457"
d="M1040 1291q52 -36 88 -74q168 -169 168 -402q0 -159 -84 -298q-85 -139 -229 -212q-119 -60 -259 -60q-99 0 -196 35l-125 -249l-115 59l126 248q-52 35 -89 73q-80 81 -124 186q-44 106 -44 217q0 159 85 298t228 212q119 60 257 60q98 0 200 -36l126 249l112 -59z
M980 1172l-392 -774q71 -22 137 -22q183 0 311 128q129 130 129 310t-129 311q-23 23 -56 47zM474 456l393 774q-72 23 -139 23q-183 0 -311 -128q-129 -130 -129 -311q0 -219 186 -358z" />
    <glyph glyph-name="gradient" unicode="&#x2207;" horiz-adv-x="1533" vert-adv-y="2457"
d="M20 1566h1494l-561 -1566h-378zM484 1250l283 -866l275 866h-558z" />
    <glyph glyph-name="element" unicode="&#x2208;" horiz-adv-x="1201" vert-adv-y="2457"
d="M1052 1113v-208h-236q-197 -1 -253 -14q-160 -34 -215 -233h598v-208h-597q12 -116 123 -187q55 -35 136 -46q62 -9 208 -9h236v-208h-206q-236 0 -326 16q-198 34 -310 199q-90 133 -90 329q0 212 102 360q113 163 311 195q87 14 313 14h206z" />
    <glyph glyph-name="notelement" unicode="&#x2209;" horiz-adv-x="2048" vert-adv-y="2457"
d="M1425 1415h221v-135h-279l-215 -505h494v-135h-552l-207 -486q91 -18 185 -19h574v-135h-549q-159 0 -264 28l-103 -240h-144l122 286q-81 42 -137 93q-219 199 -219 540q0 274 139 454q145 188 388 237q89 17 218 17h184l91 212h144zM761 199l189 441h-458
q6 -64 18 -118q46 -206 251 -323zM1007 775l216 505h-151q-137 -1 -228 -30q-138 -38 -242 -168q-83 -104 -103 -253q-3 -13 -7 -54h515z" />
    <glyph glyph-name="glyph431" unicode="&#x220b;" horiz-adv-x="2048" vert-adv-y="2457"
d="M1506 640h-1158v135h1158q-9 111 -36 181q-56 149 -205 244q-113 76 -338 80h-579v135h554q277 0 444 -105q148 -94 224 -248q77 -155 77 -355q0 -272 -139 -453q-145 -189 -388 -236q-92 -18 -218 -18h-554v135h579q134 0 228 30q140 40 242 168q83 105 104 253
q2 15 5 54z" />
    <glyph glyph-name="suchthat" unicode="&#x220d;" horiz-adv-x="948" vert-adv-y="2457"
d="M93 810l22 106q149 30 260 30q206 0 327 -114q111 -105 111 -279q0 -148 -77 -280q-168 -288 -590 -288q-77 0 -136 15l23 109q53 -7 102 -7q234 0 352 122q59 60 99 162h-481l28 153h472v15q0 130 -84 201q-86 73 -246 73q-80 0 -182 -18z" />
    <glyph glyph-name="minus" unicode="&#x2212;" horiz-adv-x="1425" vert-adv-y="2457"
d="M110 916h1206v-235h-1206v235z" />
    <glyph glyph-name="uni2213" unicode="&#x2213;" horiz-adv-x="1425" vert-adv-y="2457"
d="M110 454v235h494v392h219v-392h493v-235h-493v-470h-219v470h-494zM110 1182v235h1206v-235h-1206z" />
    <glyph glyph-name="fraction" unicode="&#x2215;" horiz-adv-x="302" vert-adv-y="2457"
d="M400 1566h279q-51 -72 -128 -222l-623 -1220q-32 -64 -32 -93q0 -11 5 -31h-277q51 68 116 192l607 1194q54 106 54 157q0 8 -1 23z" />
    <glyph glyph-name="asteriskmath" unicode="&#x2217;" horiz-adv-x="1186" vert-adv-y="2457"
d="M507 540l-234 84l84 146l189 -163l-43 247h179l-42 -247l188 163l85 -146l-235 -84l235 -84l-85 -146l-188 163l42 -247h-179l43 247l-189 -163l-84 146z" />
    <glyph glyph-name="ring" unicode="&#x2218;" horiz-adv-x="726" vert-adv-y="2457"
d="M368 1055q120 0 209 -90t89 -217t-89 -218q-88 -90 -213 -90q-124 0 -213 89q-90 91 -90 218q0 131 90 219q91 89 217 89zM367 951q-85 0 -144 -59t-59 -144q0 -84 60 -144q58 -59 140 -59t141 60q58 59 58 143q0 86 -59 144q-60 59 -137 59z" />
    <glyph glyph-name="proportional" unicode="&#x221d;" horiz-adv-x="2048" vert-adv-y="2457"
d="M1669 912v-145q-54 16 -104 16q-134 0 -213 -77q-43 -43 -96 -136q30 -81 89 -135q84 -77 184 -77q62 0 140 45v-173q-99 -40 -166 -40q-124 0 -220 89q-50 45 -92 127q-173 -265 -400 -265q-119 0 -223 66q-103 66 -153 180q-37 85 -37 180q0 167 97 288
q112 139 304 139q164 0 274 -109q58 -58 115 -154q56 79 99 123q95 96 217 96q77 0 185 -38zM1082 616q-4 7 -7 15q-23 45 -57 83q-108 115 -252 115q-117 0 -194 -74q-79 -75 -79 -194q0 -94 57 -165q70 -87 171 -87q84 0 173 57q92 60 161 194q28 54 27 56z" />
    <glyph glyph-name="orthogonal" unicode="&#x221f;" horiz-adv-x="2349" vert-adv-y="2457"
d="M141 0v2044h155v-1889h1912v-155h-2067z" />
    <glyph glyph-name="angle" unicode="&#x2220;" horiz-adv-x="2048" vert-adv-y="2457"
d="M1531 133v-133h-1072l896 1515l112 -68l-776 -1314h840z" />
    <glyph glyph-name="uni_2223" unicode="&#x2223;" horiz-adv-x="1024" vert-adv-y="2457"
d="M460 1536h105v-2048h-105v2048z" />
    <glyph glyph-name="uni2225" unicode="&#x2225;" horiz-adv-x="1479" vert-adv-y="2457"
d="M520 1814h118v-2336h-118v2336zM842 1814h118v-2336h-118v2336z" />
    <glyph glyph-name="uni_2227" unicode="&#x2227;" horiz-adv-x="2048" vert-adv-y="2457"
d="M447 0l518 1198h136l499 -1198h-146l-424 1020l-437 -1020h-146z" />
    <glyph glyph-name="uni_2228" unicode="&#x2228;" horiz-adv-x="2048" vert-adv-y="2457"
d="M1600 1198l-518 -1198h-135l-500 1198h146l425 -1020l436 1020h146z" />
    <glyph glyph-name="intersection" unicode="&#x2229;" horiz-adv-x="1484" vert-adv-y="2457"
d="M1404 0h-366v708q-3 180 -7 232q-10 120 -57 186q-40 55 -106 84q-61 28 -127 28q-102 0 -182 -59q-66 -50 -90 -131q-25 -82 -25 -340v-708h-365v702q0 250 14 358q13 95 44.5 165.5t91.5 135.5q188 205 512 205q231 0 397 -107q146 -95 208 -235q51 -115 56 -337
q2 -92 2 -185v-702z" />
    <glyph glyph-name="union" unicode="&#x222a;" horiz-adv-x="1484" vert-adv-y="2457"
d="M1404 1566v-702q0 -241 -15 -357q-13 -96 -44.5 -166.5t-90.5 -135.5q-189 -205 -513 -205q-232 0 -397 107q-146 95 -208 235q-52 117 -55 337q-2 88 -2 185v702h365v-708q0 -150 8 -237q10 -120 57 -183q39 -53 105 -82q61 -28 127 -28q102 0 182 59q68 51 93 138
q17 62 22 333v708h366z" />
    <glyph glyph-name="uni222E" unicode="&#x222e;" horiz-adv-x="1036" vert-adv-y="2457"
d="M643 332q-9 -508 -82 -673q-40 -90 -115 -141q-65 -44 -142 -44q-76 0 -125 41q-50 41 -50 106q0 51 32 86t79 35q45 0 77 -33q31 -32 31 -78q0 -17 -6 -41q-4 -15 -4 -23q0 -27 25 -27q55 0 96 68q43 72 43 164q0 59 -60 541q-132 22 -222 98q-152 127 -152 315
q0 179 139 303q65 57 162 90v74q4 310 31 451q66 345 302 345q78 0 132 -44q55 -44 55 -107q0 -51 -30 -85q-30 -35 -80 -35q-47 0 -81 29q-34 30 -34 76q0 17 6 40q6 24 6 33q0 27 -26 27q-43 0 -79 -47q-63 -81 -63 -208q0 -60 70 -533q129 -25 216 -100
q146 -125 146 -308q0 -134 -83 -243q-80 -106 -214 -152zM590 1055q52 -351 53 -603v-39q80 34 132 93q85 97 85 221q0 117 -76 209q-73 89 -194 119zM434 393q-50 291 -61 644q-83 -30 -137 -88q-89 -95 -89 -222q0 -162 134 -266q62 -48 153 -68z" />
    <glyph glyph-name="therefore" unicode="&#x2234;" horiz-adv-x="2048" vert-adv-y="2457"
d="M1526 262q58 0 98 -45q35 -38 35 -89q0 -60 -45 -100q-38 -35 -90 -35q-60 0 -99 45q-35 39 -35 91q0 57 45 98q37 35 91 35zM525 262q57 0 97 -45q35 -38 35 -89q0 -60 -45 -100q-38 -35 -90 -35q-59 0 -99 45q-35 38 -35 91q0 57 45 98q37 35 92 35zM1026 1280
q57 0 97 -45q35 -38 35 -89q0 -60 -45 -100q-38 -35 -89 -35q-60 0 -100 45q-35 38 -35 91q0 58 45 98q38 35 92 35z" />
    <glyph glyph-name="uni2235" unicode="&#x2235;" horiz-adv-x="2048" vert-adv-y="2457"
d="M1526 1280q58 0 98 -45q35 -38 35 -89q0 -60 -45 -100q-38 -35 -90 -35q-60 0 -99 45q-35 39 -35 91q0 57 45 98q37 35 91 35zM525 1280q57 0 97 -45q35 -38 35 -89q0 -60 -45 -100q-38 -35 -90 -35q-59 0 -99 45q-35 38 -35 91q0 57 45 98q38 35 92 35zM1026 262
q57 0 97 -45q35 -38 35 -89q0 -60 -45 -100q-38 -35 -89 -35q-60 0 -100 45q-35 38 -35 91q0 58 45 98q38 35 92 35z" />
    <glyph glyph-name="uni2237" unicode="&#x2237;" horiz-adv-x="2048" vert-adv-y="2457"
d="M1527 1280q57 0 97 -45q35 -38 35 -89q0 -60 -45 -100q-38 -35 -89 -35q-60 0 -100 45q-35 38 -35 91q0 58 45 98q38 35 92 35zM526 1280q57 0 97 -45q35 -38 35 -89q0 -60 -45 -100q-38 -35 -90 -35q-59 0 -99 45q-35 38 -35 91q0 57 45 98q38 35 92 35zM1527 262
q57 0 97 -45q35 -38 35 -89q0 -60 -45 -100q-38 -35 -90 -35q-59 0 -100 45q-34 38 -34 91q0 58 44 98q39 35 93 35zM526 262q57 0 97 -45q35 -38 35 -89q0 -60 -45 -100q-38 -35 -90 -35q-59 0 -99 45q-35 38 -35 91q0 57 45 98q37 35 92 35z" />
    <glyph glyph-name="asymptoticequal" unicode="&#x2243;" horiz-adv-x="1274" vert-adv-y="2457"
d="M254 513l-186 131q51 123 100 189q106 142 254 142q75 0 248 -72q90 -38 116 -46q45 -15 79 -15q83 0 155 115l186 -131q-61 -142 -114 -208q-101 -126 -238 -126q-56 0 -146 34q-37 15 -163 66q-89 36 -136 36q-80 0 -155 -115zM1206 332v-235h-1138v235h1138z" />
    <glyph glyph-name="congruent" unicode="&#x2245;" horiz-adv-x="1274" vert-adv-y="2457"
d="M1206 332v-235h-1138v235h1138zM254 922l-186 131q51 124 100 190q105 141 254 141q75 0 248 -72q92 -38 116 -46q45 -15 79 -15q83 0 155 114l186 -130q-62 -143 -114 -208q-101 -126 -238 -126q-55 0 -146 34q-40 16 -163 66q-90 36 -136 36q-81 0 -155 -115zM1206 741
v-235h-1138v235h1138z" />
    <glyph glyph-name="equivalence" unicode="&#x2261;" horiz-adv-x="1342" vert-adv-y="2457"
d="M1274 1151v-235h-1206v235h1206zM1274 741v-235h-1206v235h1206zM1274 332v-235h-1206v235h1206z" />
    <glyph glyph-name="uni2262" unicode="&#x2262;" horiz-adv-x="1342" vert-adv-y="2457"
d="M924 916l-77 -175h427v-235h-531l-77 -174h608v-235h-712l-78 -175l-205 90l37 85h-248v235h352l78 174h-430v235h534l77 175h-611v235h715l96 217l205 -90l-56 -127h246v-235h-350z" />
    <glyph glyph-name="uni226A" unicode="&#x226a;" horiz-adv-x="2048" vert-adv-y="2457"
d="M1692 1194v-154l-1099 -487l1099 -486v-154l-1341 596v89zM1692 913v-156l-473 -204l473 -203v-156l-816 359z" />
    <glyph glyph-name="uni226B" unicode="&#x226b;" horiz-adv-x="2048" vert-adv-y="2457"
d="M351 1194l1341 -596v-89l-1341 -596v154l1099 486l-1099 487v154zM351 913l816 -360l-816 -359v156l473 203l-473 204v156z" />
    <glyph glyph-name="propersubset" unicode="&#x2282;" horiz-adv-x="2048" vert-adv-y="2457"
d="M1663 1271v-135h-494q-141 0 -207 -10q-223 -35 -342 -165q-111 -121 -111 -326q0 -333 300 -450q103 -41 225 -49q34 -2 135 -2h494v-134h-494q-160 0 -230 11q-262 40 -418 210q-152 167 -152 414t152 413q156 171 418 212q67 11 230 11h494z" />
    <glyph glyph-name="propersuperset" unicode="&#x2283;" horiz-adv-x="2048" vert-adv-y="2457"
d="M369 1271h495q160 0 230 -11q261 -40 418 -212q152 -166 152 -413q0 -248 -152 -414q-156 -169 -418 -211q-67 -10 -230 -10h-495v134h495q141 0 207 10q223 36 342 165q112 121 112 326q0 333 -301 450q-103 41 -226 49q-34 2 -134 2h-495v135z" />
    <glyph glyph-name="notsubset" unicode="&#x2284;" horiz-adv-x="2048" vert-adv-y="2457"
d="M1419 1271h244v-135h-305l-446 -982q101 -21 257 -20h494v-134h-494q-141 0 -216 9q-52 8 -98 19l-79 -174h-146l99 217q-65 32 -112 66q-248 180 -248 498q0 247 152 414q156 170 418 211q67 11 230 11h105l69 153h146zM785 195l428 941h-44q-141 0 -207 -10
q-223 -35 -342 -165q-111 -121 -111 -326q0 -263 186 -391q36 -24 90 -49z" />
    <glyph glyph-name="uni2285" unicode="&#x2285;" horiz-adv-x="2048" vert-adv-y="2457"
d="M613 1271l-70 153h146l69 -153h105q161 0 230 -11q261 -40 418 -211q152 -166 152 -414q0 -318 -247 -498q-48 -34 -113 -66l99 -217h-145l-79 174q-70 -17 -137 -24q-53 -4 -178 -4h-494v134h494q157 -1 257 20l-446 982h-305v135h244zM1247 195q55 25 90 49
q187 127 187 391q0 333 -301 450q-102 41 -225 49q-34 2 -135 2h-43z" />
    <glyph glyph-name="reflexsubset" unicode="&#x2286;" horiz-adv-x="2048" vert-adv-y="2457"
d="M1662 1289v-134h-716q-216 0 -303 -58q-128 -85 -128 -263q0 -325 423 -325h724v-134h-735q-259 0 -382 95q-170 130 -170 362q0 254 197 382q115 75 374 75h716zM1662 0h-1270v134h1270v-134z" />
    <glyph glyph-name="reflexsuperset" unicode="&#x2287;" horiz-adv-x="2048" vert-adv-y="2457"
d="M375 1289h716q133 0 219 -16q195 -37 293 -203q59 -99 59 -238q0 -262 -207 -388q-113 -69 -345 -69h-735v134h724q423 0 423 326q0 100 -45 175q-51 85 -142 116q-81 29 -244 29h-716v134zM392 0v134h1270v-134h-1270z" />
    <glyph glyph-name="circleplus" unicode="&#x2295;" horiz-adv-x="2048" vert-adv-y="2457"
d="M1032 1465q194 0 373 -106q186 -110 281 -306q75 -155 75 -323q0 -198 -102 -374q-101 -175 -278 -271q-166 -91 -356 -91q-200 0 -375 101q-190 109 -287 305q-77 155 -77 326q0 216 114 398q107 170 292 263q156 78 340 78zM1083 1348v-556h556q-23 220 -176 376
q-158 161 -380 180zM1640 676h-557v-566q98 8 196 53q235 109 326 351q30 80 35 162zM969 110v566h-561q22 -234 184 -392q121 -120 293 -161q42 -9 84 -13zM408 792h561v556q-221 -19 -380 -177q-158 -156 -181 -379z" />
    <glyph glyph-name="uni2296" unicode="&#x2296;" horiz-adv-x="2048" vert-adv-y="2457"
d="M1032 1425q198 0 382 -115q165 -103 257 -275q90 -167 90 -352q0 -194 -100 -365q-106 -181 -291 -281q-166 -89 -349 -89q-208 0 -389 114q-176 111 -268 297q-77 156 -77 325q0 209 109 389q104 171 289 268q161 84 347 84zM1639 626h-1231q18 -170 115 -302
q84 -114 211 -181q137 -72 290 -72q198 0 362 117q177 125 235 335q13 46 18 103zM409 747h1230q-18 178 -122 312q-83 107 -202 170q-138 73 -293 73q-196 0 -357 -115q-170 -121 -233 -322q-16 -54 -23 -118z" />
    <glyph glyph-name="circlemultiply" unicode="&#x2297;" horiz-adv-x="2048" vert-adv-y="2457"
d="M1032 1423q198 0 382 -115q164 -102 256 -273q89 -167 89 -350q0 -193 -100 -365q-105 -181 -290 -280q-166 -89 -347 -89q-207 0 -388 114q-175 110 -267 296q-77 155 -77 324q0 208 109 386q104 171 288 268q160 84 345 84zM1412 1164q-174 136 -389 136
q-218 0 -390 -139l391 -385zM1495 1084l-389 -390l393 -399q142 173 142 393q0 222 -146 396zM1416 214l-392 399l-395 -396q179 -143 395 -143q220 0 392 140zM547 299l395 395l-391 385q-142 -174 -142 -394q0 -219 138 -386z" />
    <glyph glyph-name="uni2298" unicode="&#x2298;" horiz-adv-x="2048" vert-adv-y="2457"
d="M1032 1423q198 0 382 -115q164 -102 256 -273q89 -167 89 -350q0 -193 -100 -365q-105 -181 -290 -280q-166 -89 -347 -89q-207 0 -388 114q-175 110 -267 296q-77 155 -77 324q0 208 109 386q104 171 288 268q160 84 345 84zM547 298l865 866q-174 136 -390 136
q-250 0 -430 -177q-184 -180 -184 -439q0 -211 139 -386zM1502 1075l-865 -865q175 -136 388 -136q172 0 322 91q155 94 233 257q61 125 61 265q0 216 -139 388z" />
    <glyph glyph-name="uni2299" unicode="&#x2299;" horiz-adv-x="2048" vert-adv-y="2457"
d="M1025 811q51 0 87 -36q36 -37 36 -88t-36 -87q-37 -37 -88 -37t-88 37q-36 36 -36 87q0 52 36 88q37 36 89 36zM1032 1425q198 0 382 -115q165 -102 257 -274q90 -168 90 -352q0 -194 -100 -366q-106 -180 -291 -280q-166 -89 -349 -89q-208 0 -389 114
q-176 111 -268 297q-77 156 -77 325q0 208 109 388q104 171 289 268q161 84 347 84zM1031 1302q-259 0 -440 -177q-185 -181 -185 -442q0 -253 181 -432q82 -80 189 -127q120 -52 248 -52q173 0 324 91q155 94 234 257q61 126 61 267q0 185 -100 336q-85 130 -228 206
q-137 73 -284 73z" />
    <glyph glyph-name="uni22A2" unicode="&#x22a2;" horiz-adv-x="2048" vert-adv-y="2457"
d="M375 0v1139h136v-501h1151v-137h-1151v-501h-136z" />
    <glyph glyph-name="uni22A3" unicode="&#x22a3;" horiz-adv-x="2048" vert-adv-y="2457"
d="M1662 1139v-1139h-136v501h-1151v137h1151v501h136z" />
    <glyph glyph-name="uni22A4" unicode="&#x22a4;" horiz-adv-x="2048" vert-adv-y="2457"
d="M951 0v1157h-492v137h1119v-137h-490v-1157h-137z" />
    <glyph glyph-name="perpendicular" unicode="&#x22a5;" horiz-adv-x="2048" vert-adv-y="2457"
d="M951 1295h137v-1158h490v-137h-1119v137h492v1158z" />
    <glyph glyph-name="uni_22BB" unicode="&#x22bb;" horiz-adv-x="2048" vert-adv-y="2457"
d="M447 1191h147l425 -1007l430 1007h151l-512 -1191h-139zM447 -296v136h1145v-136h-1145z" />
    <glyph glyph-name="house" unicode="&#x2302;" horiz-adv-x="1237" vert-adv-y="2457"
d="M32 0v807l586 659l586 -659v-807h-1172zM135 103h966v660l-483 542l-483 -542v-660z" />
    <glyph glyph-name="revlogicalnot" unicode="&#x2310;" horiz-adv-x="1196" vert-adv-y="2457"
d="M1104 863v-141h-872v-440h-141v581h1013z" />
    <glyph glyph-name="integraltp" unicode="&#x2320;" horiz-adv-x="1237" vert-adv-y="2457"
d="M692 -438h-147v1472q0 288 11 435q16 197 73 290q48 78 136 78q59 0 97 -39q29 -31 29 -71q0 -41 -30 -72q-26 -28 -66 -28q-41 0 -70 30q-25 26 -40 26q-35 0 -35 -56q0 -32 12 -154q30 -302 30 -421v-1490z" />
    <glyph glyph-name="integralbt" unicode="&#x2321;" horiz-adv-x="1237" vert-adv-y="2457"
d="M545 1836h147v-1472q0 -290 -11 -434q-16 -198 -73 -290q-47 -78 -136 -78q-60 0 -97 39q-29 31 -29 70q0 42 30 73q26 27 66 27q41 0 70 -30q25 -25 39 -25q36 0 36 57q0 34 -12 153q-30 298 -30 421v1489z" />
    <glyph glyph-name="angleleft" unicode="&#x2329;" horiz-adv-x="682" vert-adv-y="2457"
d="M97 630l390 1014l86 -32l-379 -982l379 -982l-86 -32z" />
    <glyph glyph-name="angleright" unicode="&#x232a;" horiz-adv-x="682" vert-adv-y="2457"
d="M573 630l-390 -1014l-86 32l379 982l-379 982l86 32z" />
    <glyph glyph-name="2500" unicode="&#x2500;" horiz-adv-x="1451" vert-adv-y="2457"
d="M1473 534h-1496v175h1496v-175z" />
    <glyph glyph-name="2502" unicode="&#x2502;" horiz-adv-x="1280" vert-adv-y="2457"
d="M457 -621v2485h175v-2485h-175z" />
    <glyph glyph-name="250c" unicode="&#x250c;" horiz-adv-x="1451" vert-adv-y="2457"
d="M1474 709v-175h-661v-1155h-175v1330h836z" />
    <glyph glyph-name="2510" unicode="&#x2510;" horiz-adv-x="1451" vert-adv-y="2457"
d="M637 534h-660v175h835v-1330h-175v1155z" />
    <glyph glyph-name="2514" unicode="&#x2514;" horiz-adv-x="1451" vert-adv-y="2457"
d="M638 534v1330h175v-1155h661v-175h-836z" />
    <glyph glyph-name="2518" unicode="&#x2518;" horiz-adv-x="1451" vert-adv-y="2457"
d="M812 534h-835v175h660v1155h175v-1330z" />
    <glyph glyph-name="251c" unicode="&#x251c;" horiz-adv-x="1451" vert-adv-y="2457"
d="M638 -621v2485h175v-1155h661v-175h-661v-1155h-175z" />
    <glyph glyph-name="2524" unicode="&#x2524;" horiz-adv-x="1451" vert-adv-y="2457"
d="M637 -621v1155h-660v175h660v1155h175v-2485h-175z" />
    <glyph glyph-name="252c" unicode="&#x252c;" horiz-adv-x="1451" vert-adv-y="2457"
d="M637 534h-660v175h1496v-175h-661v-1155h-175v1155z" />
    <glyph glyph-name="2534" unicode="&#x2534;" horiz-adv-x="1451" vert-adv-y="2457"
d="M1473 534h-1496v175h660v1155h175v-1155h661v-175z" />
    <glyph glyph-name="253c" unicode="&#x253c;" horiz-adv-x="1451" vert-adv-y="2457"
d="M637 534h-660v175h660v1155h175v-1155h661v-175h-661v-1155h-175v1155z" />
    <glyph glyph-name="2550" unicode="&#x2550;" horiz-adv-x="1451" vert-adv-y="2457"
d="M1473 724h-1496v175h1496v-175zM1473 344h-1496v175h1496v-175z" />
    <glyph glyph-name="2551" unicode="&#x2551;" horiz-adv-x="1451" vert-adv-y="2457"
d="M828 -621v2485h175v-2485h-175zM448 -621v2485h175v-2485h-175z" />
    <glyph glyph-name="2552" unicode="&#x2552;" horiz-adv-x="1451" vert-adv-y="2457"
d="M638 -621v1520h836v-175h-661v-205h661v-175h-661v-965h-175z" />
    <glyph glyph-name="2553" unicode="&#x2553;" horiz-adv-x="1451" vert-adv-y="2457"
d="M448 -621v1330h1026v-175h-471v-1155h-175v1140h-205v-1140h-175z" />
    <glyph glyph-name="2554" unicode="&#x2554;" horiz-adv-x="1451" vert-adv-y="2457"
d="M623 -621h-175v1520h1025v-175h-850v-1345zM1003 344v-965h-175v1140h645v-175h-470z" />
    <glyph glyph-name="2555" unicode="&#x2555;" horiz-adv-x="1451" vert-adv-y="2457"
d="M637 344h-660v175h660v205h-660v175h835v-1520h-175v965z" />
    <glyph glyph-name="2556" unicode="&#x2556;" horiz-adv-x="1451" vert-adv-y="2457"
d="M447 -621l1 1155h-471v175h1025v-1330h-175v1155h-205v-1155h-175z" />
    <glyph glyph-name="2557" unicode="&#x2557;" horiz-adv-x="1451" vert-adv-y="2457"
d="M827 -621v1345h-850v175h1025v-1520h-175zM-23 344v175h645v-1140h-175v965h-470z" />
    <glyph glyph-name="2558" unicode="&#x2558;" horiz-adv-x="1451" vert-adv-y="2457"
d="M638 344v1520h175v-965h661v-175h-661v-205h661v-175h-836z" />
    <glyph glyph-name="2559" unicode="&#x2559;" horiz-adv-x="1451" vert-adv-y="2457"
d="M1474 534h-1026v1330h175v-1155h205v1155h175v-1155h471v-175z" />
    <glyph glyph-name="255a" unicode="&#x255a;" horiz-adv-x="1451" vert-adv-y="2457"
d="M623 1864v-1345h850v-175h-1025v1520h175zM1003 899h470v-175h-645v1140h175v-965z" />
    <glyph glyph-name="255b" unicode="&#x255b;" horiz-adv-x="1451" vert-adv-y="2457"
d="M812 344h-835v175h660v205h-660v175h660v965h175v-1520z" />
    <glyph glyph-name="255c" unicode="&#x255c;" horiz-adv-x="1451" vert-adv-y="2457"
d="M1002 534h-1025v175h470v1155h175v-1155h205v1155h175v-1330z" />
    <glyph glyph-name="255d" unicode="&#x255d;" horiz-adv-x="1451" vert-adv-y="2457"
d="M827 1864h175v-1520h-1025v175h850v1345zM447 899v965h175v-1140h-645v175h470z" />
    <glyph glyph-name="255e" unicode="&#x255e;" horiz-adv-x="1451" vert-adv-y="2457"
d="M638 -621v2485h175v-965h661v-175h-661v-205h661v-175h-661v-965h-175z" />
    <glyph glyph-name="255f" unicode="&#x255f;" horiz-adv-x="1451" vert-adv-y="2457"
d="M828 -621v2485h175v-1155h471v-175h-471v-1155h-175zM448 -621v2485h175v-2485h-175z" />
    <glyph glyph-name="2560" unicode="&#x2560;" horiz-adv-x="1451" vert-adv-y="2457"
d="M448 -621v2485h175v-2485h-175zM828 724v1140h175v-965h471v-175h-646zM828 -621v1140h646v-175h-471v-965h-175z" />
    <glyph glyph-name="2561" unicode="&#x2561;" horiz-adv-x="1451" vert-adv-y="2457"
d="M637 344h-660v175h661l-1 205h-660v175h660v965h175v-2485h-175v965z" />
    <glyph glyph-name="2562" unicode="&#x2562;" horiz-adv-x="1451" vert-adv-y="2457"
d="M447 -621l1 1155h-471v175h470v1155h175v-2485h-175zM827 -621v2485h175v-2485h-175z" />
    <glyph glyph-name="2563" unicode="&#x2563;" horiz-adv-x="1451" vert-adv-y="2457"
d="M827 -621v2485h175v-2485h-175zM622 1864v-1140h-645v175h470v965h175zM447 344h-470v175h645v-1140h-175v965z" />
    <glyph glyph-name="2564" unicode="&#x2564;" horiz-adv-x="1451" vert-adv-y="2457"
d="M1473 724h-1496v175h1496v-175zM637 344h-660v175h1496v-175h-661v-965h-175v965z" />
    <glyph glyph-name="2565" unicode="&#x2565;" horiz-adv-x="1451" vert-adv-y="2457"
d="M447 -621l1 1155h-471v175h1496v-175h-471v-1155h-175v1140h-205v-1140h-175z" />
    <glyph glyph-name="2566" unicode="&#x2566;" horiz-adv-x="1451" vert-adv-y="2457"
d="M1473 724h-1496v175h1496v-175zM447 344h-470v175h645v-1140h-175v965zM827 -621v1140h646v-175h-471v-965h-175z" />
    <glyph glyph-name="2567" unicode="&#x2567;" horiz-adv-x="1451" vert-adv-y="2457"
d="M1473 724h-1496v175h660v965h175v-965h661v-175zM1473 344h-1496v175h1496v-175z" />
    <glyph glyph-name="2568" unicode="&#x2568;" horiz-adv-x="1451" vert-adv-y="2457"
d="M1473 534h-1496v175h470v1155h175v-1155h205v1155h175v-1155h471v-175z" />
    <glyph glyph-name="2569" unicode="&#x2569;" horiz-adv-x="1451" vert-adv-y="2457"
d="M622 724h-645v175h470v965h175v-1140zM1473 724h-646v1140h175v-965h471v-175zM1473 344h-1496v175h1496v-175z" />
    <glyph glyph-name="256a" unicode="&#x256a;" horiz-adv-x="1451" vert-adv-y="2457"
d="M637 344h-660v175h660v205h-660v175h660v965h175v-965h661v-175h-661v-205h661v-175h-661v-965h-175v965z" />
    <glyph glyph-name="256b" unicode="&#x256b;" horiz-adv-x="1451" vert-adv-y="2457"
d="M447 -621l1 1155h-471v175h470v1155h175v-1155h205v1155h175v-1155h471v-175h-471v-1155h-175v1155h-205v-1155h-175z" />
    <glyph glyph-name="256c" unicode="&#x256c;" horiz-adv-x="1451" vert-adv-y="2457"
d="M1003 899h470v-175h-645v1140h175v-965zM447 899v965h175v-1140h-645v175h470zM447 344h-470v175h645v-1140h-175v965zM1003 344v-965h-175v1140h645v-175h-470z" />
    <glyph glyph-name="uni256D" unicode="&#x256d;" horiz-adv-x="2048" vert-adv-y="2457"
d="M2048 576v-128h-105q-395 -8 -582 -148q-186 -134 -244 -369q-17 -73 -21 -161l-5 -114l-3 -64v-104h-128v104q1 327 58 469q86 231 285 362q224 153 640 153h105z" />
    <glyph glyph-name="uni256E" unicode="&#x256e;" horiz-adv-x="2048" vert-adv-y="2457"
d="M0 576h105q479 -1 715 -210q141 -122 210 -306q57 -141 58 -468v-104h-128v104l-3 64q-8 170 -13 211.5t-25 107.5q-72 228 -269 350q-183 116 -545 123h-105v128z" />
    <glyph glyph-name="uni256F" unicode="&#x256f;" horiz-adv-x="2048" vert-adv-y="2457"
d="M0 448v128h105q396 8 582 147q185 135 244 370q17 73 21 162l5 113l3 64v104h128v-104q-1 -327 -58 -468q-131 -350 -490 -459q-192 -57 -435 -57h-105z" />
    <glyph glyph-name="uni2570" unicode="&#x2570;" horiz-adv-x="2048" vert-adv-y="2457"
d="M2048 448h-105q-479 1 -715 209q-141 123 -210 307q-57 141 -58 468v104h128v-104l3 -64q8 -171 13 -212.5t25 -106.5q71 -228 269 -350q182 -117 545 -123h105v-128z" />
    <glyph glyph-name="upblock" unicode="&#x2580;" horiz-adv-x="1451" vert-adv-y="2457"
d="M1473 621h-1496v1243h1496v-1243z" />
    <glyph glyph-name="dnblock" unicode="&#x2584;" horiz-adv-x="1451" vert-adv-y="2457"
d="M1473 -621h-1496v1242h1496v-1242z" />
    <glyph glyph-name="block" unicode="&#x2588;" horiz-adv-x="1451" vert-adv-y="2457"
d="M-23 -621v2485h1496v-2485h-1496z" />
    <glyph glyph-name="lfblock" unicode="&#x258c;" horiz-adv-x="1451" vert-adv-y="2457"
d="M-23 -621v2485h748v-2485h-748z" />
    <glyph glyph-name="rtblock" unicode="&#x2590;" horiz-adv-x="1451" vert-adv-y="2457"
d="M726 -621v2485h748v-2485h-748z" />
    <glyph glyph-name="ltshade" unicode="&#x2591;" horiz-adv-x="1451" vert-adv-y="2457"
d="M102 1864h125v-125h-125v125zM600 1864h125v-125h-125v125zM1099 1864h125v-125h-125v125zM351 1615h125v-125h-125v125zM850 1615h124v-125h-124v125zM1348 1615h125v-125h-125v125zM1099 1366h125v-125h-125v125zM600 1366h125v-125h-125v125zM102 1366h125v-125h-125
v125zM1348 1116h125v-124h-125v124zM850 1116h124v-124h-124v124zM351 1116h125v-124h-125v124zM102 867h125v-125h-125v125zM600 867h125v-125h-125v125zM1099 867h125v-125h-125v125zM1348 618h125v-125h-125v125zM850 618h124v-125h-124v125zM351 618h125v-125h-125v125z
M102 369h125v-125h-125v125zM600 369h125v-125h-125v125zM1099 369h125v-125h-125v125zM351 119h125v-124h-125v124zM850 119h124v-124h-124v124zM1348 119h125v-124h-125v124zM1099 -130h125v-125h-125v125zM600 -130h125v-125h-125v125zM102 -130h125v-125h-125v125z
M351 -379h125v-125h-125v125zM850 -379h124v-125h-124v125zM1348 -379h125v-125h-125v125z" />
    <glyph glyph-name="shade" unicode="&#x2592;" horiz-adv-x="1451" vert-adv-y="2457"
d="M103 1864h124v-125h-124v125zM352 1864h124v-125h-124v125zM601 1864h125v-125h-125v125zM850 1864h125v-125h-125v125zM1100 1864h124v-125h-124v125zM1349 1864h124v-125h-124v125zM-22 1615h125v-125h-125v125zM227 1615h125v-125h-125v125zM476 1615h125v-125h-125
v125zM726 1615h124v-125h-124v125zM975 1615h125v-125h-125v125zM1224 1615h125v-125h-125v125h125v-125h-125v125h125v-125h-125v125zM103 1366h124v-125h-124v125zM352 1366h124v-125h-124v125zM601 1366h125v-125h-125v125zM850 1366h125v-125h-125v125zM1100 1366h124
v-125h-124v125zM1349 1366h124v-125h-124v125zM-22 1116h125v-124h-125v124zM227 1116h125v-124h-125v124zM476 1116h125v-124h-125v124zM726 1116h124v-124h-124v124zM975 1116h125v-124h-125v124zM1224 1116h125v-124h-125v124h125v-124h-125v124h125v-124h-125v124z
M103 867h124v-125h-124v125zM352 867h124v-125h-124v125zM601 867h125v-125h-125v125zM850 867h125v-125h-125v125zM1100 867h124v-125h-124v125zM1349 867h124v-125h-124v125zM-22 618h125v-125h-125v125zM476 618h125v-125h-125v125zM726 618h124v-125h-124v125zM975 618
h125v-125h-125v125zM1224 618h125v-125h-125v125zM227 618h125v-125h-125v125zM1349 369h124v-125h-124v125zM1100 369h124v-125h-124v125zM850 369h125v-125h-125v125zM601 369h125v-125h-125v125zM352 369h124v-125h-124v125zM103 369h124v-125h-124v125zM-22 119h125
v-124h-125v124zM227 119h125v-124h-125v124zM476 119h125v-124h-125v124zM726 119h124v-124h-124v124zM975 119h125v-124h-125v124zM1224 119h125v-124h-125v124zM1349 -130h124v-125h-124v125zM1100 -130h124v-125h-124v125zM850 -130h125v-125h-125v125zM601 -130h125
v-125h-125v125zM352 -130h124v-125h-124v125zM103 -130h124v-125h-124v125zM-22 -379h125v-125h-125v125zM227 -379h125v-125h-125v125zM476 -379h125v-125h-125v125zM726 -379h124v-125h-124v125zM975 -379h125v-125h-125v125zM1224 -379h125v-125h-125v125z" />
    <glyph glyph-name="dkshade" unicode="&#x2593;" horiz-adv-x="1493" vert-adv-y="2457"
d="M1494 1490v-374h-124v-124h124v-374h-124v-125h124v-374h-124v-124h124v-374h-124v-125h124v-124h-1495v373h125v125h-125v374h125v125h-125v373h125v125h-125v374h125v125h-125v373h125v125h124v-125h125v125h124v-125h125v125h125v-125h124v125h125v-125h125v125h124
v-125h125v125h124v-249h-124v-125h124zM124 1615v-125h124v125h-124zM373 1615v-125h124v125h-124zM622 1615v-125h125v125h-125zM871 1615v-125h125v125h-125zM1121 1615v-125h124v125h-124zM1370 1366h-125v-125h125v125zM1121 1366h-125v-125h125v125zM871 1366h-124
v-125h124v125zM622 1366h-125v-125h125v125zM373 1366h-125v-125h125v125zM124 1116v-124h124v124h-124zM373 1116v-124h124v124h-124zM622 1116v-124h125v124h-125zM871 1116v-124h125v124h-125zM1121 1116v-124h124v124h-124zM373 867h-125v-125h125v125zM497 867v-125
h125v125h-125zM747 867v-125h124v125h-124zM996 867v-125h125v125h-125zM1245 867v-125h125v125h-125zM124 618v-125h124v125h-124zM622 618v-125h125v125h-125zM497 493v125h-124v-125h124zM871 618v-125h125v125h-125zM1121 618v-125h124v125h-124zM1370 244v125h-125
v-125h125zM1121 244v125h-125v-125h125zM871 244v125h-124v-125h124zM622 244v125h-125v-125h125zM373 244v125h-125v-125h125zM124 119v-124h124v124h-124zM373 119v-124h124v124h-124zM622 119v-124h125v124h-125zM871 119v-124h125v124h-125zM1121 119v-124h124v124h-124
zM1370 -255v125h-125v-125h125zM1121 -255v125h-125v-125h125zM871 -255v125h-124v-125h124zM622 -255v125h-125v-125h125zM373 -255v125h-125v-125h125zM124 -379v-125h124v125h-124zM373 -379v-125h124v125h-124zM622 -379v-125h125v125h-125zM871 -379v-125h125v125h-125
zM1121 -379v-125h124v125h-124z" />
    <glyph glyph-name="filledbox" unicode="&#x25a0;" horiz-adv-x="1237" vert-adv-y="2457"
d="M-115 1466h1466v-1466h-1466v1466z" />
    <glyph glyph-name="whitesquare" unicode="&#x25a1;" horiz-adv-x="1237" vert-adv-y="2457"
d="M1351 0h-1466v1466h1466v-1466zM1248 103v1260h-1260v-1260h1260z" />
    <glyph glyph-name="blacksmallsquare" unicode="&#x25aa;" horiz-adv-x="726" vert-adv-y="2457"
d="M594 908v-463h-463v463h463z" />
    <glyph glyph-name="whitesmallsquare" unicode="&#x25ab;" horiz-adv-x="726" vert-adv-y="2457"
d="M594 908v-463h-463v463h463zM518 832h-311v-311h311v311z" />
    <glyph glyph-name="filledrect" unicode="&#x25ac;" horiz-adv-x="2048" vert-adv-y="2457"
d="M291 0v734h1466v-734h-1466z" />
    <glyph glyph-name="triagup" unicode="&#x25b2;" horiz-adv-x="1229" vert-adv-y="2457"
d="M1047 432h-865l432 819z" />
    <glyph glyph-name="uni25B5" unicode="&#x25b5;" horiz-adv-x="1479" vert-adv-y="2457"
d="M1227 76h-975l488 964zM1028 196l-287 582l-293 -582h580z" />
    <glyph glyph-name="uni25B9" unicode="&#x25b9;" horiz-adv-x="1479" vert-adv-y="2457"
d="M262 63v985l954 -492zM388 274l587 283l-587 292v-575z" />
    <glyph glyph-name="triagrt" unicode="&#x25ba;" horiz-adv-x="1566" vert-adv-y="2457"
d="M1494 791l-1329 -470v940z" />
    <glyph glyph-name="triagdn" unicode="&#x25bc;" horiz-adv-x="1229" vert-adv-y="2457"
d="M1047 1104l-433 -819l-432 819h865z" />
    <glyph glyph-name="uni25BF" unicode="&#x25bf;" horiz-adv-x="1479" vert-adv-y="2457"
d="M252 1039h975l-488 -963zM451 919l287 -582l293 582h-580z" />
    <glyph glyph-name="uni25C3" unicode="&#x25c3;" horiz-adv-x="1479" vert-adv-y="2457"
d="M1217 63l-954 493l954 492v-985zM1091 274v575l-588 -292z" />
    <glyph glyph-name="triaglf" unicode="&#x25c4;" horiz-adv-x="1566" vert-adv-y="2457"
d="M73 791l1329 470v-940z" />
    <glyph glyph-name="uni25C6" unicode="&#x25c6;" horiz-adv-x="2048" vert-adv-y="2457"
d="M1031 1335l539 -601l-539 -600l-539 600z" />
    <glyph glyph-name="uni_25C7" unicode="&#x25c7;" horiz-adv-x="1459" vert-adv-y="2457"
d="M727 1391l515 -706l-515 -712l-509 712zM727 1232l-378 -547l378 -546l382 546z" />
    <glyph glyph-name="circle" unicode="&#x25cb;" horiz-adv-x="1237" vert-adv-y="2457"
d="M618 1295q245 0 415 -187q146 -161 146 -374q0 -148 -77 -279q-75 -130 -205 -206q-131 -76 -283 -76q-144 0 -275 76q-130 76 -205 206q-77 132 -77 288q0 234 187 406q88 80 201 117q88 29 173 29zM618 1196q-204 0 -343 -154q-119 -131 -119 -301q0 -213 153 -351
q133 -119 306 -119q208 0 347 153q119 133 119 310q0 202 -154 343q-130 119 -309 119z" />
    <glyph glyph-name="blackcircle" unicode="&#x25cf;" horiz-adv-x="1237" vert-adv-y="2457"
d="M618 1018q152 0 276 -96q82 -63 127 -167q38 -86 38 -180q0 -180 -129 -309t-311 -129q-183 0 -312 129t-129 310q0 187 130 316q64 63 159 98q76 28 151 28z" />
    <glyph glyph-name="invbullet" unicode="&#x25d8;" horiz-adv-x="1237" vert-adv-y="2457"
d="M-5 0v1247h1247v-1247h-1247zM623 880q-118 0 -196 -85q-66 -73 -66 -170q0 -116 85 -193q74 -66 172 -66q115 0 192 85q66 73 66 172q0 113 -86 191q-72 66 -167 66z" />
    <glyph glyph-name="invcircle" unicode="&#x25d9;" horiz-adv-x="1237" vert-adv-y="2457"
d="M618 1295q-245 0 -415 -187q-79 -87 -117 -198q-29 -85 -29 -167q0 -256 187 -424q161 -146 370 -146q152 0 283 76q130 76 205 206q77 132 77 279q0 243 -187 415q-160 146 -374 146zM1350 0h-1466v1466h1466v-1466zM617 1196q205 0 344 -153q119 -132 119 -309
q0 -205 -153 -344q-133 -119 -313 -119q-120 0 -228 63q-107 62 -168 168q-63 109 -63 239q0 195 154 336q130 119 308 119z" />
    <glyph glyph-name="openbullet" unicode="&#x25e6;" horiz-adv-x="726" vert-adv-y="2457"
d="M368 1055q120 0 209 -90t89 -217t-89 -218q-88 -90 -213 -90q-124 0 -213 89q-90 91 -90 218q0 131 90 219q91 89 217 89zM367 951q-85 0 -144 -59t-59 -144q0 -84 60 -144q58 -59 140 -59t141 60q58 59 58 143q0 86 -59 144q-60 59 -137 59z" />
    <glyph glyph-name="smileface" unicode="&#x263a;" horiz-adv-x="2091" vert-adv-y="2457"
d="M1046 1468q325 0 545 -243q189 -208 189 -491q0 -197 -99 -368q-98 -169 -267 -267q-171 -99 -374 -99q-191 0 -362 99q-170 98 -267 267q-99 172 -99 380q0 192 99 356q104 173 267 267q170 99 368 99zM1046 1369q-282 0 -472 -210q-90 -99 -131 -225q-32 -96 -32 -190
q0 -294 210 -482q181 -163 420 -163q176 0 323 85q149 85 233 233q85 148 85 317q0 280 -210 472q-100 91 -230 132q-99 31 -196 31zM826 1041q44 0 74 -34q27 -29 27 -67q0 -43 -34 -74q-29 -26 -67 -26q-43 0 -74 34q-26 29 -26 68q0 41 34 73q28 26 66 26zM569 825
q22 -93 50 -141q66 -111 181 -172q102 -55 246 -55q239 0 380 163q48 54 70 112q12 30 27 93q-13 -154 -40 -230q-110 -305 -437 -305q-254 0 -381 192q-50 76 -72 165q-14 60 -24 178zM1266 1041q43 0 73 -34q27 -29 27 -67q0 -43 -34 -74q-29 -26 -67 -26q-43 0 -74 34
q-26 29 -26 68q0 42 34 73q29 26 67 26z" />
    <glyph glyph-name="invsmileface" unicode="&#x263b;" horiz-adv-x="2155" vert-adv-y="2457"
d="M1079 1468q325 0 545 -243q189 -208 189 -491q0 -197 -99 -368q-98 -169 -267 -267q-171 -99 -374 -99q-191 0 -362 99q-170 98 -267 267q-99 172 -99 380q0 192 99 356q104 173 267 267q170 99 368 99zM859 1052q-47 0 -81 -37q-29 -33 -29 -72q0 -50 37 -84
q32 -29 73 -29q48 0 82 37q29 33 29 74q0 47 -37 81q-32 30 -74 30zM602 825q13 -154 40 -230q110 -305 437 -305q254 0 381 192q50 76 72 165q14 60 24 178q-22 -93 -50 -141q-66 -112 -181 -173q-102 -55 -246 -55q-239 0 -380 163q-48 55 -70 113q-12 30 -27 93z
M1298 1052q-47 0 -82 -37q-29 -32 -29 -72q0 -50 37 -84q32 -29 73 -29q49 0 83 37q29 32 29 74q0 47 -37 81q-32 30 -74 30z" />
    </font>
</defs>
</svg>
