<?xml version="1.0" encoding="utf-8"?>
<!-- Generator: Adobe Illustrator 22.1.0, SVG Export Plug-In . SVG Version: 6.00 Build 0)  -->
<svg version="1.1" xmlns="http://www.w3.org/2000/svg" xmlns:xlink="http://www.w3.org/1999/xlink" x="0px" y="0px"
	 viewBox="0 0 140 64.8" style="enable-background:new 0 0 140 64.8;" xml:space="preserve">
<style type="text/css">
	.st0{display:none;}
	.st1{display:inline;fill:#BCBEC0;}
	.st2{clip-path:url(#SVGID_2_);}
	.st3{clip-path:url(#SVGID_4_);fill:#FFFFFF;}
	.st4{fill:#FFFFFF;}
</style>
<g id="Layer_2" class="st0">
	<rect class="st1" width="140" height="64.8"/>
</g>
<g id="Layer_1">
	<g>
		<g>
			<defs>
				<rect id="SVGID_1_" x="2.8" y="2.7" width="59" height="59"/>
			</defs>
			<clipPath id="SVGID_2_">
				<use xlink:href="#SVGID_1_"  style="overflow:visible;"/>
			</clipPath>
			<g class="st2">
				<defs>
					<rect id="SVGID_3_" x="2.8" y="2.7" width="59" height="59"/>
				</defs>
				<clipPath id="SVGID_4_">
					<use xlink:href="#SVGID_3_"  style="overflow:visible;"/>
				</clipPath>
				<path class="st3" d="M46.8,32.1L46.8,32.1c-1-1.4-2.8-2.7-6.1-3v3v0v0.1v9.3c2.7-0.8,7-2,7-6.3C47.8,34.2,47.5,33.1,46.8,32.1"
					/>
				<path class="st3" d="M55,32.1V9.4H38.3v3.9c-1.4-0.8-3.4-1.7-5.9-2.1c-0.7-0.1-1.4-0.2-2.2-0.2c-7,0-11.8,5.2-11.8,12.1
					c0,3.4,1.2,6.6,3.5,8.8l0,0c1.5,1.5,3.5,2.5,6,2.9c0.6,0.1,1.3,0.2,2,0.2c0.8,0,1.5-0.1,2.2-0.2c0.1,0,0.2,0,0.3-0.1
					c1.7-0.3,3-0.9,4.2-1.5v-0.9c0-0.2,0-0.3,0-0.5v0c0-3-0.5-4.4-0.7-5.3l5.5-0.1c5.6-0.1,8.9,2.5,10.2,5.4l0,0
					c0.4,0.9,0.5,1.8,0.5,2.6c0,4.6-4.1,6.9-5.4,7.6c2.3,4,5.3,7.8,8.3,11.4V32.1L55,32.1L55,32.1L55,32.1z"/>
				<path class="st3" d="M13.4,23.7c0-5.6,3.2-11.3,8.8-14.3H9.8v16.6h3.8C13.4,25.2,13.4,24.4,13.4,23.7"/>
				<path class="st3" d="M32.4,54.7h3.5c0.6-2.7,0.7-4.7,0.7-7.1V37.6c-1.1,0.5-2.5,0.9-4.2,1.1c-0.3,0.1-0.7,0.1-1.1,0.1
					c-0.1,0.7-0.1,1.4-0.1,2.4v10.9c0,1,0,1.9,0.1,2.7H32.4z"/>
				<path class="st3" d="M15.7,32.1L15.7,32.1c-0.7-1.2-1.3-2.5-1.7-3.8c-0.2,0.9-0.3,2-0.4,3.7v0c0,0.3,0,0.7,0,1l-0.2,18.7
					c5.1-0.5,8-1.3,11.1-2.5l-2.4,5.3h5.4c0.1-0.8,0.1-1.7,0.1-2.9V40.5c0-0.6,0-1.2-0.1-1.7C21.6,38.5,17.9,35.6,15.7,32.1"/>
				<path class="st3" d="M51.9,54.7c-3.6-3.1-5.4-5.3-11.1-12.8v7c0,2.1,0,3,0.7,5.8H51.9z"/>
				<path class="st3" d="M57.9,6.6H7v50.9h50.9V6.6z M57.2,56.8H7.7V7.3h49.5V56.8z"/>
				<path class="st3" d="M4.6,59.8h55.5V4.3H4.6V59.8z M58.8,58.4H6V5.7h52.7V58.4z"/>
			</g>
		</g>
	</g>
	<g>
		<path class="st4" d="M76.2,6.7c-0.6-0.3-1.5-0.8-2.7-0.8c-2.3,0-4,1.7-4,4.1c0,2.1,1.4,4,3.9,4c1.6,0,2.5-0.7,3.1-1.1l-0.1,1.6
			c-0.7,0.3-1.6,0.8-3.3,0.8c-4.1,0-5.3-3.2-5.3-5.1c0-2.8,2.4-5.6,6.1-5.6c1.1,0,1.7,0.2,2.3,0.4V6.7z"/>
		<path class="st4" d="M83.7,11.3c0,3.2-2.7,4-3.6,4c-1.4,0-3.3-0.9-3.3-3.5c0-3.1,2.1-3.7,3.3-4C82.1,7.7,83.7,9.1,83.7,11.3z
			 M82.4,11.6c0-1.5-0.9-2.8-2.2-2.8c-1,0-1.8,0.9-1.8,2.5c0,2.1,1.4,3.1,2.7,3C81.6,13.9,82.4,13.2,82.4,11.6z"/>
		<path class="st4" d="M87,7.9c-0.3,0.4-0.4,0.6-0.4,1.2v4c0.2,1,1,1,1.1,1c0.6,0,1.1-0.3,1.4-0.5v-4c0-0.7,0-1.1-0.3-1.7l2.1,0
			c-0.2,0.4-0.4,0.8-0.4,1.4v4.3c0,1,0.2,1.5,0.3,1.7h-1.7c0.1-0.7,0.1-0.8,0.1-1.5l-1.1,1.2c-0.2,0.1-0.6,0.3-1.1,0.3
			c-0.3,0-1.2-0.1-1.8-1.3l0-4.1c0-1-0.1-1.4-0.4-1.9H87z"/>
		<path class="st4" d="M95.4,8.1c0.3-0.2,0.6-0.3,1.1-0.3c0.7,0,1.8,0.5,1.8,1.9V14c0,0.6,0.1,0.8,0.3,1.3h-1.9
			C97,14.6,97,14.4,97,14v-4c0-0.3-0.3-1-1.3-1c-0.7,0-1,0.2-1.3,0.4v4.2c0,0.8,0,1,0.1,1.6h-1.9C93,14.5,93,13.7,93,13V9
			c0-0.2-0.1-0.8-0.2-1.2h1.6l0,1.4L95.4,8.1z"/>
		<path class="st4" d="M105.2,9.6c-0.3-0.3-0.7-0.7-1.6-0.7c-1.6,0-2.1,1.5-2.1,2.5c0,2.1,1.4,2.7,2.3,2.7c0.6,0,1.1-0.2,1.6-0.3
			l-0.8,1.2c-0.3,0.1-0.7,0.2-1.2,0.2c-1.9,0-3.4-1.5-3.4-3.4c0-1,0.5-3.9,3.8-3.9c0.6,0,1,0.1,1.4,0.1L105.2,9.6z"/>
		<path class="st4" d="M108.4,7.9c-0.2,0.4-0.4,0.7-0.4,1.8v3.5c0,1.3,0.2,1.7,0.4,2h-2.3c0.3-0.5,0.4-0.7,0.4-2.1V9.7
			c0-0.9-0.1-1.3-0.4-1.8H108.4z M108.3,5.8c0,0.4-0.3,1.1-1,1.1c-0.5,0-1-0.4-1-1.1c0-0.7,0.5-1.1,1-1.1
			C107.9,4.8,108.3,5.3,108.3,5.8z"/>
		<path class="st4" d="M112,4.6c-0.2,0.9-0.3,1.8-0.3,2.4v6c0,1,0.1,1.3,0.4,2.2h-2.4c0.2-0.3,0.5-1,0.5-1.7l0-6.9
			c0-0.7-0.1-1-0.3-1.6L112,4.6z"/>
		<path class="st4" d="M124.7,11.3c0,3.2-2.7,4-3.6,4c-1.4,0-3.3-0.9-3.3-3.5c0-3.1,2.1-3.7,3.3-4C123.1,7.7,124.7,9.1,124.7,11.3z
			 M123.4,11.6c0-1.5-0.9-2.8-2.2-2.8c-1,0-1.8,0.9-1.8,2.5c0,2.1,1.4,3.1,2.7,3C122.6,13.9,123.4,13.2,123.4,11.6z"/>
		<path class="st4" d="M128.7,8.1c0.3-0.2,0.6-0.3,1.1-0.3c0.7,0,1.8,0.5,1.8,1.9V14c0,0.6,0.1,0.8,0.3,1.3H130
			c0.2-0.6,0.2-0.9,0.2-1.2v-4c0-0.3-0.3-1-1.3-1c-0.7,0-1,0.2-1.3,0.4v4.2c0,0.8,0,1,0.1,1.6h-1.9c0.3-0.7,0.4-1.5,0.4-2.2V9
			c0-0.2-0.1-0.8-0.2-1.2h1.6l0,1.4L128.7,8.1z"/>
		<path class="st4" d="M73.4,30.2h-5.1c0.3-0.7,0.4-1.1,0.4-3.4v-4.6c0-1.5-0.2-2-0.4-2.5h2.4c-0.2,0.5-0.4,1-0.4,2.6l-0.1,6.8
			c1.9-0.2,2.9-0.5,4-0.9L73.4,30.2z"/>
		<path class="st4" d="M77.1,22.9c-0.2,0.4-0.4,0.7-0.4,1.8v3.5c0,1.3,0.2,1.7,0.4,2H75c0.3-0.5,0.4-0.7,0.4-2.1v-3.4
			c0-0.9-0.1-1.3-0.4-1.8H77.1z M77.1,20.8c0,0.4-0.3,1.1-1,1.1c-0.5,0-1-0.4-1-1.1c0-0.7,0.5-1.1,1-1.1
			C76.7,19.8,77.1,20.3,77.1,20.8z"/>
		<path class="st4" d="M80.8,19.7c0,0.2-0.2,1.3-0.2,1.5c0,0.4-0.1,1.2-0.1,1.4v1.9l1.1-1.2c0.6-0.3,0.8-0.3,1.1-0.3
			c0.7,0,2.5,0.5,2.5,3c0,2.2-1.1,3.3-2.5,3.9c-0.8,0.3-1.2,0.4-2.4,0.4l-1.4,0c0.3-0.9,0.4-1.3,0.4-2.5v-5.1c0-1.2,0-1.6-0.3-2.5
			L80.8,19.7z M80.6,29.1c0.2,0,1,0.1,1.1,0.1c0.1,0,1.9,0,1.9-2.6c0-0.5-0.1-1.3-0.5-1.8c-0.2-0.3-0.7-0.6-1.3-0.6
			c-0.5,0-0.8,0.2-1.2,0.4V29.1z"/>
		<path class="st4" d="M88.3,22.9c-0.1,0.4-0.1,0.5-0.1,1v0.9c0.4-0.8,0.9-1.9,2.1-1.9c0.3,0,0.4,0.1,0.7,0.2l-0.2,1.8
			c-0.4-0.4-0.6-0.5-1.1-0.5c-0.8,0-1.2,0.4-1.5,0.6v3.5c0,1.1,0.1,1.3,0.4,1.7h-2.1c0.3-0.5,0.4-0.7,0.4-1.4v-4.7
			c0-0.3,0-0.6-0.2-1.3H88.3z"/>
		<path class="st4" d="M92.4,23.2l0.9-0.2c0.3-0.1,0.5-0.1,0.6-0.1c1.4,0,1.9,0.8,2.1,1c0.2,0.4,0.2,0.6,0.2,1.1l0.1,4.2
			c0,0.2,0.1,0.6,0.3,1h-1.7v-1c-0.5,0.4-0.7,0.5-1.2,1c-0.1,0-0.4,0.1-0.6,0.1c-0.6,0-1.8-0.5-1.8-1.7c0-1.3,1.6-2,2.6-2.4
			c0.7-0.3,0.8-0.3,1.1-0.5v-0.4c0-0.4,0-0.5-0.1-0.6c-0.2-0.4-0.8-0.7-1.5-0.7c-0.5,0-0.9,0.2-1.4,0.5L92.4,23.2z M94.9,27h-1.9
			c-0.2,0.4-0.3,0.7-0.3,1.1c0,0.8,0.7,1.1,1.4,1.1c0.3,0,0.5-0.1,0.8-0.1V27z"/>
		<path class="st4" d="M100.1,22.9c-0.1,0.4-0.1,0.5-0.1,1v0.9c0.4-0.8,0.9-1.9,2.1-1.9c0.3,0,0.4,0.1,0.7,0.2l-0.2,1.8
			c-0.4-0.4-0.6-0.5-1.1-0.5c-0.8,0-1.2,0.4-1.5,0.6v3.5c0,1.1,0.1,1.3,0.4,1.7h-2.1c0.3-0.5,0.4-0.7,0.4-1.4v-4.7
			c0-0.3,0-0.6-0.2-1.3H100.1z"/>
		<path class="st4" d="M105.2,22.9c0.1,0.4,0.2,0.8,0.3,1.1l1.4,3.5c1.3-3.5,1.3-3.7,1.3-4.6h2.2c-0.5,0.7-0.7,1-1.7,3.6l-1,2.6
			c-0.3,0.8-1.2,2.7-1.4,2.9l-0.8,0.6h-1.4l0.9-1.1c0.3-0.3,0.5-0.9,1.1-2c-0.4-1.1-1.1-2.6-1.6-3.9c-0.1-0.3-0.6-1.6-1.3-2.5H105.2
			z"/>
		<path class="st4" d="M116.6,23.2l0.9-0.2c0.3-0.1,0.5-0.1,0.6-0.1c1.4,0,1.9,0.8,2.1,1c0.2,0.4,0.2,0.6,0.2,1.1l0.1,4.2
			c0,0.2,0.1,0.6,0.3,1h-1.7v-1c-0.5,0.4-0.7,0.5-1.2,1c-0.1,0-0.4,0.1-0.6,0.1c-0.6,0-1.8-0.5-1.8-1.7c0-1.3,1.6-2,2.6-2.4
			c0.7-0.3,0.8-0.3,1.1-0.5v-0.4c0-0.4,0-0.5-0.1-0.6c-0.2-0.4-0.8-0.7-1.5-0.7c-0.5,0-0.9,0.2-1.4,0.5L116.6,23.2z M119.2,27h-1.9
			c-0.2,0.4-0.3,0.7-0.3,1.1c0,0.8,0.7,1.1,1.4,1.1c0.3,0,0.5-0.1,0.8-0.1V27z"/>
		<path class="st4" d="M125.2,23.1c0.3-0.2,0.6-0.3,1.1-0.3c0.7,0,1.8,0.5,1.8,1.9V29c0,0.6,0.1,0.8,0.3,1.3h-1.9
			c0.2-0.6,0.2-0.9,0.2-1.2v-4c0-0.3-0.3-1-1.3-1c-0.7,0-1,0.2-1.3,0.4v4.2c0,0.8,0,1,0.1,1.6h-1.9c0.3-0.7,0.4-1.5,0.4-2.2V24
			c0-0.2-0.1-0.8-0.2-1.2h1.6l0,1.4L125.2,23.1z"/>
		<path class="st4" d="M136.2,19.7c-0.1,0.5-0.3,1.1-0.3,2.2V29c0,0.3,0,0.5,0.3,1.2h-1.6V29c-0.5,0.6-1.1,1.2-2.1,1.2
			c-1.4,0-2.8-1.2-2.8-3.1c0-2.1,1.8-4.1,3.9-4.1c0.4,0,0.7,0.1,1,0.2v-1.3c0-1-0.2-1.4-0.3-1.8L136.2,19.7z M134.5,24.5
			c-0.2-0.2-0.6-0.6-1.4-0.6c-0.6,0-1,0.2-1.4,0.5c-0.3,0.5-0.6,1.1-0.6,2.1c0,2.5,2.2,2.6,2.5,2.6c0.5,0,0.7-0.2,0.9-0.3V24.5z"/>
		<path class="st4" d="M70.5,34.7c-0.2,0.6-0.4,1.2-0.4,2.8v4.8c0,1.2,0.1,1.8,0.4,2.9h-2.4c0.2-0.7,0.4-1.3,0.4-3v-5
			c0-1.2-0.1-1.8-0.4-2.5H70.5z"/>
		<path class="st4" d="M74.9,38.1c0.3-0.2,0.6-0.3,1.1-0.3c0.7,0,1.8,0.5,1.8,1.9V44c0,0.6,0.1,0.8,0.3,1.3h-1.9
			c0.2-0.6,0.2-0.9,0.2-1.2v-4c0-0.3-0.3-1-1.3-1c-0.7,0-1,0.2-1.3,0.4v4.2c0,0.8,0,1,0.1,1.6h-1.9c0.3-0.7,0.4-1.5,0.4-2.2V39
			c0-0.2-0.1-0.8-0.2-1.2h1.6l0,1.4L74.9,38.1z"/>
		<path class="st4" d="M83.3,39h-1.6v4.5c0,1,0.2,1.4,0.4,1.8l-2.2,0c0.3-0.6,0.4-1.1,0.4-1.9V39l-0.7,0c0.4-0.4,0.4-0.6,0.7-1v-0.4
			c0-0.8,0-2.9,2.4-2.9c0.5,0,1,0.1,1.3,0.2c-0.1,0.7-0.2,0.9-0.3,1.6c-0.2-0.4-0.4-0.7-1.1-0.7c-1,0-1,1-1,1.4V38h1.6V39z"/>
		<path class="st4" d="M90.2,41.3c0,3.2-2.7,4-3.6,4c-1.4,0-3.3-0.9-3.3-3.5c0-3.1,2.1-3.7,3.3-4C88.6,37.7,90.2,39.1,90.2,41.3z
			 M88.8,41.6c0-1.5-0.9-2.8-2.2-2.8c-1,0-1.8,0.9-1.8,2.5c0,2.1,1.4,3.1,2.7,3C88.1,43.9,88.8,43.2,88.8,41.6z"/>
		<path class="st4" d="M93.2,37.9c-0.1,0.4-0.1,0.5-0.1,1v0.9c0.4-0.8,0.9-1.9,2.1-1.9c0.3,0,0.4,0.1,0.7,0.2l-0.2,1.8
			c-0.4-0.4-0.6-0.5-1.1-0.5c-0.8,0-1.2,0.4-1.5,0.6v3.5c0,1.1,0.1,1.3,0.4,1.7h-2.1c0.3-0.5,0.4-0.7,0.4-1.4v-4.7
			c0-0.3,0-0.6-0.2-1.3H93.2z"/>
		<path class="st4" d="M98.5,37.9v1.6c0.1-0.2,0.5-0.9,0.6-1c0.5-0.6,1.3-0.6,1.4-0.6c1.4,0,1.7,1.2,1.8,1.6c0.1-0.2,0.5-0.9,0.6-1
			c0.5-0.6,1.1-0.6,1.4-0.6c1.1,0,1.5,0.7,1.6,0.9c0.2,0.4,0.2,0.8,0.2,1.1v4.3c0,0.4,0,0.6,0.2,1.1h-1.8c0.2-0.4,0.2-0.5,0.2-1.1
			V40c0-0.6-0.6-1.1-1.1-1.1c-0.6,0-1,0.5-1.2,0.8V44c0,0.6,0.1,0.8,0.3,1.2h-1.9c0.2-0.4,0.3-0.5,0.3-1.2v-3.6c0-0.4,0-0.7-0.2-1
			c-0.2-0.3-0.5-0.5-0.8-0.5c-0.5,0-0.9,0.3-1.3,0.7V44c0,0.5,0,0.7,0.3,1.2h-2c0.2-0.5,0.3-0.6,0.3-1.2v-4.7c0-0.8-0.1-1.1-0.3-1.5
			H98.5z"/>
		<path class="st4" d="M108.6,38.2l0.9-0.2c0.3-0.1,0.5-0.1,0.6-0.1c1.4,0,1.9,0.8,2.1,1c0.2,0.4,0.2,0.6,0.2,1.1l0.1,4.2
			c0,0.2,0.1,0.6,0.3,1h-1.7v-1c-0.5,0.4-0.7,0.5-1.2,1c-0.1,0-0.4,0.1-0.6,0.1c-0.6,0-1.8-0.5-1.8-1.7c0-1.3,1.6-2,2.6-2.4
			c0.7-0.3,0.8-0.3,1.1-0.5v-0.4c0-0.4,0-0.5-0.1-0.6c-0.2-0.4-0.8-0.7-1.5-0.7c-0.5,0-0.9,0.2-1.4,0.5L108.6,38.2z M111.2,42h-1.9
			c-0.2,0.4-0.3,0.7-0.3,1.1c0,0.8,0.7,1.1,1.4,1.1c0.3,0,0.5-0.1,0.8-0.1V42z"/>
		<path class="st4" d="M118.1,38.1V39h-1.9v2.6c0,1.7,0,1.8,0.1,2c0.1,0.3,0.5,0.6,0.9,0.6c0.2,0,0.4,0,1-0.2l-0.8,1
			c-0.5,0.1-0.8,0.2-1.2,0.2c-1.1,0-1.4-0.8-1.4-1.2c0-0.3,0-0.6,0-1V39h-1c0.2-0.3,0.4-0.5,2.4-2.5v1.5H118.1z"/>
		<path class="st4" d="M121.1,37.9c-0.2,0.3-0.4,0.7-0.4,1.8v3.5c0,1.3,0.2,1.7,0.4,2h-2.3c0.3-0.5,0.4-0.7,0.4-2.1v-3.4
			c0-0.9-0.1-1.3-0.4-1.8H121.1z M121,35.8c0,0.4-0.3,1-1,1c-0.5,0-1-0.4-1-1.1c0-0.7,0.5-1.1,1-1.1C120.7,34.8,121,35.3,121,35.8z"
			/>
		<path class="st4" d="M129.1,41.3c0,3.2-2.7,4-3.6,4c-1.4,0-3.3-0.9-3.3-3.5c0-3.1,2.1-3.7,3.3-4C127.5,37.7,129.1,39.1,129.1,41.3
			z M127.8,41.6c0-1.5-0.9-2.8-2.2-2.8c-1,0-1.8,0.9-1.8,2.5c0,2.1,1.4,3.1,2.7,3C127,43.9,127.8,43.2,127.8,41.6z"/>
		<path class="st4" d="M133.1,38.1c0.3-0.2,0.6-0.3,1.1-0.3c0.7,0,1.8,0.5,1.8,1.9V44c0,0.6,0.1,0.8,0.3,1.3h-1.9
			c0.2-0.6,0.2-0.9,0.2-1.2v-4c0-0.3-0.3-1-1.3-1c-0.7,0-1,0.2-1.3,0.4v4.2c0,0.8,0,1,0.1,1.6h-1.9c0.3-0.7,0.4-1.5,0.4-2.2V39
			c0-0.2-0.1-0.8-0.2-1.2h1.6l0,1.4L133.1,38.1z"/>
		<path class="st4" d="M68.6,51.9c0-1.2-0.2-1.8-0.3-2.2l2,0c2.7,0,4,1.6,4,3c0,1.7-1.5,2.5-2,2.8c0.9,1.7,2.2,3.2,3.5,4.7h-1.4
			c-1.4-1.2-2.1-2-4.2-4.9V58c0,0.8,0,1.1,0.3,2.3h-2.1c0.2-1,0.3-1.8,0.3-2.7V51.9z M70.1,55.2c1-0.3,2.6-0.7,2.6-2.3
			c0-0.8-0.5-2-2.6-2.3V55.2z"/>
		<path class="st4" d="M81,59.9c-0.4,0.2-0.9,0.3-1.6,0.3c-2.3,0-2.9-1.9-2.9-3.5c0-2.4,1.2-3.8,2.9-3.8c1.2,0,2.2,0.7,2.4,2.1
			c0.1,0.6,0.1,0.9,0.1,1.7L78,56.8c0,0.5,0.2,2.2,1.8,2.2c0.6,0,1.1-0.2,1.9-0.6L81,59.9z M80.9,55.9c0-1.3-0.4-2.1-1.5-2.1
			c-1.1,0-1.4,0.8-1.5,2.1H80.9z"/>
		<path class="st4" d="M86.6,54.4c-0.3-0.3-0.7-0.6-1.4-0.6c-0.7,0-1.1,0.5-1.1,1c0,0.6,0.3,0.8,1.2,1.4c0.8,0.5,1.3,1,1.3,2
			c0,1.2-0.8,2.1-2.4,2.1c-0.2,0-0.9,0-1.8-0.3l0.1-1.9c0.7,1,1,1.4,1.6,1.4c0.8,0,1.1-0.5,1.1-1c0-0.6-0.4-0.9-1.2-1.4
			c-0.5-0.3-1.4-0.9-1.4-2.1c0-0.8,0.7-2.1,2.5-2.1c0.6,0,0.9,0.1,1.4,0.3V54.4z"/>
		<path class="st4" d="M94.2,56.3c0,3.2-2.7,4-3.6,4c-1.4,0-3.3-0.9-3.3-3.5c0-3.1,2.1-3.7,3.3-4C92.7,52.7,94.2,54.1,94.2,56.3z
			 M92.9,56.6c0-1.5-0.9-2.8-2.2-2.8c-1,0-1.8,0.9-1.8,2.5c0,2.1,1.4,3.1,2.7,3C92.1,58.9,92.9,58.2,92.9,56.6z"/>
		<path class="st4" d="M97.5,52.9c-0.3,0.4-0.4,0.6-0.4,1.2v4c0.2,1,1,1,1.1,1c0.6,0,1.1-0.3,1.4-0.5v-4c0-0.7,0-1.1-0.3-1.7l2.1,0
			c-0.2,0.4-0.4,0.8-0.4,1.4v4.3c0,1,0.2,1.5,0.3,1.7h-1.7c0.1-0.7,0.1-0.8,0.1-1.5l-1.1,1.2c-0.2,0.1-0.6,0.3-1.1,0.3
			c-0.3,0-1.2-0.1-1.8-1.3l0-4.1c0-1-0.1-1.4-0.4-1.9H97.5z"/>
		<path class="st4" d="M105,52.9c-0.1,0.4-0.1,0.5-0.1,1v0.9c0.4-0.8,0.9-1.9,2.1-1.9c0.3,0,0.4,0.1,0.7,0.2l-0.2,1.8
			c-0.4-0.4-0.6-0.5-1.1-0.5c-0.8,0-1.2,0.4-1.5,0.6v3.5c0,1.1,0.1,1.3,0.4,1.7h-2.1c0.3-0.5,0.4-0.7,0.4-1.4v-4.7
			c0-0.3,0-0.6-0.2-1.3H105z"/>
		<path class="st4" d="M113.1,54.6c-0.3-0.3-0.7-0.7-1.6-0.7c-1.6,0-2.1,1.5-2.1,2.5c0,2.1,1.4,2.7,2.3,2.7c0.6,0,1.1-0.2,1.6-0.3
			l-0.8,1.2c-0.3,0.1-0.7,0.2-1.2,0.2c-1.9,0-3.4-1.5-3.4-3.4c0-1,0.5-3.9,3.8-3.9c0.6,0,1,0.1,1.4,0.1L113.1,54.6z"/>
		<path class="st4" d="M118.5,59.9c-0.4,0.2-0.9,0.3-1.6,0.3c-2.3,0-2.9-1.9-2.9-3.5c0-2.4,1.2-3.8,2.9-3.8c1.2,0,2.2,0.7,2.4,2.1
			c0.1,0.6,0.1,0.9,0.1,1.7l-3.9,0.1c0,0.5,0.2,2.2,1.8,2.2c0.6,0,1.1-0.2,1.9-0.6L118.5,59.9z M118.4,55.9c0-1.3-0.4-2.1-1.5-2.1
			c-1.1,0-1.4,0.8-1.5,2.1H118.4z"/>
		<path class="st4" d="M124.1,54.4c-0.3-0.3-0.7-0.6-1.4-0.6c-0.7,0-1.1,0.5-1.1,1c0,0.6,0.3,0.8,1.2,1.4c0.8,0.5,1.3,1,1.3,2
			c0,1.2-0.8,2.1-2.4,2.1c-0.2,0-0.9,0-1.8-0.3l0.1-1.9c0.7,1,1,1.4,1.6,1.4c0.8,0,1.1-0.5,1.1-1c0-0.6-0.4-0.9-1.2-1.4
			c-0.5-0.3-1.4-0.9-1.4-2.1c0-0.8,0.7-2.1,2.5-2.1c0.6,0,0.9,0.1,1.4,0.3V54.4z"/>
	</g>
</g>
</svg>
