<svg xmlns="http://www.w3.org/2000/svg" data-name="Layer 1" viewBox="0 0 703.15 172.15"><path d="M36.21 86.09l157.94 49.85 157.9-49.85-157.9-49.88zm95.91 24.2L84 95.09l48.16 8zm25.38 8l-21.88-6.91v-7.77l21.88 3.61zm28.55 9l-24.16-7.62V108l24.16 4zm17.7-.47l-9.6 3-3.49-1.1V112.7l13.09 2.16zm4.81-1.52v-9.65l20.09 3.35zm33.1-10.44L74.1 89.68l3.74-1.18 211.52 11.31zM89.07 85l43.05-13.59V87zm46.55 2.23V70.25l21.88-6.91v24.89zm26.27 1.26V62l24.16-7.63V89.6zm28.77 1.38v-37l3.49-1.1 9.6 3v35.68zm17.9.86V56.32l18.83 6v29.26zm23.86 1.14v-28l36.21 11.43v18.25zm71.42 3.42l-30-1.44V77l43.96 13.83zm21.58-6.81L194.15 47 62.85 88.43l-7.39-2.34 138.69-43.8 138.66 43.8zm78.09-1.89h-4.39v3.82h4.39zm-7 0h-4.4v3.82h4.4zm212 0h-4.4v3.82h4.4zm50-3h8v-8.7a12.47 12.47 0 00-1.35-5.89c-2.83-5-10-4-12.86-1.18-1.6 1.58-2.54 4-2.54 7.42 0 2.2-1.07 4.31-2.91 4.31h-3.55c0-3.69-.41-9.16-5.69-11.85a14.89 14.89 0 00-4.64-1.2l11.73-6.16-1.26-4.34c-8.33 4.62-8.57 5-17.24 9.54v3.11c8.73.51 12.33 4.22 12.33 10.93h-17V66.11h-4.81v13.47h-8.15V66.11h-4.8v13.47h-5a2.11 2.11 0 01-1.26-.38c-1.62-1.11-1.67-3.42-1.67-5v-8.7h-7.42c-1 0-4.48-.14-6.9 2.28s-2.91 7.19-1.79 10.3a7.46 7.46 0 004.69 4.81 11.31 11.31 0 003.7.58 7.57 7.57 0 003.32-.67 6.11 6.11 0 002.4-1.88 4.75 4.75 0 00.36-.5 4.3 4.3 0 001.8 2.25 6.59 6.59 0 003.63.84h46.48a6.7 6.7 0 003.6-.83 5 5 0 002-2.5c.67 1.62 2.55 3.33 6.81 3.33zm-2.74-12.8a3.09 3.09 0 015-.15 5.58 5.58 0 01.95 3.57v5.45h-1.93c-2.23 0-3.78-.5-4.51-2.31-.5-1.22-1.09-4.62.5-6.64zM591 74.93a5.57 5.57 0 01-.94 3.58 3 3 0 01-2.42 1.14 3.16 3.16 0 01-2.54-1.29 5.4 5.4 0 01-1-3.36c0-2 .37-3.41 1.11-4.25s2-1.26 3.89-1.26h1.9zM380.8 58.15h-4.39V62h4.39zm179.8 7.1c-6.54 0-9.83 4.38-9.83 9.19 0 2.68.72 4.38 2.11 5.4a7.39 7.39 0 00-2.11-.26H545v-5.41c0-14.08-18.17-8.43-22.12-.76a26.84 26.84 0 00.42-2.68 27.5 27.5 0 00.15-2.91V56.17h-4.84v23.41h-7.68V66.11h-4.84v14.07c0 4.52-3.68 6.66-7.6 8.56l2.82 2.77c2.17-.7 7-2.69 8.83-8h59v-9.57c0-5.29-2.64-8.69-8.54-8.69zm-20.73 14.33h-16.56c3.14-8.86 16.56-14.69 16.56-4.92zm24.4 0h-2.88c-3.93 0-5.67-1.74-5.67-5.29 0-3 1.66-5.11 4.5-5.11 2.53 0 4 1.59 4 5.37zM566 58.15h-4.39V62H566zm20.21 0h-4.4V62h4.4zm-198.42 0h-4.4V62h4.4zm205.4 0h-4.39V62h4.39zm-34.17 0h-4.4V62H559zm-67.24-1.3H487v26.66h4.82zm-75.37 1.3H412V62h4.4zM428 73.42a25.18 25.18 0 00.42-2.69 27.36 27.36 0 00.15-2.91V56.16h-4.84v23.42h-7.3V66.11h-4.83v13.47h-8.09V66.11h-4.8v13.47h-5.18c-2.09 0-3-2.22-3-4.25v-9.79h-7.42c-1 0-4.57 0-6.91 2.28-2.54 2.49-2.9 7.19-1.78 10.3a7.43 7.43 0 001.83 3 7.55 7.55 0 002.86 1.79 11.29 11.29 0 003.69.58 7.62 7.62 0 003.33-.67 6.26 6.26 0 002.4-1.88 4.59 4.59 0 00.35-.5c.6 1.62 1.93 3.05 5.36 3.05h55.94v-9.32c-.04-14.09-18.18-8.43-22.18-.75zm-42.38 1.51a5.57 5.57 0 01-.95 3.58 3 3 0 01-2.41 1.14 3.16 3.16 0 01-2.54-1.29 5.4 5.4 0 01-1-3.36c0-2 .37-3.41 1.11-4.25s2-1.26 3.9-1.26h1.92zM445 79.58h-16.56c3.14-8.85 16.56-14.7 16.56-4.92zm169.56-21.43h-4.4V62h4.4zm7 0h-4.39V62h4.39zM467.13 82.61c-1.06 2.91-4 4.61-7.15 6.13l2.82 2.77c2.18-.7 7-2.69 8.84-8h10.16V56.17H477v23.41h-4.59c.07-1.13.07-2.45.07-4.19s.36-7-4.78-9.18a8.86 8.86 0 00-3.51-.67 9.3 9.3 0 00-3.9.79 8.74 8.74 0 00-2.86 2 8.57 8.57 0 00-1.73 2.86 9 9 0 00-.58 3.22c-.04 6.59 6 10.44 12.01 8.2zm-3.32-13c.13 0 3.28-.26 3.74 4.24a41.53 41.53 0 010 5.7h-3.17c-1.72-.06-2.81-.36-3.6-1.61-1.11-1.7-1.57-8.3 3.03-8.3zM632.07 106a19.63 19.63 0 00-4.82.6v2.83h.22a13.91 13.91 0 014.19-.76c1.48 0 2.4.38 2.84 1a4.64 4.64 0 01.43 2.5c-2.61 0-5.28 0-7.08 1.09a4.11 4.11 0 00-2 3.71c0 3 2.18 4.53 5 4.53 2.67 0 3.93-1.42 4.2-2.78l.71 2.45h2.67v-8.61c0-1.64 0-3.33-.87-4.58-.94-1.4-2.79-1.98-5.49-1.98zm2.86 8.78a6 6 0 01-.43 2.61 3 3 0 01-2.73 1.42c-1.47 0-2.18-.76-2.18-1.93a2 2 0 011.09-1.88 9.75 9.75 0 014.25-.55zm11-5.62l-.7-2.94h-2.73v15h3.6v-8.4c0-1.17 0-3.54 3.22-3.54a8.41 8.41 0 011.58.16V106h-.38c-2.18 0-4.03.63-4.58 3.14zm17.72-2.94l-3.82 10.63-3.7-10.63h-4l5.78 14.72-2.45 5.61H659l7.9-20.33zm-72.82-2.29h3.65v-3.22h-3.65zM552.15 106a19.77 19.77 0 00-4.83.6v2.83h.22a13.93 13.93 0 014.2-.76c1.47 0 2.4.38 2.84 1a4.64 4.64 0 01.43 2.5c-2.62 0-5.29 0-7.09 1.09a4.11 4.11 0 00-2 3.71c0 3 2.18 4.53 5 4.53 2.67 0 3.92-1.42 4.19-2.78l.71 2.45h2.68v-8.61c0-1.64 0-3.33-.88-4.58-.92-1.4-2.77-1.98-5.47-1.98zm2.86 8.78a6 6 0 01-.43 2.61 3 3 0 01-2.73 1.42c-1.47 0-2.18-.76-2.18-1.93a2 2 0 011.09-1.88c.93-.5 2.34-.55 4.25-.55zm64.72-5.62l-.73-2.96h-2.73v15h3.6v-8.4c0-1.17 0-3.54 3.22-3.54a8.41 8.41 0 011.58.16V106h-.38c-2.16 0-4.02.63-4.56 3.14zm-176.86 0l-.71-2.94h-2.73v15H443v-8.4c0-1.17 0-3.54 3.22-3.54a8.41 8.41 0 011.58.16V106h-.38c-2.15 0-4.01.63-4.55 3.14zm119.72 12h3.54V99.93h-3.54zM482.47 106a19.77 19.77 0 00-4.83.6v2.83h.22a13.93 13.93 0 014.2-.76c1.47 0 2.4.38 2.83 1a4.55 4.55 0 01.44 2.5c-2.62 0-5.29 0-7.09 1.09a4.11 4.11 0 00-2 3.71c0 3 2.18 4.53 5 4.53 2.67 0 3.93-1.42 4.2-2.78l.71 2.45h2.67v-8.61c0-1.64 0-3.33-.87-4.58-.95-1.4-2.79-1.98-5.48-1.98zm2.86 8.78a5.85 5.85 0 01-.44 2.61 2.94 2.94 0 01-2.72 1.42c-1.48 0-2.18-.76-2.18-1.93a2 2 0 011.09-1.88c.92-.5 2.34-.55 4.25-.55zm52.49-8.89c-2.59 0-4 1.15-4.45 2.89l-.65-2.56h-2.78v15h3.6V112c0-1.2.32-3.27 3-3.27a2.6 2.6 0 012.37 1.09 4.16 4.16 0 01.49 2.45v8.89h3.6v-8.83c0-1.8 0-3.27-.87-4.53a4.9 4.9 0 00-4.31-1.93zm-32.79-2h3.65v-3.22H505zm.05 17.28h3.55v-15h-3.55zm-7.49-19.68l-3.54 1v3.87h-2.73V109h2.73v6.82c0 1.58 0 2.86.65 3.87s2.24 1.69 4.31 1.69a10.78 10.78 0 002.72-.33v-2.73h-.22a5.69 5.69 0 01-2 .39 1.72 1.72 0 01-1.61-.71 4.4 4.4 0 01-.33-2.24V109h4.14v-2.61h-4.14zm-27.9 13.74l-9.82-14.56h-3.54v20.5h3.22v-14.81l10.14 14.83h3.21v-20.5h-3.21zm49.62-9.43c-4.71 0-7.36 2.78-7.36 7.9s2.7 7.85 7.31 7.85 7.36-2.78 7.36-7.9-2.7-7.83-7.31-7.83zm0 13.19c-2.4 0-3.51-1.94-3.51-5.32 0-3.21 1-5.31 3.51-5.31s3.52 1.93 3.52 5.31c-.03 3.24-1.04 5.33-3.55 5.33zm71.61 2.18h3.55v-15h-3.55zm15.7-15.32c-2.51 0-3.92 1.15-4.41 2.84v-8.76h-3.55v21.26h2.24l.92-2.24c.66 1.75 2.13 2.57 4.39 2.57 4.28 0 6.79-3 6.79-7.91s-2.48-7.74-6.41-7.74zm-1 13c-2.54 0-3.52-2.13-3.52-5.15s1-5.15 3.52-5.15 3.51 2.1 3.51 5.12-.96 5.23-3.49 5.23zm-25.21-18.21h-3.65v20.5h11.77v-2.84h-8.12zM401.28 106a19.63 19.63 0 00-4.82.6v2.83h.22a13.91 13.91 0 014.19-.76c1.48 0 2.4.38 2.84 1a4.55 4.55 0 01.44 2.5c-2.62 0-5.29 0-7.09 1.09a4.11 4.11 0 00-2 3.71c0 3 2.18 4.53 5 4.53 2.67 0 3.93-1.42 4.2-2.78l.71 2.45h2.67v-8.61c0-1.64 0-3.33-.87-4.58-.94-1.4-2.77-1.98-5.49-1.98zm2.87 8.78a5.85 5.85 0 01-.44 2.61 3 3 0 01-2.73 1.42c-1.47 0-2.18-.76-2.18-1.93a2 2 0 011.09-1.88 9.77 9.77 0 014.26-.55zm-11.28-3.84c0-6.52-3.34-10.6-9.49-10.6s-9.6 4-9.6 10.66 3.33 10.6 9.49 10.6c.44 0 .88 0 1.3-.06a30.24 30.24 0 005.35 4.2l2.62-1.82c-.27-.12-3.29-2.06-4.87-3.21 3.38-1.53 5.2-5 5.2-9.79zm-9.55 7.93c-3.66 0-5.67-2.62-5.67-7.91s2-7.9 5.67-7.9 5.68 2.61 5.68 7.9-2 7.89-5.68 7.89zm33.09-17.34l-3.55 1v3.87h-2.72v2.6h2.72v6.82c0 1.58 0 2.86.66 3.87s2.23 1.69 4.31 1.69a10.78 10.78 0 002.72-.33v-2.73h-.22a5.71 5.71 0 01-2 .39 1.74 1.74 0 01-1.61-.71 4.52 4.52 0 01-.32-2.24V109h4.14v-2.61h-4.14zM429 106a19.77 19.77 0 00-4.83.6v2.83h.22a13.93 13.93 0 014.2-.76c1.47 0 2.4.38 2.83 1a4.55 4.55 0 01.44 2.5c-2.62 0-5.29 0-7.09 1.09a4.11 4.11 0 00-2 3.71c0 3 2.18 4.53 5 4.53 2.67 0 3.92-1.42 4.19-2.78l.71 2.45h2.67v-8.61c0-1.64 0-3.33-.87-4.58-.92-1.4-2.77-1.98-5.47-1.98zm2.86 8.78a5.85 5.85 0 01-.44 2.61 2.93 2.93 0 01-2.72 1.42c-1.47 0-2.18-.76-2.18-1.93a2 2 0 011.09-1.88c.92-.5 2.34-.55 4.25-.55z" fill="#fff"/></svg>