<?xml version="1.0" encoding="UTF-8"?>
<svg id="Layer_1" data-name="Layer 1" xmlns="http://www.w3.org/2000/svg" viewBox="0 0 590.4 180">
  <defs>
    <style>
      .cls-1 {
        fill: #fff;
      }
    </style>
  </defs>
  <g id="Stacked_Logo" data-name="Stacked Logo">
    <g>
      <path class="cls-1" d="M20.12,164c-2.65,0-5.08-.38-7.29-1.13-2.21-.75-4.15-1.98-5.81-3.67-1.66-1.69-2.96-3.94-3.9-6.75-.94-2.81-1.4-6.21-1.4-10.22v-30.34h6.47v30.5c0,4.01.53,7.16,1.6,9.48,1.06,2.31,2.5,3.95,4.29,4.91s3.81,1.44,6.04,1.44,4.28-.48,6.12-1.44c1.84-.96,3.31-2.6,4.41-4.91,1.09-2.31,1.64-5.47,1.64-9.48v-30.5h6.16v30.34c0,4.01-.46,7.41-1.37,10.22-.91,2.81-2.2,5.06-3.86,6.75-1.67,1.69-3.61,2.91-5.85,3.67s-4.65,1.13-7.25,1.13h0Z"/>
      <path class="cls-1" d="M50.07,163.07v-37.91h5.3l.55,5.46h.23c1.82-1.82,3.74-3.34,5.77-4.56,2.03-1.22,4.34-1.83,6.94-1.83,4,0,6.93,1.26,8.77,3.78,1.85,2.52,2.77,6.2,2.77,11.04v24.02h-6.4v-23.17c0-3.59-.56-6.17-1.68-7.76-1.12-1.59-2.95-2.38-5.5-2.38-1.93,0-3.65.49-5.19,1.48-1.53.99-3.26,2.45-5.19,4.37v27.46h-6.4,0Z"/>
      <path class="cls-1" d="M94.37,117.36c-1.25,0-2.28-.39-3.08-1.17-.81-.78-1.21-1.79-1.21-3.04s.4-2.26,1.21-3.04c.81-.78,1.83-1.17,3.08-1.17s2.27.39,3.08,1.17c.81.78,1.21,1.79,1.21,3.04s-.4,2.26-1.21,3.04c-.81.78-1.83,1.17-3.08,1.17ZM91.18,163.07v-37.91h6.4v37.91h-6.4Z"/>
      <path class="cls-1" d="M116.99,163.07l-13.65-37.91h6.63l7.18,21.53c.57,1.82,1.16,3.68,1.75,5.58.6,1.9,1.18,3.76,1.75,5.58h.31c.52-1.82,1.09-3.68,1.72-5.58.62-1.9,1.19-3.76,1.72-5.58l7.18-21.53h6.32l-13.42,37.91h-7.49Z"/>
      <path class="cls-1" d="M158.72,164c-3.38,0-6.46-.79-9.24-2.38-2.78-1.59-4.98-3.85-6.59-6.79-1.61-2.94-2.42-6.51-2.42-10.73s.83-7.64,2.5-10.61c1.66-2.96,3.79-5.25,6.4-6.86,2.6-1.61,5.35-2.42,8.27-2.42,3.22,0,5.97.74,8.23,2.22,2.26,1.48,3.96,3.55,5.11,6.2s1.72,5.77,1.72,9.36c0,.68-.01,1.33-.04,1.95s-.12,1.25-.27,1.87h-27.3v-5.07h21.84c0-3.64-.79-6.43-2.38-8.38-1.59-1.95-3.86-2.93-6.82-2.93-1.72,0-3.41.48-5.07,1.44-1.66.96-3.03,2.51-4.1,4.64-1.07,2.13-1.6,4.97-1.6,8.5,0,3.23.56,5.93,1.68,8.11,1.12,2.18,2.64,3.84,4.56,4.95,1.92,1.12,4.03,1.68,6.32,1.68,1.82,0,3.52-.26,5.11-.78,1.59-.52,3.03-1.22,4.33-2.11l2.34,4.21c-1.66,1.14-3.52,2.08-5.58,2.81-2.05.73-4.38,1.09-6.98,1.09h0Z"/>
      <path class="cls-1" d="M180.49,163.07v-37.91h5.3l.55,6.86h.23c1.25-2.39,2.81-4.29,4.68-5.69s3.9-2.11,6.08-2.11c.83,0,1.56.05,2.18.16.62.11,1.25.31,1.87.62l-1.4,5.46c-.57-.16-1.1-.27-1.6-.35-.49-.08-1.13-.12-1.91-.12-1.61,0-3.29.65-5.03,1.95-1.74,1.3-3.26,3.56-4.56,6.79v24.34h-6.4Z"/>
      <path class="cls-1" d="M215.58,164c-2.76,0-5.37-.48-7.84-1.44-2.47-.96-4.56-2.3-6.28-4.02l2.96-3.74c1.66,1.35,3.39,2.39,5.19,3.12,1.79.73,3.86,1.09,6.2,1.09,2.5,0,4.37-.59,5.62-1.76s1.87-2.56,1.87-4.17c0-1.3-.43-2.38-1.29-3.24-.86-.86-1.93-1.59-3.2-2.18-1.27-.6-2.64-1.16-4.1-1.68-1.87-.68-3.67-1.47-5.38-2.38-1.72-.91-3.11-2.05-4.17-3.43-1.07-1.38-1.6-3.11-1.6-5.19,0-3.07,1.16-5.63,3.47-7.68,2.31-2.05,5.52-3.08,9.63-3.08,2.34,0,4.52.4,6.55,1.21,2.03.81,3.77,1.83,5.23,3.08l-2.96,3.67c-1.35-.94-2.73-1.66-4.13-2.18s-2.96-.78-4.68-.78c-2.39,0-4.15.55-5.26,1.64s-1.68,2.37-1.68,3.82c0,1.15.34,2.09,1.01,2.85.68.75,1.62,1.42,2.85,1.99,1.22.57,2.61,1.12,4.17,1.64,1.98.73,3.86,1.55,5.65,2.46,1.79.91,3.25,2.08,4.37,3.51,1.12,1.43,1.68,3.29,1.68,5.58,0,2.08-.53,3.97-1.6,5.65-1.07,1.69-2.63,3.06-4.68,4.1-2.05,1.04-4.59,1.56-7.6,1.56h0Z"/>
      <path class="cls-1" d="M239.99,117.36c-1.25,0-2.27-.39-3.08-1.17-.81-.78-1.21-1.79-1.21-3.04s.4-2.26,1.21-3.04c.81-.78,1.83-1.17,3.08-1.17s2.27.39,3.08,1.17c.81.78,1.21,1.79,1.21,3.04s-.4,2.26-1.21,3.04c-.81.78-1.83,1.17-3.08,1.17ZM236.8,163.07v-37.91h6.4v37.91h-6.4Z"/>
      <path class="cls-1" d="M266.36,163.77c-4.01,0-6.81-1.17-8.42-3.51s-2.42-5.38-2.42-9.13v-20.75h-5.62v-4.84l5.93-.39.78-12.17h5.38v12.17h10.3v5.23h-10.3v20.83c0,2.29.43,4.08,1.29,5.38.86,1.3,2.38,1.95,4.56,1.95.68,0,1.38-.06,2.11-.2.73-.13,1.45-.38,2.18-.74l1.4,4.52c-.99.47-2.11.86-3.35,1.17s-2.52.47-3.82.47h0Z"/>
      <path class="cls-1" d="M279.85,179.37c-.83,0-1.62-.08-2.38-.23-.75-.16-1.44-.34-2.07-.55l1.4-4.99c.47.16.94.27,1.4.35.47.08.91.12,1.33.12,2.18,0,3.96-.77,5.34-2.3,1.38-1.53,2.46-3.47,3.24-5.81l.86-2.81-15.21-37.99h6.63l7.72,20.98c.62,1.61,1.25,3.35,1.87,5.23.62,1.87,1.22,3.69,1.79,5.46h.31c.57-1.77,1.13-3.57,1.68-5.42.55-1.85,1.05-3.6,1.52-5.26l6.79-20.98h6.24l-14.27,41.03c-.89,2.5-1.95,4.74-3.2,6.75-1.25,2-2.76,3.57-4.52,4.72-1.77,1.14-3.93,1.72-6.48,1.72h0Z"/>
      <path class="cls-1" d="M328.76,163.07v-51.17h6.48v45.63h22.39v5.54h-28.86Z"/>
      <path class="cls-1" d="M367.68,117.36c-1.25,0-2.27-.39-3.08-1.17-.81-.78-1.21-1.79-1.21-3.04s.4-2.26,1.21-3.04c.81-.78,1.83-1.17,3.08-1.17s2.27.39,3.08,1.17c.81.78,1.21,1.79,1.21,3.04s-.4,2.26-1.21,3.04c-.81.78-1.83,1.17-3.08,1.17ZM364.48,163.07v-37.91h6.4v37.91h-6.4Z"/>
      <path class="cls-1" d="M398.88,164c-1.77,0-3.59-.43-5.46-1.29s-3.67-2.04-5.38-3.55h-.23l-.55,3.9h-5.15v-55.54h6.4v15.13l-.16,6.86c1.72-1.51,3.6-2.77,5.65-3.78s4.12-1.52,6.2-1.52c3.27,0,6.03.79,8.27,2.38,2.23,1.59,3.93,3.82,5.07,6.71s1.72,6.28,1.72,10.18c0,4.32-.77,8.01-2.3,11.08-1.53,3.07-3.55,5.41-6.05,7.02s-5.17,2.42-8.03,2.42h0ZM397.79,158.62c2.08,0,3.94-.6,5.58-1.79,1.64-1.2,2.92-2.93,3.86-5.19.94-2.26,1.4-4.95,1.4-8.07,0-2.76-.34-5.19-1.01-7.29-.68-2.11-1.74-3.74-3.2-4.91-1.46-1.17-3.38-1.76-5.77-1.76-1.56,0-3.19.43-4.88,1.29-1.69.86-3.45,2.15-5.27,3.86v19.89c1.66,1.46,3.32,2.48,4.95,3.08,1.64.6,3.08.9,4.33.9h0Z"/>
      <path class="cls-1" d="M423.68,163.07v-37.91h5.3l.55,6.86h.23c1.25-2.39,2.81-4.29,4.68-5.69,1.87-1.4,3.9-2.11,6.08-2.11.83,0,1.56.05,2.18.16.62.11,1.25.31,1.87.62l-1.4,5.46c-.57-.16-1.11-.27-1.6-.35s-1.13-.12-1.91-.12c-1.61,0-3.29.65-5.03,1.95-1.74,1.3-3.27,3.56-4.56,6.79v24.34h-6.4Z"/>
      <path class="cls-1" d="M456.05,164c-2.08,0-3.97-.43-5.65-1.29-1.69-.86-3.03-2.08-4.02-3.67-.99-1.59-1.48-3.52-1.48-5.81,0-4.26,1.87-7.49,5.62-9.67s9.67-3.72,17.78-4.6c-.05-1.56-.3-3.07-.74-4.52-.44-1.46-1.23-2.62-2.38-3.51-1.14-.88-2.73-1.33-4.76-1.33-2.18,0-4.24.4-6.16,1.21-1.92.81-3.64,1.7-5.15,2.69l-2.5-4.37c1.14-.78,2.5-1.55,4.06-2.3,1.56-.75,3.25-1.38,5.07-1.87,1.82-.49,3.74-.74,5.77-.74,3.07,0,5.58.64,7.53,1.91,1.95,1.28,3.38,3.08,4.29,5.42.91,2.34,1.36,5.1,1.36,8.27v23.24h-5.3l-.55-4.52h-.23c-1.82,1.51-3.77,2.8-5.85,3.86-2.08,1.07-4.32,1.6-6.71,1.6h0ZM457.85,158.7c1.87,0,3.63-.42,5.27-1.25,1.64-.83,3.37-2.05,5.19-3.67v-10.22c-4.27.52-7.63,1.18-10.1,1.99-2.47.81-4.25,1.81-5.34,3-1.09,1.2-1.64,2.63-1.64,4.29,0,2.08.65,3.58,1.95,4.49,1.3.91,2.86,1.37,4.68,1.37Z"/>
      <path class="cls-1" d="M485.07,163.07v-37.91h5.3l.55,6.86h.23c1.25-2.39,2.81-4.29,4.68-5.69,1.87-1.4,3.9-2.11,6.08-2.11.83,0,1.56.05,2.18.16.62.11,1.25.31,1.87.62l-1.4,5.46c-.57-.16-1.11-.27-1.6-.35s-1.13-.12-1.91-.12c-1.61,0-3.29.65-5.03,1.95-1.74,1.3-3.27,3.56-4.56,6.79v24.34h-6.4Z"/>
      <path class="cls-1" d="M513.77,117.36c-1.25,0-2.27-.39-3.08-1.17-.81-.78-1.21-1.79-1.21-3.04s.4-2.26,1.21-3.04c.81-.78,1.83-1.17,3.08-1.17s2.27.39,3.08,1.17c.81.78,1.21,1.79,1.21,3.04s-.4,2.26-1.21,3.04c-.81.78-1.83,1.17-3.08,1.17ZM510.57,163.07v-37.91h6.4v37.91h-6.4Z"/>
      <path class="cls-1" d="M543.57,164c-3.38,0-6.46-.79-9.24-2.38-2.78-1.59-4.98-3.85-6.59-6.79-1.61-2.94-2.42-6.51-2.42-10.73s.83-7.64,2.5-10.61c1.66-2.96,3.79-5.25,6.4-6.86,2.6-1.61,5.35-2.42,8.27-2.42,3.22,0,5.97.74,8.23,2.22s3.96,3.55,5.11,6.2,1.72,5.77,1.72,9.36c0,.68-.01,1.33-.04,1.95s-.12,1.25-.27,1.87h-27.3v-5.07h21.84c0-3.64-.79-6.43-2.38-8.38-1.59-1.95-3.86-2.93-6.83-2.93-1.72,0-3.41.48-5.07,1.44-1.66.96-3.03,2.51-4.09,4.64-1.07,2.13-1.6,4.97-1.6,8.5,0,3.23.56,5.93,1.68,8.11,1.12,2.18,2.64,3.84,4.56,4.95,1.92,1.12,4.03,1.68,6.32,1.68,1.82,0,3.52-.26,5.11-.78,1.59-.52,3.03-1.22,4.33-2.11l2.34,4.21c-1.66,1.14-3.52,2.08-5.58,2.81-2.05.73-4.38,1.09-6.98,1.09h0Z"/>
      <path class="cls-1" d="M575.23,164c-2.76,0-5.37-.48-7.84-1.44-2.47-.96-4.56-2.3-6.28-4.02l2.97-3.74c1.66,1.35,3.39,2.39,5.19,3.12,1.79.73,3.86,1.09,6.2,1.09,2.5,0,4.37-.59,5.62-1.76s1.87-2.56,1.87-4.17c0-1.3-.43-2.38-1.29-3.24-.86-.86-1.92-1.59-3.2-2.18-1.27-.6-2.64-1.16-4.09-1.68-1.87-.68-3.67-1.47-5.38-2.38-1.72-.91-3.11-2.05-4.17-3.43-1.07-1.38-1.6-3.11-1.6-5.19,0-3.07,1.16-5.63,3.47-7.68,2.31-2.05,5.52-3.08,9.63-3.08,2.34,0,4.52.4,6.55,1.21,2.03.81,3.77,1.83,5.23,3.08l-2.96,3.67c-1.35-.94-2.73-1.66-4.13-2.18s-2.96-.78-4.68-.78c-2.39,0-4.15.55-5.27,1.64s-1.68,2.37-1.68,3.82c0,1.15.34,2.09,1.01,2.85.68.75,1.62,1.42,2.85,1.99,1.22.57,2.61,1.12,4.17,1.64,1.98.73,3.86,1.55,5.65,2.46,1.79.91,3.25,2.08,4.37,3.51,1.12,1.43,1.68,3.29,1.68,5.58,0,2.08-.53,3.97-1.6,5.65-1.07,1.69-2.63,3.06-4.68,4.1-2.05,1.04-4.59,1.56-7.6,1.56h0Z"/>
    </g>
    <g id="logo">
      <path class="cls-1" d="M96.57,76.98c-12.83,0-13.82-9.74-13.82-12.73,0-3.51.94-9.72,9.12-12.73,8.44-3.1,10.24-3.46,16.05-5.28v-1.5c0-2.81,0-3.5-.56-5.25-1.12-3.35-4.33-5.45-8.68-5.45-6.4,0-9.03,4.89-9.05,4.94l-.51.96-2.38-1.41.24-.73c1.16-3.68,5.81-9.95,15.97-9.95,6.6,0,10.9,1.88,13.57,5.92,1.98,3.21,2.14,7.64,2.14,12.28,0,4.07-.1,8.61-.19,12.27-.06,2.51-.11,4.69-.11,6.02,0,3.35.53,5.94,3.32,5.94.69,0,1.16-.15,1.55-.47l.77-.65,1.56,1.78-.52.67c-2.56,3.09-5,5.27-9.35,5.27-3.76,0-6.37-1.78-7.25-4.79-2.09,2.18-5.89,4.89-11.85,4.89h0ZM107.91,52.08c-6.31,1.9-8.45,2.95-10.4,3.93-2.71,1.37-4.13,4.17-4.13,7.44,0,2.56.91,6.86,7.06,6.86,2.03,0,4.93-.38,7.46-2.19v-16.04h0Z"/>
      <g>
        <path class="cls-1" d="M18.17,76.85c-6.14,0-10.82-.67-15.62-2.23l-.69-.23v-3.44c0-4.58-.1-6.38-.2-7.84l-.14-2.38h2.79s.06,1,.06,1c.12,2.14.83,4.24,2.14,5.71,2.01,2.28,6.65,3.65,10.95,3.65,9.03,0,13.22-3.41,13.22-10.75,0-6.28-3.88-8.89-9.24-12.51l-.86-.59-5.66-3.77c-7.87-5.22-11.88-9.39-11.88-17.73,0-4.08,1.54-17.4,21.39-17.4,8.14,0,14.42,1.07,14.69,1.1l.85.15-.03.84s-.07,2.61-.07,5.41c0,2.21-.04,4.14.04,6.12l.08,1.48h-2.4l-.06-.93c-.18-2.52-.91-4.33-2.3-5.73-1.91-1.91-6.13-2.81-10.6-2.81-10.51,0-11.74,5.41-11.74,9.46,0,5.58,2.86,7.47,9.11,11.6l7.17,4.75c6.11,4.07,11.87,7.92,11.87,18.05,0,17.15-15.99,19-22.87,19h0Z"/>
        <path class="cls-1" d="M65.18,77.15c-7.32,0-11.38-2.62-13.18-8.46-.75-2.33-.75-6.9-.75-9.64,0-7.57.07-13.64.15-20.67l.04-3.3h-6.25v-1.86l.61-.25c2.91-1.2,4.02-2.02,5.31-3.01,4.55-3.53,7.71-9.49,7.76-9.58l1.06-1.81h2.06v10.64h16.12v5.87h-16.12v24.86c0,7.42,1.38,11.66,8.42,11.66,3.26,0,5.78-1.27,5.8-1.29l.97-.5.83,1.92-.41.46c-.17.18-3.82,4.95-12.42,4.95h0Z"/>
        <path class="cls-1" d="M129.58,76.56v-2.25l.91-.07c.79-.07,2.8-.38,4.2-1.96,1.46-1.63,1.55-5.67,1.55-13.73v-13.53c0-5.82-.09-8.32-.93-9.58-.97-1.39-3.11-1.54-4.24-1.62-.15,0-.27-.02-.39-.03l-.9-.1v-2.7l1.07.08c.19.02.42.02.73.02,1.46,0,4.91-.19,8.56-.9,2.78-.44,4.4-1.41,4.99-1.68l.54-.25.93.55v3.76c2.39-1.77,7.2-4.55,13.72-4.55,8.54,0,14.11,3.99,15.7,11.22.45,1.8.62,6.15.62,8.47v13.81c0,7.81.3,10,1.77,11.38.74.68,2.3,1.24,3.66,1.32l.93.07v2.21l-2.35-.12c-3.4-.17-6.33-.33-9.39-.33-3.49,0-6.52,0-10.74.4l-1.1.1v-2.19l.85-.12c1.84-.28,3.11-.8,3.93-1.61,1.54-1.53,1.62-5.17,1.73-8.32.02-.52.04-1.07.07-1.64.09-1.77.09-5.49.09-8.21,0-3.54,0-7.21-.39-10.83-.71-6.12-3.9-8.97-10.05-8.97-4.23,0-6.87.97-8.86,1.99v24.86c0,7.81.32,10.01,1.78,11.38.75.68,2.29,1.24,3.66,1.32l.93.07v2.21l-2.52-.13c-3.28-.17-6.12-.32-9.1-.32-3.42,0-6.63,0-10.87.4l-1.07.1h0Z"/>
        <path class="cls-1" d="M188.61,76.56v-2.29l.92-.07c.8-.06,2.81-.37,4.21-1.95,1.47-1.63,1.54-5.64,1.54-13.7v-23.47h-6.17v-2.65l.62-.26c2.68-1.11,4.33-1.98,5.55-2.93,0-4.19.14-9.61.71-12.55,1.87-9.77,8.26-14.73,18.99-14.73,4.61,0,9,1.54,11.55,3.61l.36.3.15,1-4.7,6.53-1.13.02-.26-.59c-1.8-4.02-4.41-5.58-7.98-5.58-1.48,0-3.51.44-4.77,1.7-2.05,2.04-2.4,5.09-2.4,11.13v9.15h10.54v5.86h-10.54v26.25c0,6.25.21,9.29,1.02,10.51,1.32,1.99,5.35,2.14,6.53,2.14h1v2.52l-1.05-.06c-5.21-.27-9.09-.4-11.89-.4-3.51,0-7.51,0-11.74.4l-1.09.1h0Z"/>
        <path class="cls-1" d="M243.04,77.35c-14.44,0-23.07-9-23.07-24.07,0-11.71,6.3-25.37,24.07-25.37,14.45,0,23.08,9,23.08,24.06,0,11.71-6.31,25.37-24.08,25.37h0ZM243.64,33.39c-2.79,0-5.05.72-6.7,2.15-3.8,3.18-5.73,8.99-5.73,17.24,0,3.19.59,19.11,12.24,19.11,2.78,0,5.04-.73,6.71-2.15,3.79-3.18,5.72-8.99,5.72-17.24,0-3.19-.59-19.1-12.24-19.1h0Z"/>
        <path class="cls-1" d="M271.69,76.56v-2.39l.92-.07c.8-.05,2.82-.37,4.21-1.95,1.47-1.63,1.53-5.52,1.53-13.59v-13.53c0-5.82-.08-8.32-.91-9.58-.97-1.39-3.1-1.54-4.25-1.62-.14,0-.27-.02-.37-.03l-.92-.1v-2.87l1.02.02c.18.01.48.02.77.02,1.47,0,4.92-.18,8.55-.9,2.3-.38,4.27-.97,5.07-1.35l.55-.25.83.44v4.11c2.27-2.14,5.86-4.41,10.95-4.41,3.31,0,5.98.89,7.93,2.64l.32.3v1.49l-3.99,7.3h-1.92l-.3-.46c-1.11-1.74-3.33-3.81-7.62-3.81-1.96,0-3.67.49-5.17,1.5v23.85c0,6.25.21,9.19,1.02,10.42,1.34,1.98,5.35,2.14,6.53,2.14h.99v2.62l-1.04-.06c-5.21-.27-9.1-.4-11.89-.4-3.51,0-7.51,0-11.73.4l-1.1.1h0Z"/>
        <path class="cls-1" d="M346.1,77.22l-1.27-.43v-3.99c-2.35,1.74-7,4.44-13.22,4.44-13,0-21.4-9.01-21.4-22.97,0-4.63.91-9.03,2.59-12.74,3.96-8.59,12.2-13.51,22.58-13.51,3.8,0,7.21.47,9.25.91v-10.06c0-5.9-.08-9.05-.92-10.31-.96-1.38-3.04-1.54-4.16-1.62-.15,0-.27-.01-.38-.03l-.89-.09.21-2.12h1c.23,0,5.7-.46,10.14-1.33,1.86-.3,3.71-.72,4.68-1.08l.47-.18.82.49-.04.46c-.31,3.9-.36,12.24-.36,18.49v38.59c0,5.77.08,9.34.91,10.48.98,1.41,3.04,1.64,4.16,1.73.15,0,.29.01.39.03l.89.04v2.54h-.99c-1.06,0-5.19.29-9.19.97-2.3.38-3.99.71-4.82,1.09l-.43.19h0ZM335.17,33.69c-9.22,0-13.72,6.31-13.72,19.3,0,5.26,1.49,17.5,15.23,17.5h.44c1.67,0,4.79-.25,7.51-1.93v-31.7c-.77-.76-3.65-3.17-9.45-3.17h0Z"/>
      </g>
    </g>
  </g>
</svg>