<svg width="100" height="40" xmlns="http://www.w3.org/2000/svg"><path d="M3 20v16h32V4H3v16zm31.2 0v15.2H3.8V4.8h30.4V20zM4.36 20v14.64l29.28-.04V5.4L4.36 5.36V20zm28.88 0v14.24H4.76V5.76h28.48V20zM5.976 11.736L6 16.52l2.096.048-.04-1c-.08-2.032.4-3.712 1.544-5.448.752-1.128 1.864-2.208 2.96-2.872l.48-.288H5.96l.016 4.776zM22.44 8.088c0 .872-.024 1.12-.096 1.088-.056-.024-.464-.208-.904-.408-3.696-1.664-7.576-.76-9.424 2.2-1.848 2.968-1.264 7.248 1.272 9.312 1.896 1.536 4.784 1.872 7.32.84.88-.352.84-.264.728-1.736-.048-.696-.16-1.544-.24-1.888l-.152-.616 1.608-.016c2.824-.016 3.488.048 4.592.464 2.12.8 3.448 2.808 3.16 4.8-.208 1.456-1.16 2.68-2.872 3.68-.136.08-.128.112.12.56.728 1.28 2.84 4.16 4.224 5.736l.264.296V6.96h-9.6v1.128zM8.408 18.2c-.12.32-.208 3.2-.232 7.984l-.032 5.192.528-.056c1.936-.192 3.728-.592 5.312-1.192.296-.112.536-.192.536-.176 0 .016-.288.68-.64 1.48-.352.8-.64 1.488-.64 1.536 0 .04.6.072 1.472.072 1.264 0 1.48-.016 1.52-.128.024-.072.048-2.112.048-4.544v-4.424l-.608-.056c-1.32-.12-3.08-.752-4.056-1.464A8.44 8.44 0 018.72 18.68c-.256-.656-.248-.64-.312-.48zM23.8 21.84c0 1.936.032 3.52.064 3.52.208 0 1.76-.592 2.192-.832.632-.352 1.28-1.008 1.512-1.528.248-.56.304-1.552.112-2.128-.304-.912-.888-1.576-1.784-2.024-.464-.24-1.504-.528-1.872-.528H23.8v3.52zm-2.736 1.48c-.08.088-1.152.36-1.864.488-.392.064-.744.168-.776.216-.072.112-.088 8.408-.016 8.768l.056.248h2.512l.136-.784c.224-1.304.288-2.56.288-5.84 0-2.984-.008-3.136-.144-3.136-.08 0-.168.016-.192.04zm2.736 4.536c0 2.288.088 3.608.304 4.544l.144.6 2.952.024 2.952.016-.88-.832c-1.392-1.32-2.592-2.728-4.904-5.792-.272-.36-.512-.656-.528-.656-.024 0-.04.944-.04 2.096zM55.938 10.648l.117 4.793c-.594-.632-1.153-1.093-1.676-1.382-.914-.5-1.89-.75-2.93-.75-1.586 0-2.914.636-3.984 1.91-1.024 1.21-1.535 2.722-1.535 4.535 0 1.867.468 3.375 1.406 4.523a5.083 5.083 0 001.828 1.407c.695.312 1.43.468 2.203.468 1.219 0 2.367-.379 3.446-1.136.351-.243.777-.618 1.277-1.125l.094 4.593c-1.954.649-3.864.973-5.73.973-2.9 0-5.22-.84-6.962-2.52-1.797-1.726-2.695-3.968-2.695-6.726 0-1.992.473-3.793 1.418-5.402 1-1.711 2.414-2.946 4.242-3.704 1.453-.609 3.117-.914 4.992-.914 1.703 0 3.2.153 4.489.457zM68.362 29H57.617c.266-.469.442-.898.528-1.29.085-.468.132-1.167.14-2.097V14.035c-.008-.93-.055-1.629-.14-2.098-.086-.398-.262-.828-.528-1.289h6.281c-.265.47-.437.899-.515 1.29-.084.416-.13 1.015-.14 1.796v11.961h1.605c1.586 0 2.812-.152 3.68-.457.515-.18 1.1-.504 1.757-.972L68.363 29zm17.399-18.352c1.781 0 3.136.172 4.066.516 1.125.406 1.992 1.078 2.602 2.016.53.836.797 1.746.797 2.73 0 1.227-.375 2.277-1.125 3.152-.422.493-1.094.977-2.016 1.454l.492.656 2.438 3.328 2.543 3.469.375.504c-1.032.656-1.973.984-2.825.984-.507 0-1.02-.172-1.535-.516-.594-.39-1.316-1.136-2.168-2.238l-3.797-4.91v3.82c0 .93.047 1.63.141 2.098.078.39.25.82.516 1.289h-6.282c.266-.469.442-.898.528-1.29.086-.468.133-1.167.14-2.097V14.035c-.007-.93-.054-1.629-.14-2.098-.086-.39-.262-.82-.528-1.289h5.778zm-8.043 0c-.266.461-.438.891-.516 1.29-.094.468-.14 1.167-.14 2.097v11.578c0 .93.046 1.63.14 2.098.078.39.25.82.516 1.289h-6.281c.265-.469.44-.898.527-1.29.086-.468.133-1.167.14-2.097V14.035c-.007-.93-.054-1.629-.14-2.098-.086-.398-.262-.828-.528-1.289h6.282zm7.89 3.118v5.168c.743-.102 1.293-.329 1.653-.68.554-.524.832-1.215.832-2.074 0-.914-.317-1.586-.95-2.016-.398-.266-.91-.398-1.535-.398z"/></svg>
